<?xml version="1.0" encoding="UTF-8" standalone="no"?>
<!-- Created with Inkscape (http://www.inkscape.org/) -->

<svg
   width="64"
   height="64"
   viewBox="0 0 16.933336 16.933336"
   version="1.1"
   id="svg1"
   inkscape:version="1.3 (0e150ed6c4, 2023-07-21)"
   sodipodi:docname="b-2-swords.svg"
   xml:space="preserve"
   xmlns:inkscape="http://www.inkscape.org/namespaces/inkscape"
   xmlns:sodipodi="http://sodipodi.sourceforge.net/DTD/sodipodi-0.dtd"
   xmlns="http://www.w3.org/2000/svg"
   xmlns:svg="http://www.w3.org/2000/svg"
   xmlns:rdf="http://www.w3.org/1999/02/22-rdf-syntax-ns#"
   xmlns:cc="http://creativecommons.org/ns#"
   xmlns:dc="http://purl.org/dc/elements/1.1/"><sodipodi:namedview
     id="namedview1"
     pagecolor="#ffffff"
     bordercolor="#000000"
     borderopacity="0.25"
     inkscape:showpageshadow="2"
     inkscape:pageopacity="0.0"
     inkscape:pagecheckerboard="0"
     inkscape:deskcolor="#d1d1d1"
     inkscape:document-units="px"
     showgrid="true"
     inkscape:zoom="4"
     inkscape:cx="37"
     inkscape:cy="64.125"
     inkscape:window-width="1393"
     inkscape:window-height="701"
     inkscape:window-x="585"
     inkscape:window-y="1173"
     inkscape:window-maximized="0"
     inkscape:current-layer="g29"><sodipodi:guide
       position="-2.116667,15.875002"
       orientation="0,-1"
       id="guide7"
       inkscape:locked="false"
       inkscape:label=""
       inkscape:color="rgb(0,134,229)" /><sodipodi:guide
       position="15.875003,16.933336"
       orientation="-1,0"
       id="guide8"
       inkscape:locked="false"
       inkscape:label=""
       inkscape:color="rgb(0,134,229)" /><sodipodi:guide
       position="16.933336,1.0583335"
       orientation="0,1"
       id="guide9"
       inkscape:locked="false"
       inkscape:label=""
       inkscape:color="rgb(0,134,229)" /><sodipodi:guide
       position="1.0583335,0"
       orientation="-1,0"
       id="guide10"
       inkscape:locked="false"
       inkscape:label=""
       inkscape:color="rgb(0,134,229)" /><inkscape:grid
       id="grid10"
       units="px"
       originx="0"
       originy="0"
       spacingx="0.26458338"
       spacingy="0.26458338"
       empcolor="#0099e5"
       empopacity="0.30196078"
       color="#0099e5"
       opacity="0.14901961"
       empspacing="4"
       dotted="true"
       gridanglex="30"
       gridanglez="30"
       visible="true" /></sodipodi:namedview><defs
     id="defs1" /><g
     inkscape:label="layer1"
     inkscape:groupmode="layer"
     id="layer1"><g
       id="g10"
       style="fill:#ffffff;opacity:1"><path
         id="rect10"
         style="opacity:0;fill:#ffffff;fill-rule:evenodd;stroke-width:0.396875"
         d="M 0,0 H 16.933336 V 16.933336 H 0 Z"
         inkscape:label="clear-background"
         sodipodi:insensitive="true" /><g
         id="g11"
         transform="matrix(0.51851862,0,0,0.42010276,-0.31357881,2.7590456)"
         style="fill:#ffffff"><g
           id="g12"
           transform="matrix(1,0,0,1.417164,-1.9312542e-8,-12.357776)"
           style="fill:#ffffff" /></g></g><g
       id="g23"><g
         id="g29"
         transform="matrix(0.65182853,0.65201459,-0.65182853,0.65201459,6.5019093,-0.60667976)"><g
           id="g30"><path
             id="rect23"
             style="opacity:1;fill-rule:evenodd;stroke-width:0.396875;fill:#000000"
             d="m 7.7611124,10.583335 c 0.4445585,-0.256189 0.9091119,-0.313924 1.4111113,0 -0.2068008,1.335205 -0.3780237,2.725116 0,4.233334 -0.482501,0.249931 -0.9506099,0.203337 -1.4111113,0 0.1663359,-1.411142 0.170419,-2.768513 0,-4.233334 z"
             sodipodi:nodetypes="ccccc" /><path
             id="rect24"
             style="opacity:1;fill-rule:evenodd;stroke-width:0.530614;fill:#000000"
             d="m 7.8052096,14.910728 c 0.4611267,0.275171 0.9336913,0.209854 1.4111113,0 l 0.1763889,0.964275 c -0.4860539,0.60418 -1.3974956,0.607993 -1.8520836,0 z"
             sodipodi:nodetypes="ccccc" /><g
             id="g28"
             transform="translate(16.22778)"
             style="fill:#000000"><path
               id="rect25"
               style="opacity:1;fill-rule:evenodd;stroke-width:0.396875;fill:#000000"
               d="m -8.4664954,9.1188247 v 0.2284098 l -3.1750006,-0.086816 v 1.0583335 l 3.1750006,-0.177767 v 0.227893 c 0.3019783,-0.226216 0.7948607,-0.313538 1.4107668,0 v -0.227893 l 3.1750005,0.177767 V 9.2604181 l -3.1750005,0.086816 V 9.1188247 Z" /></g><path
             id="rect27"
             style="opacity:1;fill-rule:evenodd;stroke-width:0.200159;fill:#000000"
             d="M 7.5419094,8.4804869 H 9.3914266 L 9.1722232,8.9882544 7.7611119,8.9995813 Z"
             sodipodi:nodetypes="ccccc" /><path
             d="m 8.0990937,6.3707759 -0.5509118,7.86e-5 1.213e-4,1.9273985 0.5509118,-7.86e-5 z"
             style="fill-rule:evenodd;stroke-width:1.11653"
             id="path40" /><path
             d="M 9.3848187,6.3705924 8.8339069,6.370671 8.8340282,8.2980695 9.38494,8.2979909 Z"
             style="fill-rule:evenodd;stroke-width:1.11653"
             id="path38" /><path
             d="m 7.548444,4.5342177 0.5509118,-7.86e-5 4.84e-5,-8.6715098 0.3674368,-0.2113014 0.3673765,0.2111965 -4.85e-5,8.6715098 0.5509118,-7.86e-5 1.707e-4,-9.5283956 -0.9185836,-0.9185837 -0.9184495,0.9184495 z"
             style="fill-rule:evenodd;stroke-width:1.11653"
             id="path31" /></g><path
           d="m 17.924969,4.7907539 c 0.0344,0.057641 0.06343,0.1159951 0.08757,0.1739805 0.02414,0.057985 0.04359,0.1156805 0.05824,0.1739847 0.01465,0.058304 0.02457,0.1169766 0.03049,0.175574 0.0059,0.058597 0.0076,0.1171091 0.0055,0.1759739 -0.002,0.058865 -0.0078,0.1180596 -0.01707,0.1771661 -0.0092,0.059107 -0.02161,0.1182429 -0.03728,0.1775654 -0.01567,0.059323 -0.03458,0.1184515 -0.05591,0.1779644 -0.02133,0.059513 -0.04514,0.1194781 -0.07137,0.1791556 l 0.964269,0.1762334 c 0.03776,-0.030378 0.07316,-0.062443 0.106233,-0.095929 0.03307,-0.033486 0.0636,-0.068483 0.09196,-0.1046467 0.02837,-0.036164 0.05403,-0.073369 0.0777,-0.1117788 0.02366,-0.03841 0.04527,-0.077893 0.06422,-0.1181183 0.01896,-0.040226 0.03572,-0.081262 0.04996,-0.1228724 0.01424,-0.04161 0.02617,-0.083477 0.03569,-0.126041 0.0095,-0.042564 0.01623,-0.085726 0.02103,-0.1288133 0.0048,-0.043088 0.0075,-0.086424 0.0075,-0.1296041 5.9e-5,-0.04318 -0.0024,-0.086364 -0.0071,-0.1292056 -0.0047,-0.042842 -0.01157,-0.085149 -0.02099,-0.1272219 -0.0094,-0.042073 -0.02109,-0.083969 -0.03526,-0.1248419 -0.01417,-0.040873 -0.0306,-0.080842 -0.04953,-0.1200838 -0.01893,-0.039242 -0.04051,-0.077749 -0.06419,-0.1149293 -0.02369,-0.037181 -0.04961,-0.072708 -0.07806,-0.1073968 -0.02845,-0.034688 -0.05951,-0.068099 -0.09273,-0.099864 -0.03322,-0.031765 -0.0686,-0.062335 -0.106602,-0.090746 z"
           style="opacity:1;fill-rule:evenodd;stroke-width:0.530614"
           id="path47" /><path
           d="m 13.597742,4.7469814 c -0.03202,0.05557 -0.06134,0.1114353 -0.08682,0.1676639 -0.02548,0.056229 -0.04755,0.1126869 -0.06582,0.1696427 -0.01827,0.056956 -0.03245,0.1142664 -0.04283,0.1720174 -0.01037,0.057751 -0.01685,0.1161739 -0.01865,0.1747883 -0.0018,0.058615 8.56e-4,0.1176165 0.0083,0.1771626 0.0074,0.059546 0.01987,0.1193869 0.03723,0.1799327 0.01736,0.060546 0.03978,0.1218818 0.06775,0.1834955 0.02796,0.061614 0.0614,0.1235153 0.100644,0.1862652 0.1669,-0.02585 0.334627,-0.050849 0.503361,-0.074584 0.168735,-0.023735 0.338489,-0.045855 0.509306,-0.065469 0.170816,-0.019614 0.342497,-0.036923 0.515645,-0.050409 0.173147,-0.013485 0.347842,-0.023657 0.523568,-0.029007 0.175726,-0.00535 0.352938,-0.00606 0.531491,-0.00126 0.178554,0.00479 0.358577,0.015088 0.540206,0.032026 0.18163,0.016938 0.364759,0.040567 0.549713,0.071659 0.09248,0.015546 0.185264,0.033213 0.278619,0.052673 0.09335,0.019461 0.187128,0.04054 0.281392,0.064167 0.03124,-0.060313 0.05784,-0.1200734 0.08009,-0.1799495 0.02225,-0.059876 0.04013,-0.119687 0.05393,-0.1791531 0.0138,-0.059466 0.02345,-0.1184817 0.02935,-0.1775642 0.0059,-0.059083 0.0082,-0.1184391 0.0068,-0.1771647 -0.0015,-0.058726 -0.0064,-0.1171812 -0.01464,-0.1755763 -0.0083,-0.058395 -0.01993,-0.1166897 -0.03446,-0.1747807 -0.01453,-0.058091 -0.03205,-0.1157756 -0.05229,-0.1735892 -0.02025,-0.057814 -0.04312,-0.115628 -0.06854,-0.1731906 -0.176392,0.020792 -0.352112,0.039072 -0.527139,0.05477 -0.175027,0.015698 -0.349675,0.029153 -0.523966,0.039709 -0.174292,0.010555 -0.348194,0.018489 -0.522379,0.023855 -0.174186,0.00537 -0.34846,0.00787 -0.523169,0.008 -0.17471,1.276e-4 -0.350079,-0.0023 -0.525942,-0.00746 -0.175863,-0.00516 -0.352256,-0.012817 -0.529902,-0.023308 -0.177646,-0.010492 -0.356579,-0.023684 -0.536638,-0.039557 -0.18006,-0.015873 -0.361064,-0.034504 -0.544166,-0.055806 z"
           style="opacity:1;fill-rule:evenodd;stroke-width:0.396875"
           id="path46" /><path
           d="m 11.494796,4.5277094 -2.64e-4,1.8493197 0.508139,-0.2188518 0.0109,-1.4113662 z"
           style="opacity:1;fill-rule:evenodd;stroke-width:0.200159"
           id="path45" /><path
           d="m 11.494796,4.5277094 0.518777,0.2191017 -0.0109,1.4113662 -0.508139,0.2188518 z"
           style="opacity:1;fill-rule:evenodd;stroke-width:0.200159"
           id="path44" /><path
           d="m 12.274818,1.5720952 0.08674,3.1746662 -0.228688,4.29e-4 1.96e-4,1.4105719 0.228291,-3.26e-5 -0.08646,3.1750873 1.058227,-1.51e-4 -0.1779,-3.1746532 0.227895,-4.289e-4 c -0.03919,-0.076988 -0.07227,-0.1516991 -0.09945,-0.2247102 -0.02718,-0.073011 -0.04839,-0.1440562 -0.06457,-0.2128251 -0.01619,-0.068769 -0.02705,-0.1354887 -0.03326,-0.1997503 -0.0062,-0.064262 -0.0079,-0.1263934 -0.0051,-0.1858824 0.0027,-0.059489 0.0096,-0.1163739 0.02024,-0.1708252 0.01065,-0.054451 0.02528,-0.1062227 0.04283,-0.1553711 0.01755,-0.049149 0.03803,-0.095544 0.06145,-0.1391239 0.02343,-0.043581 0.04942,-0.084336 0.0777,-0.1220837 l -0.227499,3.25e-5 0.177617,-3.1751003 z"
           style="opacity:1;fill-rule:evenodd;stroke-width:0.396875"
           id="path43" /><path
           d="m 12.274818,1.5720952 1.058226,-1.51e-4 -0.177617,3.1751003 0.227499,-3.25e-5 c -0.02828,0.037747 -0.05427,0.078503 -0.0777,0.1220837 -0.02342,0.04358 -0.0439,0.089975 -0.06145,0.1391239 -0.01755,0.049148 -0.03218,0.1009198 -0.04283,0.1553711 -0.01065,0.054451 -0.01751,0.1113362 -0.02024,0.1708252 -0.0027,0.059489 -0.0011,0.1216209 0.0051,0.1858824 0.0062,0.064262 0.01708,0.1309814 0.03326,0.1997503 0.01619,0.068769 0.0374,0.139814 0.06457,0.2128251 0.02718,0.073011 0.06026,0.1477221 0.09945,0.2247102 l -0.227895,4.289e-4 0.1779,3.1746532 -1.058227,1.51e-4 0.08646,-3.1750873 -0.228291,3.26e-5 -1.96e-4,-1.4105719 0.228688,-4.29e-4 z m 1.322924,3.1748862 c 0.183102,0.021302 0.364106,0.039933 0.544166,0.055806 0.180059,0.015873 0.358992,0.029066 0.536638,0.039557 0.177646,0.010492 0.354039,0.01815 0.529902,0.023308 0.175863,0.00516 0.351232,0.00758 0.525942,0.00746 0.174709,-1.276e-4 0.348983,-0.00264 0.523169,-0.008 0.174185,-0.00537 0.348087,-0.013299 0.522379,-0.023855 0.174291,-0.010555 0.348939,-0.024011 0.523966,-0.039709 0.175027,-0.015698 0.350747,-0.033978 0.527139,-0.05477 0.02542,0.057563 0.0483,0.115377 0.06854,0.1731906 0.02025,0.057814 0.03776,0.1154981 0.05229,0.1735892 0.01453,0.058091 0.02619,0.1163856 0.03446,0.1747807 0.0083,0.058395 0.01318,0.1168507 0.01464,0.1755763 0.0015,0.058726 -8.64e-4,0.1180821 -0.0068,0.1771647 -0.0059,0.059083 -0.01555,0.1180981 -0.02935,0.1775642 -0.0138,0.059466 -0.03168,0.119277 -0.05393,0.1791531 -0.02225,0.059876 -0.04885,0.119637 -0.08009,0.1799495 -0.09426,-0.023626 -0.188037,-0.044706 -0.281392,-0.064167 -0.09335,-0.019461 -0.186142,-0.037127 -0.278619,-0.052673 -0.184954,-0.031092 -0.368083,-0.054721 -0.549713,-0.071659 -0.181629,-0.016938 -0.361652,-0.027236 -0.540206,-0.032026 -0.178553,-0.00479 -0.355765,-0.00409 -0.531491,0.00126 -0.175726,0.00535 -0.350421,0.015522 -0.523568,0.029007 -0.173148,0.013485 -0.344829,0.030795 -0.515645,0.050409 -0.170817,0.019613 -0.340571,0.041734 -0.509306,0.065469 -0.168734,0.023735 -0.336461,0.048734 -0.503361,0.074584 -0.03924,-0.06275 -0.07268,-0.1246514 -0.100644,-0.1862652 -0.02796,-0.061614 -0.05038,-0.1229496 -0.06775,-0.1834955 -0.01736,-0.060546 -0.02979,-0.1203867 -0.03723,-0.1799327 -0.0074,-0.059546 -0.0101,-0.1185481 -0.0083,-0.1771626 0.0018,-0.058614 0.0083,-0.1170373 0.01865,-0.1747883 0.01037,-0.057751 0.02456,-0.1150616 0.04283,-0.1720174 0.01827,-0.056956 0.04033,-0.113414 0.06582,-0.1696427 0.02548,-0.056229 0.0548,-0.1120942 0.08682,-0.1676639 z m 4.327227,0.043773 0.964332,-0.264496 c 0.038,0.028412 0.07338,0.058981 0.106602,0.090746 0.03322,0.031765 0.06428,0.065176 0.09273,0.099864 0.02845,0.034688 0.05438,0.070216 0.07806,0.1073968 0.02368,0.037181 0.04526,0.075687 0.06419,0.1149293 0.01893,0.039242 0.03535,0.079211 0.04953,0.1200838 0.01417,0.040873 0.02583,0.082769 0.03526,0.1248419 0.0094,0.042073 0.01631,0.08438 0.02099,0.1272219 0.0047,0.042842 0.0072,0.086026 0.0071,0.1292056 -6e-5,0.04318 -0.0028,0.086517 -0.0075,0.1296041 -0.0048,0.043088 -0.01151,0.086249 -0.02103,0.1288133 -0.0095,0.042564 -0.02145,0.084431 -0.03569,0.126041 -0.01424,0.04161 -0.031,0.082647 -0.04996,0.1228724 -0.01895,0.040225 -0.04056,0.079709 -0.06422,0.1181183 -0.02367,0.03841 -0.04933,0.075615 -0.0777,0.1117788 -0.02837,0.036163 -0.0589,0.07116 -0.09196,0.1046467 -0.03307,0.033486 -0.06847,0.065551 -0.106233,0.095929 L 17.925164,6.2021185 c 0.02623,-0.059678 0.05004,-0.1196428 0.07137,-0.1791556 0.02133,-0.059513 0.04024,-0.1186418 0.05591,-0.1779644 0.01567,-0.059323 0.02804,-0.1184588 0.03728,-0.1775654 0.0092,-0.059107 0.01503,-0.1183013 0.01707,-0.1771661 0.002,-0.058865 3.97e-4,-0.1173765 -0.0055,-0.1759739 -0.0059,-0.058597 -0.01585,-0.1172698 -0.03049,-0.175574 -0.01465,-0.058304 -0.0341,-0.1159993 -0.05824,-0.1739847 -0.02414,-0.057985 -0.05317,-0.1163397 -0.08757,-0.1739805 z"
           style="opacity:1;fill-rule:evenodd;stroke-width:0.396875"
           id="path42" /><path
           d="m 8.0990937,6.3707759 7.86e-5,-0.5509118 -0.5509118,7.86e-5 -7.86e-5,0.5509118 z"
           style="fill-rule:evenodd;stroke-width:1.11653"
           id="path41" /><path
           d="m 8.8339069,6.370671 7.87e-5,-0.5509117 -0.7348133,1.048e-4 -7.86e-5,0.5509118 z"
           style="fill-rule:evenodd;stroke-width:1.11653"
           id="path39" /><path
           d="m 9.3848973,5.8196806 -0.5509117,7.87e-5 -7.87e-5,0.5509117 0.5509118,-7.86e-5 z"
           style="fill-rule:evenodd;stroke-width:1.11653"
           id="path37" /><path
           d="m 9.3848973,5.8196806 -7.86e-5,0.5509118 1.9273983,1.213e-4 7.9e-5,-0.5509118 z"
           style="fill-rule:evenodd;stroke-width:1.11653"
           id="path36" /><path
           d="m 9.3850808,4.5339556 -7.86e-5,0.5509118 1.9273988,1.213e-4 7.8e-5,-0.5509118 z"
           style="fill-rule:evenodd;stroke-width:1.11653"
           id="path35" /><path
           d="m 8.834169,4.5340342 -7.86e-5,0.5509118 0.5509118,-7.86e-5 7.86e-5,-0.5509118 z"
           style="fill-rule:evenodd;stroke-width:1.11653"
           id="path34" /><path
           d="M 8.0993558,4.5341391 8.0992772,5.0850508 8.8340904,5.084946 8.834169,4.5340342 Z"
           style="fill-rule:evenodd;stroke-width:1.11653"
           id="path33" /><path
           d="m 7.548444,4.5342177 -7.86e-5,0.5509118 0.5509118,-7.87e-5 7.86e-5,-0.5509117 z"
           style="fill-rule:evenodd;stroke-width:1.11653"
           id="path32" /><path
           d="m -2.8987974,5.4524416 0.9185837,0.9185836 9.5283956,-1.707e-4 7.86e-5,-0.5509118 -8.6715098,4.84e-5 -0.2111965,-0.3673764 0.2113014,-0.3674368 8.6715098,-4.84e-5 7.86e-5,-0.5509118 -9.5287919,-2.256e-4 z"
           style="fill-rule:evenodd;stroke-width:1.11653"
           id="path30" /></g></g></g><metadata
     id="metadata10"><rdf:RDF><cc:Work
         rdf:about=""><dc:creator><cc:Agent><dc:title>mediapire llc</dc:title></cc:Agent></dc:creator><dc:rights><cc:Agent><dc:title>https://mediapire.com/assets/license</dc:title></cc:Agent></dc:rights></cc:Work></rdf:RDF></metadata></svg>
