<?xml version="1.0" encoding="UTF-8" standalone="no"?>
<!-- Created with Inkscape (http://www.inkscape.org/) -->

<svg
   width="64"
   height="64"
   viewBox="0 0 16.933336 16.933336"
   version="1.1"
   id="svg1"
   inkscape:version="1.3 (0e150ed6c4, 2023-07-21)"
   sodipodi:docname="b-2-rifle-bullet.svg"
   xml:space="preserve"
   xmlns:inkscape="http://www.inkscape.org/namespaces/inkscape"
   xmlns:sodipodi="http://sodipodi.sourceforge.net/DTD/sodipodi-0.dtd"
   xmlns="http://www.w3.org/2000/svg"
   xmlns:svg="http://www.w3.org/2000/svg"
   xmlns:rdf="http://www.w3.org/1999/02/22-rdf-syntax-ns#"
   xmlns:cc="http://creativecommons.org/ns#"
   xmlns:dc="http://purl.org/dc/elements/1.1/"><sodipodi:namedview
     id="namedview1"
     pagecolor="#ffffff"
     bordercolor="#000000"
     borderopacity="0.25"
     inkscape:showpageshadow="2"
     inkscape:pageopacity="0.0"
     inkscape:pagecheckerboard="0"
     inkscape:deskcolor="#d1d1d1"
     inkscape:document-units="px"
     showgrid="true"
     inkscape:zoom="8"
     inkscape:cx="-14"
     inkscape:cy="34.8125"
     inkscape:window-width="2560"
     inkscape:window-height="947"
     inkscape:window-x="0"
     inkscape:window-y="1112"
     inkscape:window-maximized="1"
     inkscape:current-layer="g4"><sodipodi:guide
       position="-2.116667,15.875002"
       orientation="0,-1"
       id="guide7"
       inkscape:locked="false"
       inkscape:label=""
       inkscape:color="rgb(0,134,229)" /><sodipodi:guide
       position="15.875003,16.933336"
       orientation="-1,0"
       id="guide8"
       inkscape:locked="false"
       inkscape:label=""
       inkscape:color="rgb(0,134,229)" /><sodipodi:guide
       position="16.933336,1.0583335"
       orientation="0,1"
       id="guide9"
       inkscape:locked="false"
       inkscape:label=""
       inkscape:color="rgb(0,134,229)" /><sodipodi:guide
       position="1.0583335,0"
       orientation="-1,0"
       id="guide10"
       inkscape:locked="false"
       inkscape:label=""
       inkscape:color="rgb(0,134,229)" /><inkscape:grid
       id="grid10"
       units="px"
       originx="0"
       originy="0"
       spacingx="0.26458338"
       spacingy="0.26458338"
       empcolor="#0099e5"
       empopacity="0.30196078"
       color="#0099e5"
       opacity="0.14901961"
       empspacing="4"
       dotted="true"
       gridanglex="30"
       gridanglez="30"
       visible="true" /></sodipodi:namedview><defs
     id="defs1" /><g
     inkscape:label="layer1"
     inkscape:groupmode="layer"
     id="layer1"><g
       id="g23"><g
         id="g29"
         transform="matrix(0.65182853,0.65201459,-0.65182853,0.65201459,6.5019093,-0.60667976)"><g
           id="g47"
           style="fill:#ffffff"><g
             id="g10"
             style="fill:#ffffff;opacity:1"
             transform="matrix(0.76707291,-0.76707291,0.76685401,0.76685401,-4.5222036,5.4526732)"><path
               id="rect10"
               style="opacity:0;fill:#ffffff;fill-rule:evenodd;stroke-width:0.396875"
               d="M 0,0 H 16.933336 V 16.933336 H 0 Z"
               inkscape:label="clear-background"
               sodipodi:insensitive="true" /><g
               id="g11"
               transform="matrix(0.51851862,0,0,0.42010276,-0.31357881,2.7590456)"
               style="fill:#ffffff"><g
                 id="g12"
                 transform="matrix(1,0,0,1.417164,-1.9312542e-8,-12.357776)"
                 style="fill:#ffffff" /></g></g><g
             id="g4"
             transform="matrix(1.341166,-0.01108819,-0.01108819,1.341166,-2.6803739,-5.6464558)"><g
               id="g16"
               transform="translate(8.5937996,-6.1146497)" /><g
               id="g22"
               transform="translate(-1.2501315,1.2501315)"><path
                 id="rect18"
                 style="fill:#000000;fill-rule:evenodd;stroke-width:0.0828764"
                 d="m 4.1079658,4.0723626 c 0.632419,1.1510565 1.2432494,2.042058 1.8379174,2.7384348 L 6.8464006,5.91028 C 6.021778,5.1961241 5.1510572,4.5350244 4.1079658,4.0723626 Z m 1.9508365,2.8513539 0.6498063,0.649806 0.1599216,1.060439 3.6610818,3.6610825 1.801035,-1.801035 L 8.669565,6.832927 7.609126,6.6730054 6.9593197,6.0231991 Z m 4.7734417,5.3737865 0.30509,0.30509 1.500862,-1.500862 -0.30509,-0.30509 z m 0.307548,0.607721 0.610181,0.610181 1.801034,-1.801035 -0.61018,-0.61018 z" /><path
                 id="rect18-9"
                 style="fill:#000000;fill-rule:evenodd;stroke-width:0.0828764"
                 d="m 6.6082289,1.5720995 c 0.632419,1.1510565 1.2432494,2.042058 1.8379174,2.7384348 L 9.3466637,3.4100169 C 8.5220411,2.695861 7.6513203,2.0347613 6.6082289,1.5720995 Z M 8.5590654,4.4234534 9.2088717,5.0732594 9.3687933,6.1336984 13.029875,9.7947808 14.83091,7.9937458 11.169828,4.3326639 10.109389,4.1727423 9.4595828,3.522936 Z m 4.7734416,5.3737864 0.30509,0.3050902 1.500862,-1.5008622 -0.30509,-0.30509 z m 0.307548,0.6077212 0.610181,0.610181 1.801034,-1.8010352 -0.61018,-0.61018 z" /></g></g></g></g></g></g><metadata
     id="metadata10"><rdf:RDF><cc:Work
         rdf:about=""><dc:creator><cc:Agent><dc:title>mediapire llc</dc:title></cc:Agent></dc:creator><dc:rights><cc:Agent><dc:title>https://mediapire.com/assets/license</dc:title></cc:Agent></dc:rights></cc:Work></rdf:RDF></metadata></svg>
