<?xml version="1.0" encoding="UTF-8" standalone="no"?>
<!-- Created with Inkscape (http://www.inkscape.org/) -->

<svg
   width="64"
   height="64"
   viewBox="0 0 16.933336 16.933336"
   version="1.1"
   id="svg1"
   inkscape:version="1.3 (0e150ed6c4, 2023-07-21)"
   sodipodi:docname="b-3-bars.svg"
   xml:space="preserve"
   xmlns:inkscape="http://www.inkscape.org/namespaces/inkscape"
   xmlns:sodipodi="http://sodipodi.sourceforge.net/DTD/sodipodi-0.dtd"
   xmlns="http://www.w3.org/2000/svg"
   xmlns:svg="http://www.w3.org/2000/svg"
   xmlns:rdf="http://www.w3.org/1999/02/22-rdf-syntax-ns#"
   xmlns:cc="http://creativecommons.org/ns#"
   xmlns:dc="http://purl.org/dc/elements/1.1/"><sodipodi:namedview
     id="namedview1"
     pagecolor="#ffffff"
     bordercolor="#000000"
     borderopacity="0.25"
     inkscape:showpageshadow="2"
     inkscape:pageopacity="0.0"
     inkscape:pagecheckerboard="0"
     inkscape:deskcolor="#d1d1d1"
     inkscape:document-units="px"
     showgrid="true"
     inkscape:zoom="8.0000004"
     inkscape:cx="24.124999"
     inkscape:cy="36.937498"
     inkscape:window-width="2560"
     inkscape:window-height="947"
     inkscape:window-x="0"
     inkscape:window-y="1112"
     inkscape:window-maximized="1"
     inkscape:current-layer="layer1"><sodipodi:guide
       position="8.4666681,15.875002"
       orientation="0,1"
       id="guide7"
       inkscape:locked="false"
       inkscape:label=""
       inkscape:color="rgb(0,134,229)" /><sodipodi:guide
       position="15.875003,8.4666679"
       orientation="-1,0"
       id="guide8"
       inkscape:locked="false"
       inkscape:label=""
       inkscape:color="rgb(0,134,229)" /><sodipodi:guide
       position="8.4666681,-2.5793457e-07"
       orientation="0,1"
       id="guide9"
       inkscape:locked="false"
       inkscape:label=""
       inkscape:color="rgb(0,134,229)" /><sodipodi:guide
       position="1.0583335,8.4666679"
       orientation="-1,0"
       id="guide10"
       inkscape:locked="false"
       inkscape:label=""
       inkscape:color="rgb(0,134,229)" /><inkscape:grid
       id="grid10"
       units="px"
       originx="0"
       originy="0"
       spacingx="0.26458338"
       spacingy="0.26458338"
       empcolor="#0099e5"
       empopacity="0.30196078"
       color="#0099e5"
       opacity="0.14901961"
       empspacing="4"
       dotted="true"
       gridanglex="30"
       gridanglez="30"
       visible="true" /></sodipodi:namedview><defs
     id="defs1" /><g
     inkscape:label="layer1"
     inkscape:groupmode="layer"
     id="layer1"><g
       id="g5"
       transform="matrix(1.074052,0,0,1.0740033,-0.07837166,-1.1748028)"
       style="fill:#000000"><path
         id="rect4"
         style="fill:#000000;fill-rule:evenodd;stroke-width:0.465537"
         d="M 2.2621341 3.0646738 C 2.1410512 3.0646738 2.0436987 3.1620362 2.0436987 3.2831192 L 2.0436987 4.8170483 C 2.0436987 4.9381313 2.1410512 5.0354937 2.2621341 5.0354937 L 13.649646 5.0354937 C 13.770729 5.0354937 13.868081 4.9381313 13.868081 4.8170483 L 13.868081 3.2831192 C 13.868081 3.1620362 13.770729 3.0646738 13.649646 3.0646738 L 2.2621341 3.0646738 z M 2.2621341 7.9917234 C 2.1410512 7.9917234 2.0436987 8.0890858 2.0436987 8.2101688 L 2.0436987 9.7440979 C 2.0436987 9.8651809 2.1410512 9.9625432 2.2621341 9.9625432 L 13.649646 9.9625432 C 13.770729 9.9625432 13.868081 9.8651809 13.868081 9.7440979 L 13.868081 8.2101688 C 13.868081 8.0890858 13.770729 7.9917234 13.649646 7.9917234 L 2.2621341 7.9917234 z M 2.2621341 12.918773 C 2.1410512 12.918773 2.0436987 13.016135 2.0436987 13.137218 L 2.0436987 14.671147 C 2.0436987 14.79223 2.1410512 14.889593 2.2621341 14.889593 L 13.649646 14.889593 C 13.770729 14.889593 13.868081 14.79223 13.868081 14.671147 L 13.868081 13.137218 C 13.868081 13.016135 13.770729 12.918773 13.649646 12.918773 L 2.2621341 12.918773 z " /></g></g><metadata
     id="metadata10"><rdf:RDF><cc:Work
         rdf:about=""><dc:creator><cc:Agent><dc:title>mediapire llc</dc:title></cc:Agent></dc:creator><dc:rights><cc:Agent><dc:title>https://mediapire.com/assets/license</dc:title></cc:Agent></dc:rights></cc:Work></rdf:RDF></metadata></svg>
