<?xml version="1.0" encoding="UTF-8" standalone="no"?>
<!-- Created with Inkscape (http://www.inkscape.org/) -->

<svg
   width="64"
   height="64"
   viewBox="0 0 16.933336 16.933336"
   version="1.1"
   id="svg1"
   inkscape:version="1.3 (0e150ed6c4, 2023-07-21)"
   sodipodi:docname="b-battery-empty.svg"
   xml:space="preserve"
   xmlns:inkscape="http://www.inkscape.org/namespaces/inkscape"
   xmlns:sodipodi="http://sodipodi.sourceforge.net/DTD/sodipodi-0.dtd"
   xmlns="http://www.w3.org/2000/svg"
   xmlns:svg="http://www.w3.org/2000/svg"
   xmlns:rdf="http://www.w3.org/1999/02/22-rdf-syntax-ns#"
   xmlns:cc="http://creativecommons.org/ns#"
   xmlns:dc="http://purl.org/dc/elements/1.1/"><sodipodi:namedview
     id="namedview1"
     pagecolor="#ffffff"
     bordercolor="#000000"
     borderopacity="0.25"
     inkscape:showpageshadow="2"
     inkscape:pageopacity="0.0"
     inkscape:pagecheckerboard="0"
     inkscape:deskcolor="#d1d1d1"
     inkscape:document-units="px"
     showgrid="true"
     inkscape:zoom="8.0000002"
     inkscape:cx="27.562499"
     inkscape:cy="44.687499"
     inkscape:window-width="2560"
     inkscape:window-height="947"
     inkscape:window-x="0"
     inkscape:window-y="1112"
     inkscape:window-maximized="1"
     inkscape:current-layer="g5"><sodipodi:guide
       position="8.4666681,15.875002"
       orientation="0,1"
       id="guide7"
       inkscape:locked="false"
       inkscape:label=""
       inkscape:color="rgb(0,134,229)" /><sodipodi:guide
       position="15.875003,8.4666679"
       orientation="-1,0"
       id="guide8"
       inkscape:locked="false"
       inkscape:label=""
       inkscape:color="rgb(0,134,229)" /><sodipodi:guide
       position="8.4666681,-2.5793457e-07"
       orientation="0,1"
       id="guide9"
       inkscape:locked="false"
       inkscape:label=""
       inkscape:color="rgb(0,134,229)" /><sodipodi:guide
       position="1.0583335,8.4666679"
       orientation="-1,0"
       id="guide10"
       inkscape:locked="false"
       inkscape:label=""
       inkscape:color="rgb(0,134,229)" /><inkscape:grid
       id="grid10"
       units="px"
       originx="0"
       originy="0"
       spacingx="0.26458338"
       spacingy="0.26458338"
       empcolor="#0099e5"
       empopacity="0.30196078"
       color="#0099e5"
       opacity="0.14901961"
       empspacing="4"
       dotted="true"
       gridanglex="30"
       gridanglez="30"
       visible="true" /></sodipodi:namedview><defs
     id="defs1" /><g
     inkscape:label="layer1"
     inkscape:groupmode="layer"
     id="layer1"><g
       id="g5"
       transform="matrix(1.074052,0,0,1.0740033,-0.07837166,-1.1748028)"><rect
         style="fill:#000000;fill-rule:evenodd;stroke:none;stroke-width:0.465537"
         id="rect7"
         width="3.9414608"
         height="0.98540992"
         x="5.9851599"
         y="2.641825"
         ry="0.42284888" /><path
         id="rect8"
         style="fill:#000000;fill-rule:evenodd;stroke:none;stroke-width:0.499233"
         d="M 4.5812066 4.0986806 C 4.2673056 4.0986806 4.0144292 4.3515827 4.0144292 4.6654838 L 4.0144292 14.864573 C 4.0144292 15.178472 4.2673056 15.430895 4.5812066 15.430895 L 11.330574 15.430895 C 11.644473 15.430895 11.897351 15.178472 11.897351 14.864573 L 11.897351 4.6654838 C 11.897351 4.3515827 11.644473 4.0986806 11.330574 4.0986806 L 4.5812066 4.0986806 z M 5.3649761 5.0354937 L 10.546804 5.0354937 C 10.749118 5.0354937 10.911986 5.1983788 10.911986 5.400692 L 10.911986 6.3721483 C 10.911986 6.5744615 10.749118 6.7373466 10.546804 6.7373466 L 5.3649761 6.7373466 C 5.162663 6.7373466 4.9997944 6.5744615 4.9997944 6.3721483 L 4.9997944 5.400692 C 4.9997944 5.1983788 5.162663 5.0354937 5.3649761 5.0354937 z M 5.3649761 7.5885137 L 10.546804 7.5885137 C 10.749118 7.5885137 10.911986 7.7513986 10.911986 7.953712 L 10.911986 8.9256495 C 10.911986 9.1279628 10.749118 9.2908478 10.546804 9.2908478 L 5.3649761 9.2908478 C 5.1626628 9.2908478 4.9997944 9.1279628 4.9997944 8.9256495 L 4.9997944 7.953712 C 4.9997944 7.7513986 5.1626628 7.5885137 5.3649761 7.5885137 z M 5.3649761 10.141534 L 10.546804 10.141534 C 10.749118 10.141534 10.911986 10.304418 10.911986 10.506732 L 10.911986 11.47867 C 10.911986 11.680982 10.749118 11.843868 10.546804 11.843868 L 5.3649761 11.843868 C 5.1626626 11.843868 4.9997944 11.680982 4.9997944 11.47867 L 4.9997944 10.506732 C 4.9997944 10.304418 5.1626626 10.141534 5.3649761 10.141534 z M 5.3649761 12.695035 L 10.546804 12.695035 C 10.749118 12.695035 10.911986 12.857919 10.911986 13.060233 L 10.911986 14.03169 C 10.911986 14.234003 10.749118 14.396888 10.546804 14.396888 L 5.3649761 14.396888 C 5.1626624 14.396888 4.9997944 14.234003 4.9997944 14.03169 L 4.9997944 13.060233 C 4.9997944 12.857919 5.1626624 12.695035 5.3649761 12.695035 z " /></g></g><metadata
     id="metadata10"><rdf:RDF><cc:Work
         rdf:about=""><dc:creator><cc:Agent><dc:title>mediapire llc</dc:title></cc:Agent></dc:creator><dc:rights><cc:Agent><dc:title>https://mediapire.com/assets/license</dc:title></cc:Agent></dc:rights></cc:Work></rdf:RDF></metadata></svg>
