<?xml version="1.0" encoding="UTF-8" standalone="no"?>
<!-- Created with Inkscape (http://www.inkscape.org/) -->

<svg
   width="64"
   height="64"
   viewBox="0 0 16.933336 16.933336"
   version="1.1"
   id="svg1"
   inkscape:version="1.3 (0e150ed6c4, 2023-07-21)"
   sodipodi:docname="b-boxing-glove.svg"
   xml:space="preserve"
   xmlns:inkscape="http://www.inkscape.org/namespaces/inkscape"
   xmlns:sodipodi="http://sodipodi.sourceforge.net/DTD/sodipodi-0.dtd"
   xmlns="http://www.w3.org/2000/svg"
   xmlns:svg="http://www.w3.org/2000/svg"
   xmlns:rdf="http://www.w3.org/1999/02/22-rdf-syntax-ns#"
   xmlns:cc="http://creativecommons.org/ns#"
   xmlns:dc="http://purl.org/dc/elements/1.1/"><sodipodi:namedview
     id="namedview1"
     pagecolor="#ffffff"
     bordercolor="#000000"
     borderopacity="0.25"
     inkscape:showpageshadow="2"
     inkscape:pageopacity="0.0"
     inkscape:pagecheckerboard="0"
     inkscape:deskcolor="#d1d1d1"
     inkscape:document-units="px"
     showgrid="true"
     inkscape:zoom="5.6568543"
     inkscape:cx="7.6013979"
     inkscape:cy="51.000076"
     inkscape:window-width="2560"
     inkscape:window-height="947"
     inkscape:window-x="0"
     inkscape:window-y="1112"
     inkscape:window-maximized="1"
     inkscape:current-layer="g12"><sodipodi:guide
       position="0,15.875003"
       orientation="0,1"
       id="guide7"
       inkscape:locked="false"
       inkscape:label=""
       inkscape:color="rgb(0,134,229)" /><sodipodi:guide
       position="15.875003,16.933336"
       orientation="-1,0"
       id="guide8"
       inkscape:locked="false"
       inkscape:label=""
       inkscape:color="rgb(0,134,229)" /><sodipodi:guide
       position="16.933336,1.0583335"
       orientation="0,1"
       id="guide9"
       inkscape:locked="false"
       inkscape:label=""
       inkscape:color="rgb(0,134,229)" /><sodipodi:guide
       position="1.0583335,0"
       orientation="-1,0"
       id="guide10"
       inkscape:locked="false"
       inkscape:label=""
       inkscape:color="rgb(0,134,229)" /><inkscape:grid
       id="grid10"
       units="px"
       originx="0"
       originy="0"
       spacingx="0.26458338"
       spacingy="0.26458338"
       empcolor="#0099e5"
       empopacity="0.30196078"
       color="#0099e5"
       opacity="0.14901961"
       empspacing="4"
       dotted="true"
       gridanglex="30"
       gridanglez="30"
       visible="true" /></sodipodi:namedview><defs
     id="defs1" /><g
     inkscape:label="layer1"
     inkscape:groupmode="layer"
     id="layer1"><g
       id="g5"
       transform="matrix(1.074052,0,0,1.0740033,-0.07837166,-1.1748028)"><g
         id="g12"><g
           id="g13"
           transform="translate(-0.29391819)"><path
             id="rect8"
             style="fill:#000000;fill-rule:evenodd;stroke-width:0.344666"
             d="m 5.0572508,11.484717 c -0.1550622,0.995035 -0.1087242,2.000834 0,3.009967 H 11.632879 V 14.14057 H 8.5380774 V 14.12915 H 6.3221052 c -0.4926782,0 -0.8891042,-0.361833 -0.8891042,-0.811279 v -0.667767 c 0,-0.449449 0.396426,-0.811281 0.8891042,-0.811281 h 2.2159722 2.2163396 0.878462 V 11.48471 Z"
             sodipodi:nodetypes="ccccccssssccccc" /><path
             id="rect9"
             style="fill-rule:evenodd;stroke-width:0.367669"
             d="m 5.2451255,14.812662 h 6.1998785 c 0.302879,0.473742 0.192822,0.784386 0,1.062341 H 5.2451255 c -0.2825175,-0.332169 -0.2166351,-0.691401 0,-1.062341 z"
             sodipodi:nodetypes="ccccc" /><path
             id="rect11"
             style="fill-rule:evenodd;stroke-width:0.362638"
             d="M 8.0134314,2.0794509 C 6.3858537,2.0689589 5.0180678,2.5009001 4.4935636,3.1632291 3.2177497,5.2049582 5.5967817,6.4246969 5.5939557,7.6441193 5.2897186,7.3458072 4.8681426,6.5945164 4.6919862,6.2939206 2.9896106,3.3889605 2.0373058,10.573437 5.2451159,11.130708 l 6.3879281,0.03619 C 12.034249,8.3276934 15.101828,4.7030187 12.008553,3.006393 10.702256,2.3632477 9.2793252,2.0876114 8.0134314,2.0794509 Z m 0.377643,0.6323716 c 1.2392618,-0.009 2.6158796,0.2758994 3.8815086,1.0586442 -2.12683,-0.4351592 -4.0232204,-1.5121215 -6.9357233,0.2422918 -0.4869287,0.3892661 -0.1621461,0.802237 0,1.2104536 C 4.9574796,4.8073637 4.6013637,4.3837034 4.8232012,3.7704667 5.4318727,3.2207936 6.7977381,2.723395 8.3910744,2.7118225 Z" /><path
             id="rect9-8-9"
             style="fill:#000000;fill-rule:evenodd;stroke-width:0.462482"
             d="m 6.4629446,12.08782 c -0.4606245,0 -0.831427,0.28363 -0.831427,0.635841 v 0.523104 c 0,0.352211 0.3708025,0.63584 0.831427,0.63584 h 2.071927 v 0.0091 h 2.9033544 0.205294 c 0.347522,-0.591598 0.252969,-1.569891 0,-1.803761 H 11.438226 10.606799 8.5348716 Z"
             sodipodi:nodetypes="ssssccccccccs" /></g></g></g></g><metadata
     id="metadata10"><rdf:RDF><cc:Work
         rdf:about=""><dc:creator><cc:Agent><dc:title>mediapire llc</dc:title></cc:Agent></dc:creator><dc:rights><cc:Agent><dc:title>https://mediapire.com/assets/license</dc:title></cc:Agent></dc:rights></cc:Work></rdf:RDF></metadata></svg>
