<?xml version="1.0" encoding="UTF-8" standalone="no"?>
<!-- Created with Inkscape (http://www.inkscape.org/) -->

<svg
   width="64"
   height="64"
   viewBox="0 0 16.933336 16.933336"
   version="1.1"
   id="svg1"
   inkscape:version="1.3 (0e150ed6c4, 2023-07-21)"
   sodipodi:docname="b-button-side.svg"
   xml:space="preserve"
   xmlns:inkscape="http://www.inkscape.org/namespaces/inkscape"
   xmlns:sodipodi="http://sodipodi.sourceforge.net/DTD/sodipodi-0.dtd"
   xmlns="http://www.w3.org/2000/svg"
   xmlns:svg="http://www.w3.org/2000/svg"
   xmlns:rdf="http://www.w3.org/1999/02/22-rdf-syntax-ns#"
   xmlns:cc="http://creativecommons.org/ns#"
   xmlns:dc="http://purl.org/dc/elements/1.1/"><sodipodi:namedview
     id="namedview1"
     pagecolor="#ffffff"
     bordercolor="#000000"
     borderopacity="0.25"
     inkscape:showpageshadow="2"
     inkscape:pageopacity="0.0"
     inkscape:pagecheckerboard="0"
     inkscape:deskcolor="#d1d1d1"
     inkscape:document-units="px"
     showgrid="true"
     inkscape:zoom="4"
     inkscape:cx="-16.625"
     inkscape:cy="64.375"
     inkscape:window-width="2560"
     inkscape:window-height="947"
     inkscape:window-x="0"
     inkscape:window-y="1112"
     inkscape:window-maximized="1"
     inkscape:current-layer="g12"><sodipodi:guide
       position="0,15.875003"
       orientation="0,1"
       id="guide7"
       inkscape:locked="false"
       inkscape:label=""
       inkscape:color="rgb(0,134,229)" /><sodipodi:guide
       position="15.875003,16.933336"
       orientation="-1,0"
       id="guide8"
       inkscape:locked="false"
       inkscape:label=""
       inkscape:color="rgb(0,134,229)" /><sodipodi:guide
       position="16.933336,1.0583335"
       orientation="0,1"
       id="guide9"
       inkscape:locked="false"
       inkscape:label=""
       inkscape:color="rgb(0,134,229)" /><sodipodi:guide
       position="1.0583335,0"
       orientation="-1,0"
       id="guide10"
       inkscape:locked="false"
       inkscape:label=""
       inkscape:color="rgb(0,134,229)" /><inkscape:grid
       id="grid10"
       units="px"
       originx="0"
       originy="0"
       spacingx="0.26458338"
       spacingy="0.26458338"
       empcolor="#0099e5"
       empopacity="0.30196078"
       color="#0099e5"
       opacity="0.14901961"
       empspacing="4"
       dotted="true"
       gridanglex="30"
       gridanglez="30"
       visible="true" /></sodipodi:namedview><defs
     id="defs1" /><g
     inkscape:label="layer1"
     inkscape:groupmode="layer"
     id="layer1"><g
       id="g10"
       style="fill:#000000"><path
         id="rect10"
         style="opacity:0;fill:#ffffff;fill-rule:evenodd;stroke-width:0.396875"
         d="M 0,0 H 16.933336 V 16.933336 H 0 Z"
         inkscape:label="clear-background"
         sodipodi:insensitive="true" /><g
         id="g11"
         transform="matrix(0.51851862,0,0,0.42010276,-0.31357881,2.7590456)"><g
           id="g12"
           transform="matrix(1,0,0,1.417164,-1.9312542e-8,-12.357776)"><path
             id="path9"
             style="fill:#000000;fill-rule:evenodd;stroke:none;stroke-width:0.351358"
             d="m 2.6458333,13.07052 v 12.362036 0.08888 h 0.017053 a 14.287564,5.3179517 0 0 0 0.1281576,0.668177 14.287564,5.3179517 0 0 0 0.4335653,0.74104 14.287564,5.3179517 0 0 0 0.712618,0.711067 14.287564,5.3179517 0 0 0 0.9766845,0.66611 14.287564,5.3179517 0 0 0 1.2216309,0.607198 14.287564,5.3179517 0 0 0 1.4417724,0.536401 14.287564,5.3179517 0 0 0 1.631425,0.454753 14.287564,5.3179517 0 0 0 1.789555,0.363802 14.287564,5.3179517 0 0 0 1.909961,0.2651 14.287564,5.3179517 0 0 0 1.99161,0.16123 14.287564,5.3179517 0 0 0 2.033467,0.05426 14.287564,5.3179517 0 0 0 2.033468,-0.05426 14.287564,5.3179517 0 0 0 1.99161,-0.16123 14.287564,5.3179517 0 0 0 1.90996,-0.2651 14.287564,5.3179517 0 0 0 1.789555,-0.363802 14.287564,5.3179517 0 0 0 1.631425,-0.454753 14.287564,5.3179517 0 0 0 1.441773,-0.536401 14.287564,5.3179517 0 0 0 1.221631,-0.607198 14.287564,5.3179517 0 0 0 0.976684,-0.66611 14.287564,5.3179517 0 0 0 0.712618,-0.711067 14.287564,5.3179517 0 0 0 0.433565,-0.74104 14.287564,5.3179517 0 0 0 0.128158,-0.668177 h 0.01705 V 25.432556 13.07207 c -6.24e-4,0.0015 -9.72e-4,0.0031 -0.0015,0.0047 -0.03861,0.09423 -0.08281,0.187464 -0.133325,0.27957 -0.05052,0.09211 -0.107039,0.183536 -0.168982,0.273368 -0.06194,0.08983 -0.129679,0.178204 -0.202572,0.265617 -0.07289,0.08741 -0.151249,0.173536 -0.234611,0.258382 -0.08336,0.08485 -0.171748,0.168497 -0.2651,0.250631 -0.09335,0.08213 -0.19144,0.163203 -0.294556,0.242879 -0.103115,0.07968 -0.210906,0.157969 -0.323494,0.235128 -0.112588,0.07716 -0.230147,0.152797 -0.351917,0.227376 -0.121768,0.07458 -0.248128,0.148202 -0.378788,0.220142 -0.261319,0.143878 -0.53996,0.282523 -0.835091,0.415478 -0.295131,0.132955 -0.606665,0.260345 -0.933276,0.381889 -0.326612,0.121544 -0.668313,0.236878 -1.024227,0.346232 -0.355915,0.109354 -0.726104,0.212719 -1.108976,0.309025 -0.382874,0.09631 -0.778488,0.1858 -1.185975,0.268201 -0.407485,0.0824 -0.826498,0.157673 -1.256254,0.225309 -0.429754,0.06764 -0.870137,0.127303 -1.319816,0.179317 -0.449678,0.05201 -0.908887,0.09624 -1.376143,0.131775 -0.467258,0.03553 -0.942746,0.06242 -1.425236,0.08062 -0.482491,0.0182 -0.971714,0.02791 -1.467094,0.02791 -0.495379,0 -0.985119,-0.0097 -1.467611,-0.02791 -0.48249,-0.0182 -0.957978,-0.04508 -1.425236,-0.08062 -0.467303,-0.03558 -0.926511,-0.07981 -1.37619,-0.131824 -0.449679,-0.05201 -0.890062,-0.111681 -1.319816,-0.179317 C 10.915239,17.208263 10.496276,17.133039 10.08879,17.050639 9.6813032,16.968238 9.2856887,16.878744 8.9028157,16.782438 8.5199427,16.686132 8.1497542,16.582767 7.7938395,16.473413 7.4379246,16.364059 7.0962242,16.248725 6.7696126,16.127181 6.443001,16.005637 6.1314669,15.878247 5.8363362,15.745292 5.5412055,15.612337 5.262564,15.473692 5.0012451,15.329814 4.8705856,15.257874 4.7442264,15.184251 4.6224568,15.109672 4.5006874,15.035093 4.3831286,14.959454 4.2705403,14.882296 4.1579522,14.805137 4.0501614,14.726844 3.9470459,14.647168 3.8439303,14.567492 3.7458417,14.486422 3.6524902,14.404289 3.5591387,14.322155 3.4707521,14.238504 3.3873901,14.153658 3.3040281,14.068812 3.2256718,13.982688 3.1527791,13.895276 3.0798864,13.807863 3.012151,13.719491 2.9502075,13.629659 2.888264,13.539827 2.83174,13.448396 2.7812256,13.356291 c -0.050515,-0.09211 -0.09472,-0.185337 -0.1333252,-0.27957 -8.369e-4,-0.002 -0.00124,-0.0042 -0.00207,-0.0062 z" /><path
             id="path8"
             style="fill-rule:evenodd"
             d="m 16.93333,5.8634363 c -0.490963,0 -0.97659,0.00926 -1.454692,0.027389 -0.4781,0.018126 -0.949,0.044776 -1.4118,0.080098 -0.462799,0.035323 -0.917132,0.07915 -1.36219,0.1307414 -0.44506,0.051591 -0.880984,0.1113536 -1.305864,0.1782837 -0.424878,0.06693 -0.839007,0.1408682 -1.241268,0.2222087 C 9.7552563,6.5834973 9.3652809,6.6719187 8.9880787,6.7667403 8.6108765,6.8615619 8.2463775,6.9632237 7.8966724,7.0705977 7.5469675,7.1779717 7.2118513,7.2911144 6.8920826,7.4101119 6.5723139,7.5291093 6.2683439,7.6536882 5.9810271,7.7832157 5.6937103,7.9127432 5.4230769,8.0474565 5.1707407,8.1862919 5.0445725,8.2557095 4.922854,8.326133 4.805905,8.3976485 4.6889562,8.4691639 4.5769051,8.5417457 4.4694915,8.6152063 c -0.1074136,0.07346 -0.2099126,0.147473 -0.3074748,0.222725 -0.097562,0.07525 -0.1906246,0.151518 -0.2780192,0.22841 -0.087395,0.07689 -0.1691332,0.154535 -0.2459798,0.232544 C 3.5611707,9.3768953 3.4892349,9.455477 3.4230437,9.53453 3.3568527,9.61358 3.296054,9.693251 3.2406259,9.773275 c -0.055428,0.08002 -0.1053042,0.160406 -0.1498616,0.241329 -0.044558,0.08092 -0.083726,0.162164 -0.1173055,0.243913 -0.033579,0.08175 -0.061739,0.163994 -0.084233,0.246496 -0.022494,0.0825 -0.039342,0.165381 -0.050643,0.248564 -0.011301,0.08318 -0.017053,0.166322 -0.017053,0.250114 0,0.05096 0.00615,0.1017 0.010335,0.152445 0.0027,0.03268 0.00229,0.0656 0.00672,0.09818 0.011301,0.08318 0.028149,0.166062 0.050643,0.248564 0.022494,0.0825 0.050653,0.164748 0.084233,0.246497 0.033579,0.08175 0.072748,0.16299 0.1173055,0.243912 0.044557,0.08092 0.094434,0.161305 0.1498616,0.241329 0.055428,0.08002 0.1162268,0.159693 0.1824178,0.238745 0.066191,0.07905 0.1381274,0.157636 0.214974,0.235645 0.076847,0.07801 0.1585852,0.155652 0.2459798,0.232544 0.087395,0.07689 0.180457,0.153103 0.2780192,0.22841 0.097562,0.07531 0.2000612,0.14969 0.3074748,0.223242 0.1074136,0.07355 0.2194647,0.145928 0.3364135,0.217558 0.116949,0.07163 0.2386675,0.142333 0.3648357,0.211873 0.2523362,0.13908 0.5229696,0.273882 0.8102864,0.403593 0.2873168,0.129711 0.5912868,0.254623 0.9110555,0.373621 0.3197687,0.118996 0.6548849,0.232193 1.0045898,0.339514 0.3497051,0.10732 0.7142041,0.20861 1.0914063,0.30334 0.3772022,0.09473 0.7671776,0.182841 1.1694373,0.264067 0.402261,0.08123 0.81639,0.1554 1.241268,0.222209 0.42488,0.06681 0.860804,0.12629 1.305864,0.177767 0.445058,0.05148 0.899391,0.09499 1.36219,0.130224 0.4628,0.03523 0.9337,0.06203 1.4118,0.0801 0.478102,0.01807 0.963729,0.02739 1.454692,0.02739 0.490964,0 0.976073,-0.0093 1.454175,-0.02739 0.4781,-0.01807 0.949,-0.04487 1.4118,-0.0801 0.462799,-0.03523 0.917131,-0.07875 1.362191,-0.130224 0.445058,-0.05148 0.880985,-0.110959 1.305863,-0.177767 0.42488,-0.06681 0.839007,-0.140983 1.241268,-0.222209 0.402261,-0.08123 0.792235,-0.169336 1.169438,-0.264067 0.377201,-0.09473 0.741701,-0.19602 1.091406,-0.30334 0.349705,-0.107321 0.684821,-0.220518 1.00459,-0.339514 0.319768,-0.118998 0.623739,-0.24391 0.911055,-0.373621 0.287317,-0.129711 0.55795,-0.264513 0.810287,-0.403593 0.126168,-0.06954 0.247886,-0.140243 0.364835,-0.211873 0.116949,-0.07163 0.229,-0.144006 0.336414,-0.217558 0.107414,-0.07355 0.21043,-0.147936 0.307991,-0.223242 0.09756,-0.07531 0.190108,-0.151518 0.277503,-0.22841 0.0874,-0.07689 0.169133,-0.154535 0.24598,-0.232544 0.07685,-0.07801 0.148783,-0.156592 0.214974,-0.235645 0.06619,-0.07905 0.12699,-0.158721 0.182417,-0.238745 0.05543,-0.08002 0.105305,-0.160406 0.149862,-0.241329 0.04456,-0.08092 0.08373,-0.162165 0.117306,-0.243912 0.03358,-0.08175 0.06174,-0.163995 0.08423,-0.246497 0.02249,-0.0825 0.03934,-0.16538 0.05064,-0.248564 0.0044,-0.03259 0.004,-0.0655 0.0067,-0.09818 0.0042,-0.05075 0.01034,-0.10148 0.01034,-0.152445 0,-0.08379 -0.0058,-0.166931 -0.01705,-0.250114 -0.0113,-0.08318 -0.02815,-0.166062 -0.05064,-0.248564 -0.02249,-0.0825 -0.05065,-0.164749 -0.08423,-0.246496 -0.03358,-0.08175 -0.07275,-0.162991 -0.117306,-0.243913 -0.04456,-0.08092 -0.09443,-0.161305 -0.149862,-0.241329 -0.05543,-0.08002 -0.116226,-0.159693 -0.182417,-0.238745 -0.06619,-0.07905 -0.138128,-0.157636 -0.214974,-0.2356447 -0.07685,-0.07801 -0.158585,-0.155651 -0.24598,-0.232544 -0.08739,-0.07689 -0.17994,-0.153157 -0.277503,-0.22841 C 29.607069,8.7626793 29.504066,8.6886668 29.396652,8.6152063 29.289238,8.5417457 29.177187,8.4691639 29.060238,8.3976485 28.943289,8.326133 28.821571,8.2557095 28.695403,8.1862919 28.443066,8.0474565 28.172433,7.9127432 27.885116,7.7832157 27.5978,7.6536882 27.293829,7.5291093 26.974061,7.4101119 26.654292,7.2911144 26.319176,7.1779717 25.969471,7.0705977 25.619766,6.9632237 25.255266,6.8615619 24.878065,6.7667403 24.500862,6.6719187 24.110888,6.5834973 23.708627,6.502157 23.306366,6.4208165 22.892239,6.3468784 22.467359,6.2799483 22.042481,6.2130182 21.606554,6.1532557 21.161496,6.1016646 c -0.44506,-0.051591 -0.899392,-0.095418 -1.362191,-0.1307414 -0.4628,-0.035323 -0.9337,-0.061973 -1.4118,-0.080098 -0.478102,-0.018126 -0.963211,-0.027389 -1.454175,-0.027389 z" /></g></g></g></g><metadata
     id="metadata10"><rdf:RDF><cc:Work
         rdf:about=""><dc:creator><cc:Agent><dc:title>mediapire llc</dc:title></cc:Agent></dc:creator><dc:rights><cc:Agent><dc:title>https://mediapire.com/assets/license</dc:title></cc:Agent></dc:rights></cc:Work></rdf:RDF></metadata></svg>
