<?xml version="1.0" encoding="UTF-8" standalone="no"?>
<!-- Created with Inkscape (http://www.inkscape.org/) -->

<svg
   width="64"
   height="64"
   viewBox="0 0 16.933336 16.933336"
   version="1.1"
   id="svg1"
   inkscape:version="1.3 (0e150ed6c4, 2023-07-21)"
   sodipodi:docname="b-claw-hammer.svg"
   xml:space="preserve"
   xmlns:inkscape="http://www.inkscape.org/namespaces/inkscape"
   xmlns:sodipodi="http://sodipodi.sourceforge.net/DTD/sodipodi-0.dtd"
   xmlns="http://www.w3.org/2000/svg"
   xmlns:svg="http://www.w3.org/2000/svg"
   xmlns:rdf="http://www.w3.org/1999/02/22-rdf-syntax-ns#"
   xmlns:cc="http://creativecommons.org/ns#"
   xmlns:dc="http://purl.org/dc/elements/1.1/"><sodipodi:namedview
     id="namedview1"
     pagecolor="#ffffff"
     bordercolor="#000000"
     borderopacity="0.25"
     inkscape:showpageshadow="2"
     inkscape:pageopacity="0.0"
     inkscape:pagecheckerboard="0"
     inkscape:deskcolor="#d1d1d1"
     inkscape:document-units="px"
     showgrid="true"
     inkscape:zoom="5.6568544"
     inkscape:cx="37.741824"
     inkscape:cy="56.303376"
     inkscape:window-width="2560"
     inkscape:window-height="947"
     inkscape:window-x="0"
     inkscape:window-y="1112"
     inkscape:window-maximized="1"
     inkscape:current-layer="g5"><sodipodi:guide
       position="8.4666681,15.875002"
       orientation="0,1"
       id="guide7"
       inkscape:locked="false"
       inkscape:label=""
       inkscape:color="rgb(0,134,229)" /><sodipodi:guide
       position="15.875003,8.4666679"
       orientation="-1,0"
       id="guide8"
       inkscape:locked="false"
       inkscape:label=""
       inkscape:color="rgb(0,134,229)" /><sodipodi:guide
       position="8.4666681,-2.5793457e-07"
       orientation="0,1"
       id="guide9"
       inkscape:locked="false"
       inkscape:label=""
       inkscape:color="rgb(0,134,229)" /><sodipodi:guide
       position="1.0583335,8.4666679"
       orientation="-1,0"
       id="guide10"
       inkscape:locked="false"
       inkscape:label=""
       inkscape:color="rgb(0,134,229)" /><inkscape:grid
       id="grid10"
       units="px"
       originx="0"
       originy="0"
       spacingx="0.26458338"
       spacingy="0.26458338"
       empcolor="#0099e5"
       empopacity="0.30196078"
       color="#0099e5"
       opacity="0.14901961"
       empspacing="4"
       dotted="true"
       gridanglex="30"
       gridanglez="30"
       visible="true" /></sodipodi:namedview><defs
     id="defs1" /><g
     inkscape:label="layer1"
     inkscape:groupmode="layer"
     id="layer1"><g
       id="g5"
       transform="matrix(1.074052,0,0,1.0740033,-0.07837166,-1.1748028)"><path
         id="path4"
         style="fill:#000000;fill-rule:evenodd;stroke:none;stroke-width:0.554868"
         d="M 7.8415485,3.0186462 C 7.720055,3.0177058 7.5960297,3.027021 7.4699465,3.0478941 7.9733102,3.227438 8.3528224,3.4022073 8.6329233,3.5921322 7.8753828,3.4099068 7.3236805,2.9907132 6.7330504,3.4367175 7.4496729,3.5617911 7.9672345,3.7773479 8.5606674,4.5160181 8.7717236,4.9984685 8.0483295,5.6252486 8.0938709,5.7966123 8.4573714,6.2335722 9.0460788,6.473477 9.6181275,6.4085219 9.9051583,6.165644 10.058221,5.8043785 10.219114,5.9841422 c 0.469608,0.2656866 0.798869,0.6707917 1.020758,1.3419573 0.119879,0.1106707 0.217944,0.2062688 0.396835,0.2293943 0.566636,0.1250983 1.505741,-1.3984177 1.118247,-1.9991721 C 12.721259,5.504084 12.438233,5.4470553 12.304214,5.3968926 11.512109,5.5261553 11.262542,5.2932775 10.797735,5.1032678 L 10.238038,4.2223933 C 10.075251,4.1438102 9.9192623,4.0584652 9.7597721,3.9763678 9.3694397,3.4990856 8.6656703,3.0250252 7.8415485,3.0186462 Z M 12.38966,5.5150308 c 0.02943,5.724e-4 0.05866,0.0037 0.08717,0.00918 -0.63335,0.1178774 -1.274779,0.9596376 -1.106778,1.7657633 -0.336814,-0.8132324 0.421226,-1.7865789 1.019612,-1.774939 z M 8.0571695,5.9841422 3.0657739,13.618388 c -0.00839,0.820369 1.0150269,1.306712 1.761669,1.317297 L 6.0557942,12.748409 C 6.7108376,9.4934648 8.3110336,8.6940276 9.4696014,6.6402103 8.7165704,6.6487186 8.3430219,6.337531 8.0571695,5.9841422 Z M 3.2016839,13.618388 c 0.4169835,0.727181 1.0413097,0.941677 1.625759,1.174499 -0.8830646,-0.128255 -1.4287316,-0.516969 -1.625759,-1.174499 z" /></g></g><metadata
     id="metadata10"><rdf:RDF><cc:Work
         rdf:about=""><dc:creator><cc:Agent><dc:title>mediapire llc</dc:title></cc:Agent></dc:creator><dc:rights><cc:Agent><dc:title>https://mediapire.com/assets/license</dc:title></cc:Agent></dc:rights></cc:Work></rdf:RDF></metadata></svg>
