<?xml version="1.0" encoding="UTF-8" standalone="no"?>
<!-- Created with Inkscape (http://www.inkscape.org/) -->

<svg
   width="64"
   height="64"
   viewBox="0 0 16.933336 16.933336"
   version="1.1"
   id="svg1"
   inkscape:version="1.3 (0e150ed6c4, 2023-07-21)"
   sodipodi:docname="b-flame.svg"
   xml:space="preserve"
   xmlns:inkscape="http://www.inkscape.org/namespaces/inkscape"
   xmlns:sodipodi="http://sodipodi.sourceforge.net/DTD/sodipodi-0.dtd"
   xmlns="http://www.w3.org/2000/svg"
   xmlns:svg="http://www.w3.org/2000/svg"
   xmlns:rdf="http://www.w3.org/1999/02/22-rdf-syntax-ns#"
   xmlns:cc="http://creativecommons.org/ns#"
   xmlns:dc="http://purl.org/dc/elements/1.1/"><sodipodi:namedview
     id="namedview1"
     pagecolor="#ffffff"
     bordercolor="#000000"
     borderopacity="0.25"
     inkscape:showpageshadow="2"
     inkscape:pageopacity="0.0"
     inkscape:pagecheckerboard="0"
     inkscape:deskcolor="#d1d1d1"
     inkscape:document-units="px"
     showgrid="true"
     inkscape:zoom="4.0000001"
     inkscape:cx="-2.625"
     inkscape:cy="61.624999"
     inkscape:window-width="2560"
     inkscape:window-height="947"
     inkscape:window-x="0"
     inkscape:window-y="1112"
     inkscape:window-maximized="1"
     inkscape:current-layer="g12"><sodipodi:guide
       position="0,15.875003"
       orientation="0,1"
       id="guide7"
       inkscape:locked="false"
       inkscape:label=""
       inkscape:color="rgb(0,134,229)" /><sodipodi:guide
       position="15.875003,6.8791676"
       orientation="-1,0"
       id="guide8"
       inkscape:locked="false"
       inkscape:label=""
       inkscape:color="rgb(0,134,229)" /><sodipodi:guide
       position="5.2916676,1.0583335"
       orientation="0,1"
       id="guide9"
       inkscape:locked="false"
       inkscape:label=""
       inkscape:color="rgb(0,134,229)" /><sodipodi:guide
       position="1.0583335,0"
       orientation="-1,0"
       id="guide10"
       inkscape:locked="false"
       inkscape:label=""
       inkscape:color="rgb(0,134,229)" /><inkscape:grid
       id="grid10"
       units="px"
       originx="0"
       originy="0"
       spacingx="0.26458338"
       spacingy="0.26458338"
       empcolor="#0099e5"
       empopacity="0.30196078"
       color="#0099e5"
       opacity="0.14901961"
       empspacing="4"
       dotted="true"
       gridanglex="30"
       gridanglez="30"
       visible="true" /></sodipodi:namedview><defs
     id="defs1" /><g
     inkscape:label="layer1"
     inkscape:groupmode="layer"
     id="layer1"><g
       id="g5"
       transform="matrix(1.074052,0,0,1.0740033,-0.07837166,-1.1748028)"><g
         id="g12"><path
           id="path4"
           style="fill:#000000;fill-rule:evenodd;stroke-width:0.526744"
           d="M 8.694914 3.0646738 C 6.3754355 4.4572965 3.6389017 5.3227843 4.9997944 9.9625432 C 3.6353942 10.818779 3.8520629 8.7806082 3.0290639 7.0063135 C 3.0567201 8.7240164 2.4784399 10.593529 4.0144292 11.933363 C 3.210534 12.365957 2.8477388 11.399543 2.3444083 10.879148 C 3.189362 13.513731 4.8522069 15.801617 8.0790607 15.806197 C 9.4675836 15.804597 12.065082 15.727652 13.62174 10.701601 C 13.023173 10.877211 12.296046 11.558438 11.897351 10.947953 C 11.904751 10.167097 12.106161 6.9711133 8.9412553 5.2818461 C 8.5163634 4.8153988 11.157027 8.6363636 8.694914 7.9917234 C 7.0839038 6.729402 7.1373091 5.477478 8.694914 3.0646738 z M 5.9851596 7.7453709 C 5.0369227 8.7679819 6.797603 10.885488 8.694914 11.440658 C 10.503265 11.374558 10.662988 10.197398 10.668531 9.964949 C 10.66747 9.9642079 10.66671 9.9632829 10.665644 9.9625432 C 10.664047 9.9064073 10.669711 9.915496 10.668531 9.964949 C 12.096635 10.962024 10.140523 13.228162 10.528521 13.32487 C 10.768291 13.583672 12.276405 12.254165 12.636375 12.179716 C 11.668462 14.88389 9.0634278 15.450323 8.2320618 15.384704 C 6.2914794 15.382763 4.5225718 14.035651 4.0144292 12.918773 C 4.3171246 13.139384 5.4338689 13.639134 5.9173195 13.455744 C 5.2712541 12.968975 4.0936101 11.448085 4.0144292 10.701601 C 4.5093687 11.453778 5.6755953 12.468121 6.4961254 12.105136 C 5.6777047 10.138204 4.5902595 8.3357451 5.9851596 7.7453709 z " /></g></g></g><metadata
     id="metadata10"><rdf:RDF><cc:Work
         rdf:about=""><dc:creator><cc:Agent><dc:title>mediapire llc</dc:title></cc:Agent></dc:creator><dc:rights><cc:Agent><dc:title>https://mediapire.com/assets/license</dc:title></cc:Agent></dc:rights></cc:Work></rdf:RDF></metadata></svg>
