<?xml version="1.0" encoding="UTF-8" standalone="no"?>
<!-- Created with Inkscape (http://www.inkscape.org/) -->

<svg
   width="64"
   height="64"
   viewBox="0 0 16.933336 16.933336"
   version="1.1"
   id="svg1"
   inkscape:version="1.3 (0e150ed6c4, 2023-07-21)"
   sodipodi:docname="b-mouse.svg"
   xml:space="preserve"
   xmlns:inkscape="http://www.inkscape.org/namespaces/inkscape"
   xmlns:sodipodi="http://sodipodi.sourceforge.net/DTD/sodipodi-0.dtd"
   xmlns="http://www.w3.org/2000/svg"
   xmlns:svg="http://www.w3.org/2000/svg"
   xmlns:rdf="http://www.w3.org/1999/02/22-rdf-syntax-ns#"
   xmlns:cc="http://creativecommons.org/ns#"
   xmlns:dc="http://purl.org/dc/elements/1.1/"><sodipodi:namedview
     id="namedview1"
     pagecolor="#ffffff"
     bordercolor="#000000"
     borderopacity="0.25"
     inkscape:showpageshadow="2"
     inkscape:pageopacity="0.0"
     inkscape:pagecheckerboard="0"
     inkscape:deskcolor="#d1d1d1"
     inkscape:document-units="px"
     showgrid="true"
     inkscape:zoom="11.313709"
     inkscape:cx="45.829357"
     inkscape:cy="34.604037"
     inkscape:window-width="2560"
     inkscape:window-height="947"
     inkscape:window-x="0"
     inkscape:window-y="1112"
     inkscape:window-maximized="1"
     inkscape:current-layer="g5"><sodipodi:guide
       position="8.4666681,15.875002"
       orientation="0,1"
       id="guide7"
       inkscape:locked="false"
       inkscape:label=""
       inkscape:color="rgb(0,134,229)" /><sodipodi:guide
       position="15.875003,8.4666679"
       orientation="-1,0"
       id="guide8"
       inkscape:locked="false"
       inkscape:label=""
       inkscape:color="rgb(0,134,229)" /><sodipodi:guide
       position="8.4666681,-2.5793457e-07"
       orientation="0,1"
       id="guide9"
       inkscape:locked="false"
       inkscape:label=""
       inkscape:color="rgb(0,134,229)" /><sodipodi:guide
       position="1.0583335,8.4666679"
       orientation="-1,0"
       id="guide10"
       inkscape:locked="false"
       inkscape:label=""
       inkscape:color="rgb(0,134,229)" /><inkscape:grid
       id="grid10"
       units="px"
       originx="0"
       originy="0"
       spacingx="0.26458338"
       spacingy="0.26458338"
       empcolor="#0099e5"
       empopacity="0.30196078"
       color="#0099e5"
       opacity="0.14901961"
       empspacing="4"
       dotted="true"
       gridanglex="30"
       gridanglez="30"
       visible="true" /></sodipodi:namedview><defs
     id="defs1" /><g
     inkscape:label="layer1"
     inkscape:groupmode="layer"
     id="layer1"><g
       id="g5"
       transform="matrix(1.074052,0,0,1.0740033,-0.07837166,-1.1748028)"><path
         id="rect10"
         style="fill:#000000;fill-rule:evenodd;stroke-width:0.341118"
         d="M 8.1040798 2.5916963 C 7.9796067 2.5916963 7.8793896 2.6919236 7.8793896 2.8163967 L 7.8793896 3.6098249 C 7.8793896 3.734298 7.9796067 3.8345253 8.1040798 3.8345253 L 8.32877 3.8345253 C 8.4532431 3.8345253 8.5534602 3.734298 8.5534602 3.6098249 L 8.5534602 2.8163967 C 8.5534602 2.6919236 8.4532431 2.5916963 8.32877 2.5916963 L 8.1040798 2.5916963 z M 7.8495592 3.928351 C 7.6886728 3.9306984 7.5555855 4.1272135 7.5555855 4.3036536 L 7.5555855 4.3758272 C 6.9672235 4.4154333 6.3391905 4.8249617 5.5516567 4.7646022 C 4.5615825 4.6887188 3.9383185 7.2336058 4.2737611 7.537511 C 5.7897642 8.9109829 4.3901016 10.508085 4.0562879 11.213071 C 3.8782001 11.589172 4.2396123 13.829268 4.3772052 14.001858 C 5.705083 15.667473 9.1590755 15.958915 10.465492 14.001858 C 10.561352 13.858262 10.71673 13.852692 10.786409 13.702578 C 11.713547 11.708712 12.258148 9.7153097 11.65101 6.3331746 C 11.621731 6.1700756 11.289241 5.7509859 11.160733 5.636459 C 10.488402 5.037275 9.7606564 4.6015705 8.8281885 4.4350095 L 8.8281885 4.3036536 C 8.8281885 4.1020076 8.6550635 3.8755214 8.463969 3.9398987 C 8.2529918 4.0109757 8.0784121 3.9946707 7.9198049 3.9398987 C 7.8959802 3.931669 7.8725426 3.9280157 7.8495592 3.928351 z M 8.7059801 5.6480067 L 8.694914 7.7453709 C 7.7607059 7.7925143 8.1948848 9.210882 7.877465 9.9625432 C 7.8496643 10.321741 5.7095506 10.506233 5.8004036 10.00681 C 6.3068565 7.9803405 6.2074253 7.7913874 5.7388183 6.5136085 C 5.4821089 5.9547769 6.5988722 5.6534061 7.3804522 5.6691777 L 7.3804522 5.6682154 L 7.8731348 5.6682154 L 8.7059801 5.6480067 z M 9.9862813 5.6480067 C 9.9894813 5.6480254 9.9926943 5.6484463 9.995904 5.6484879 L 10.016112 5.6480067 L 10.016112 5.6494502 C 10.427184 5.6609899 10.63079 5.6299421 10.911986 6.0209036 C 11.434803 6.7102563 11.362523 8.4410355 10.911986 9.9625432 C 10.830026 10.41824 9.516035 10.370446 9.505146 9.9625432 C 9.4272639 9.2135051 9.9010259 8.0514533 9.2559179 7.7270869 L 9.202993 5.6682154 L 9.9386489 5.6494502 C 9.9545779 5.6489776 9.9703466 5.6479142 9.9862813 5.6480067 z M 8.854651 8.0066393 C 8.8779793 8.0052588 8.9011312 8.0061949 8.9234533 8.0100074 C 9.1020302 8.0405072 9.2070592 8.2272812 9.2025118 8.4334257 C 9.1943332 8.8041787 9.1726144 9.1648593 9.0600958 9.6497911 C 9.0144401 9.8465573 8.8734909 9.9930431 8.694914 9.9625432 C 8.5163369 9.9320436 8.3678298 9.737396 8.4158555 9.5396061 C 8.4776067 9.2852881 8.69437 8.9388616 8.5577904 8.3232407 C 8.5188634 8.1477799 8.6913521 8.0163025 8.854651 8.0066393 z " /></g></g><metadata
     id="metadata10"><rdf:RDF><cc:Work
         rdf:about=""><dc:creator><cc:Agent><dc:title>mediapire llc</dc:title></cc:Agent></dc:creator><dc:rights><cc:Agent><dc:title>https://mediapire.com/assets/license</dc:title></cc:Agent></dc:rights></cc:Work></rdf:RDF></metadata></svg>
