<?xml version="1.0" encoding="UTF-8" standalone="no"?>
<!-- Created with Inkscape (http://www.inkscape.org/) -->

<svg
   width="64"
   height="64"
   viewBox="0 0 16.933336 16.933336"
   version="1.1"
   id="svg1"
   inkscape:version="1.3 (0e150ed6c4, 2023-07-21)"
   sodipodi:docname="b-person.svg"
   xml:space="preserve"
   xmlns:inkscape="http://www.inkscape.org/namespaces/inkscape"
   xmlns:sodipodi="http://sodipodi.sourceforge.net/DTD/sodipodi-0.dtd"
   xmlns="http://www.w3.org/2000/svg"
   xmlns:svg="http://www.w3.org/2000/svg"
   xmlns:rdf="http://www.w3.org/1999/02/22-rdf-syntax-ns#"
   xmlns:cc="http://creativecommons.org/ns#"
   xmlns:dc="http://purl.org/dc/elements/1.1/"><sodipodi:namedview
     id="namedview1"
     pagecolor="#ffffff"
     bordercolor="#000000"
     borderopacity="0.25"
     inkscape:showpageshadow="2"
     inkscape:pageopacity="0.0"
     inkscape:pagecheckerboard="0"
     inkscape:deskcolor="#d1d1d1"
     inkscape:document-units="px"
     showgrid="true"
     inkscape:zoom="4"
     inkscape:cx="-34.75"
     inkscape:cy="35.625"
     inkscape:window-width="2560"
     inkscape:window-height="947"
     inkscape:window-x="0"
     inkscape:window-y="1112"
     inkscape:window-maximized="1"
     inkscape:current-layer="g5"><sodipodi:guide
       position="0,15.875003"
       orientation="0,1"
       id="guide7"
       inkscape:locked="false"
       inkscape:label=""
       inkscape:color="rgb(0,134,229)" /><sodipodi:guide
       position="15.875003,16.933336"
       orientation="-1,0"
       id="guide8"
       inkscape:locked="false"
       inkscape:label=""
       inkscape:color="rgb(0,134,229)" /><sodipodi:guide
       position="16.933336,1.0583335"
       orientation="0,1"
       id="guide9"
       inkscape:locked="false"
       inkscape:label=""
       inkscape:color="rgb(0,134,229)" /><sodipodi:guide
       position="1.0583335,0"
       orientation="-1,0"
       id="guide10"
       inkscape:locked="false"
       inkscape:label=""
       inkscape:color="rgb(0,134,229)" /><inkscape:grid
       id="grid10"
       units="px"
       originx="0"
       originy="0"
       spacingx="0.26458338"
       spacingy="0.26458338"
       empcolor="#0099e5"
       empopacity="0.30196078"
       color="#0099e5"
       opacity="0.14901961"
       empspacing="4"
       dotted="true"
       gridanglex="30"
       gridanglez="30"
       visible="true" /></sodipodi:namedview><defs
     id="defs1" /><g
     inkscape:label="layer1"
     inkscape:groupmode="layer"
     id="layer1"><g
       id="g5"
       transform="matrix(1.074052,0,0,1.0740033,-0.07837166,-1.1748028)"><path
         id="path5"
         style="fill-rule:evenodd;stroke-width:0.506333"
         d="m 11.404668,6.0134384 c 0,2.1727843 -1.4889252,4.4418096 -3.3256074,4.4418096 -1.8366823,0 -3.3256076,-2.2690251 -3.3256078,-4.4418096 0,-2.1727845 1.4889253,-3.9341745 3.3256078,-3.9341745 1.8366823,3e-7 3.3256074,1.7613902 3.3256074,3.9341745"
         sodipodi:nodetypes="csssc" /><path
         id="path7"
         style="fill-rule:evenodd;stroke-width:1.1956"
         d="M 5.9976691 9.8956624 C 5.9964191 9.9146254 5.9938978 9.9328778 5.9928578 9.9519578 C 5.9877078 10.046116 5.9851596 10.141984 5.9851596 10.238727 L 5.9851596 10.947953 L 4.7188113 10.947953 C 4.6163739 10.947953 4.5153931 10.95325 4.415696 10.96335 C 4.3159993 10.97341 4.2177097 10.987977 4.1212412 11.007617 C 4.0247725 11.027257 3.9301229 11.052023 3.8373713 11.080753 C 3.7446196 11.10948 3.6535951 11.142541 3.5650487 11.179871 C 3.476502 11.217201 3.390532 11.258574 3.306679 11.304009 C 3.2228263 11.349449 3.1414147 11.398659 3.0627434 11.451725 C 2.9840717 11.504785 2.9081677 11.561857 2.8351664 11.622054 C 2.7621644 11.682254 2.6917533 11.745749 2.6249102 11.812593 C 2.5580675 11.879433 2.4945772 11.949376 2.4343806 12.022377 C 2.3741839 12.095377 2.317602 12.171296 2.2645398 12.249964 C 2.2114781 12.328634 2.1617892 12.410058 2.1163501 12.493911 C 2.0709114 12.577761 2.0295451 12.664227 1.9922172 12.752774 C 1.9548892 12.841324 1.9218313 12.931876 1.8931033 13.024628 C 1.8643753 13.117375 1.8400919 13.212042 1.8204519 13.30851 C 1.8008119 13.40498 1.7857713 13.503284 1.7757063 13.602978 C 1.7656423 13.702678 1.76031 13.804151 1.76031 13.906589 L 1.76031 16.858007 L 1.76031 16.860413 L 3.8912585 16.860413 L 3.8912585 16.367708 L 4.1375998 16.367708 L 4.1375998 16.860413 L 11.897351 16.860413 L 11.897351 16.367708 L 12.143692 16.367708 L 12.143692 16.860413 L 14.397812 16.860413 L 14.397812 16.858007 L 14.397812 13.906589 C 14.397812 13.804151 14.392515 13.702676 14.382415 13.602978 C 14.372355 13.503281 14.35732 13.404979 14.33767 13.30851 C 14.31803 13.21204 14.293748 13.117376 14.265018 13.024628 C 14.236288 12.931878 14.203224 12.84132 14.165904 12.752774 C 14.128574 12.664224 14.087214 12.577764 14.041771 12.493911 C 13.996331 12.410061 13.946641 12.328636 13.893582 12.249964 C 13.840522 12.171297 13.783938 12.095379 13.723741 12.022377 C 13.663541 11.949377 13.600055 11.879436 13.533211 11.812593 C 13.466371 11.745753 13.395957 11.682251 13.322955 11.622054 C 13.249955 11.561854 13.17405 11.504787 13.095378 11.451725 C 13.016708 11.398665 12.935296 11.349449 12.851442 11.304009 C 12.767595 11.258572 12.681619 11.217199 12.593073 11.179871 C 12.504523 11.142541 12.413502 11.10948 12.32075 11.080753 C 12.228 11.052023 12.133349 11.027257 12.03688 11.007617 C 11.94041 10.987977 11.842123 10.97342 11.742425 10.96335 C 11.642728 10.95329 11.541748 10.947953 11.43931 10.947953 L 9.9266206 10.947953 L 9.9266206 10.238727 C 9.9266206 10.18752 9.9242317 10.137195 9.9227715 10.086682 A 3.3256078 3.6063246 0 0 1 9.5888635 10.308495 A 3.3256078 3.6063246 0 0 1 9.1067659 10.525497 A 3.3256078 3.6063246 0 0 1 8.5991681 10.656853 A 3.3256078 3.6063246 0 0 1 8.0790607 10.701601 A 3.3256078 3.6063246 0 0 1 7.5589534 10.656853 A 3.3256078 3.6063246 0 0 1 7.0513556 10.525497 A 3.3256078 3.6063246 0 0 1 6.569258 10.308495 A 3.3256078 3.6063246 0 0 1 6.1242077 10.012584 A 3.3256078 3.6063246 0 0 1 5.9976691 9.8956624 z " /></g></g><metadata
     id="metadata10"><rdf:RDF><cc:Work
         rdf:about=""><dc:creator><cc:Agent><dc:title>mediapire llc</dc:title></cc:Agent></dc:creator><dc:rights><cc:Agent><dc:title>https://mediapire.com/assets/license</dc:title></cc:Agent></dc:rights></cc:Work></rdf:RDF></metadata></svg>
