<?xml version="1.0" encoding="UTF-8" standalone="no"?>
<!-- Created with Inkscape (http://www.inkscape.org/) -->

<svg
   width="64"
   height="64"
   viewBox="0 0 16.933336 16.933336"
   version="1.1"
   id="svg1"
   inkscape:version="1.3 (0e150ed6c4, 2023-07-21)"
   sodipodi:docname="b-plug.svg"
   xml:space="preserve"
   xmlns:inkscape="http://www.inkscape.org/namespaces/inkscape"
   xmlns:sodipodi="http://sodipodi.sourceforge.net/DTD/sodipodi-0.dtd"
   xmlns="http://www.w3.org/2000/svg"
   xmlns:svg="http://www.w3.org/2000/svg"
   xmlns:rdf="http://www.w3.org/1999/02/22-rdf-syntax-ns#"
   xmlns:cc="http://creativecommons.org/ns#"
   xmlns:dc="http://purl.org/dc/elements/1.1/"><sodipodi:namedview
     id="namedview1"
     pagecolor="#ffffff"
     bordercolor="#000000"
     borderopacity="0.25"
     inkscape:showpageshadow="2"
     inkscape:pageopacity="0.0"
     inkscape:pagecheckerboard="0"
     inkscape:deskcolor="#d1d1d1"
     inkscape:document-units="px"
     showgrid="true"
     inkscape:zoom="5.6568545"
     inkscape:cx="1.0606601"
     inkscape:cy="20.240931"
     inkscape:window-width="2560"
     inkscape:window-height="947"
     inkscape:window-x="0"
     inkscape:window-y="1112"
     inkscape:window-maximized="1"
     inkscape:current-layer="g5"><sodipodi:guide
       position="8.4666681,15.875002"
       orientation="0,1"
       id="guide7"
       inkscape:locked="false"
       inkscape:label=""
       inkscape:color="rgb(0,134,229)" /><sodipodi:guide
       position="15.875003,8.4666679"
       orientation="-1,0"
       id="guide8"
       inkscape:locked="false"
       inkscape:label=""
       inkscape:color="rgb(0,134,229)" /><sodipodi:guide
       position="8.4666681,-2.5793457e-07"
       orientation="0,1"
       id="guide9"
       inkscape:locked="false"
       inkscape:label=""
       inkscape:color="rgb(0,134,229)" /><sodipodi:guide
       position="1.0583335,8.4666679"
       orientation="-1,0"
       id="guide10"
       inkscape:locked="false"
       inkscape:label=""
       inkscape:color="rgb(0,134,229)" /><inkscape:grid
       id="grid10"
       units="px"
       originx="0"
       originy="0"
       spacingx="0.26458338"
       spacingy="0.26458338"
       empcolor="#0099e5"
       empopacity="0.30196078"
       color="#0099e5"
       opacity="0.14901961"
       empspacing="4"
       dotted="true"
       gridanglex="30"
       gridanglez="30"
       visible="true" /></sodipodi:namedview><defs
     id="defs1" /><g
     inkscape:label="layer1"
     inkscape:groupmode="layer"
     id="layer1"><g
       id="g5"
       transform="matrix(1.074052,0,0,1.0740033,-0.07837166,-1.1748028)"
       style="fill:#000000"><path
         id="rect11"
         style="fill-rule:evenodd;stroke-width:0.934685"
         d="m 6.3710124,3.3692465 c -0.2781276,0 -0.5018242,0.1335563 -0.5018242,0.2992798 v 2.9913542 c 0,0.1657233 0.2540081,0.1477153 0.5321357,0.1477153 0.2781278,0 0.4719938,0.018008 0.4719938,-0.1477153 V 3.6685263 c 0,-0.1657235 -0.2241776,-0.2992798 -0.5023053,-0.2992798 z m 3.5142127,0 c -0.2781274,0 -0.5023053,0.1335563 -0.5023053,0.2992798 v 2.9913542 c 0,0.1657233 0.2232156,0.1289502 0.501343,0.1289502 0.2781282,0 0.5032672,0.036773 0.5032672,-0.1289502 V 3.6685263 c 0,-0.1657235 -0.224176,-0.2992798 -0.5023049,-0.2992798 z m -4.4269265,3.605792 c -0.7548687,0 -1.8245658,0.3961236 -1.3630565,0.7053764 l 0.7019765,0.095269 c 0.454437,0.3045139 0.4976367,0.7053765 1.1152718,0.7053765 h 4.0872449 c 0.6176347,0 0.6603537,-0.4008627 1.1147907,-0.7053765 l 0.701976,-0.095269 C 12.278011,7.3711621 11.208794,6.9750385 10.453927,6.9750385 Z m 1.2956975,1.6532561 c -0.1808939,0 -0.3266909,0.127116 -0.3266909,0.284845 v 0.569209 c 0,0.157729 0.145797,0.284845 0.3266909,0.284845 h 0.2492282 c -0.013711,0.023282 -0.021651,0.049879 -0.021651,0.077947 v 0.3396974 c 0,0.09411 0.086921,0.169848 0.1948598,0.169848 h 1.5588786 c 0.1079386,0 0.1948598,-0.07574 0.1948598,-0.169848 V 9.8451411 c 0,-0.028069 -0.00794,-0.054666 -0.021651,-0.077947 h 0.4575598 c 0.180894,0 0.3266909,-0.127116 0.3266909,-0.284845 v -0.569209 c 0,-0.157729 -0.1457969,-0.284845 -0.3266909,-0.284845 z m 0.8198547,1.8981644 c 2.9943102,2.307438 2.2689875,2.148788 -0.2752094,2.919662 v 1.138899 c 3.4322776,-1.372424 4.2984376,-1.985338 1.2557633,-4.058561 z" /></g></g><metadata
     id="metadata10"><rdf:RDF><cc:Work
         rdf:about=""><dc:creator><cc:Agent><dc:title>mediapire llc</dc:title></cc:Agent></dc:creator><dc:rights><cc:Agent><dc:title>https://mediapire.com/assets/license</dc:title></cc:Agent></dc:rights></cc:Work></rdf:RDF></metadata></svg>
