<?xml version="1.0" encoding="UTF-8" standalone="no"?>
<!-- Created with Inkscape (http://www.inkscape.org/) -->

<svg
   width="64"
   height="64"
   viewBox="0 0 16.933336 16.933336"
   version="1.1"
   id="svg1"
   inkscape:version="1.3 (0e150ed6c4, 2023-07-21)"
   sodipodi:docname="b-rocket.svg"
   xml:space="preserve"
   xmlns:inkscape="http://www.inkscape.org/namespaces/inkscape"
   xmlns:sodipodi="http://sodipodi.sourceforge.net/DTD/sodipodi-0.dtd"
   xmlns="http://www.w3.org/2000/svg"
   xmlns:svg="http://www.w3.org/2000/svg"
   xmlns:rdf="http://www.w3.org/1999/02/22-rdf-syntax-ns#"
   xmlns:cc="http://creativecommons.org/ns#"
   xmlns:dc="http://purl.org/dc/elements/1.1/"><sodipodi:namedview
     id="namedview1"
     pagecolor="#ffffff"
     bordercolor="#000000"
     borderopacity="0.25"
     inkscape:showpageshadow="2"
     inkscape:pageopacity="0.0"
     inkscape:pagecheckerboard="0"
     inkscape:deskcolor="#d1d1d1"
     inkscape:document-units="px"
     showgrid="true"
     inkscape:zoom="8.0000001"
     inkscape:cx="28.75"
     inkscape:cy="36.6875"
     inkscape:window-width="2560"
     inkscape:window-height="947"
     inkscape:window-x="0"
     inkscape:window-y="1112"
     inkscape:window-maximized="1"
     inkscape:current-layer="g5"><sodipodi:guide
       position="0,15.875003"
       orientation="0,1"
       id="guide7"
       inkscape:locked="false"
       inkscape:label=""
       inkscape:color="rgb(0,134,229)" /><sodipodi:guide
       position="15.875003,16.933336"
       orientation="-1,0"
       id="guide8"
       inkscape:locked="false"
       inkscape:label=""
       inkscape:color="rgb(0,134,229)" /><sodipodi:guide
       position="16.933336,1.0583335"
       orientation="0,1"
       id="guide9"
       inkscape:locked="false"
       inkscape:label=""
       inkscape:color="rgb(0,134,229)" /><sodipodi:guide
       position="1.0583335,0"
       orientation="-1,0"
       id="guide10"
       inkscape:locked="false"
       inkscape:label=""
       inkscape:color="rgb(0,134,229)" /><inkscape:grid
       id="grid10"
       units="px"
       originx="0"
       originy="0"
       spacingx="0.26458338"
       spacingy="0.26458338"
       empcolor="#0099e5"
       empopacity="0.30196078"
       color="#0099e5"
       opacity="0.14901961"
       empspacing="4"
       dotted="true"
       gridanglex="30"
       gridanglez="30"
       visible="true" /></sodipodi:namedview><defs
     id="defs1" /><g
     inkscape:label="layer1"
     inkscape:groupmode="layer"
     id="layer1"><g
       id="g5"
       transform="matrix(1.074052,0,0,1.0740033,-0.07837166,-1.1748028)"><g
         id="g4"
         transform="rotate(45,-4.9992537,24.620952)"><path
           id="rect1"
           style="fill-rule:evenodd;stroke-width:0.499999;fill:#000000"
           d="m -8.190199,-1.0583335 c -0.1532492,0 -0.276469,0.12321977 -0.276469,0.27646896 V 6.073532 c 0,0.1532493 0.1232198,0.276469 0.276469,0.276469 h 2.6220625 c 0.1532492,0 0.276469,-0.1232197 0.276469,-0.276469 v -6.85539654 c 0,-0.15324919 -0.1232198,-0.27646896 -0.276469,-0.27646896 z m 1.3110312,1.56476262 A 0.66145843,0.66145843 0 0 1 -6.2177093,1.1678876 0.66145843,0.66145843 0 0 1 -6.8791678,1.829346 0.66145843,0.66145843 0 0 1 -7.5406262,1.1678876 0.66145843,0.66145843 0 0 1 -6.8791678,0.50642912 Z" /><path
           id="rect2"
           style="fill:#000000;fill-rule:evenodd;stroke-width:0.461203"
           d="m -7.4088573,6.5611692 0.9668595,0.00822 c 0.137812,0.00117 0.061863,0.2933073 0.2528209,0.4797477 l 0.2460887,0.2402659 c 0.1897604,0.1852705 -0.143776,0.4868938 -0.3275253,0.4853309 L -7.5597591,7.7637723 C -7.7435084,7.7622094 -8.0822248,7.4548681 -7.8955887,7.272799 L -7.6535521,7.0366851 C -7.4657377,6.8534666 -7.5466687,6.559997 -7.4088573,6.5611692 Z"
           sodipodi:nodetypes="sssssssss" /><path
           id="rect3"
           style="fill:#000000;fill-rule:evenodd;stroke-width:0.585225"
           d="m -4.7774729,2.7679833 0.2321361,0.00259 c 0.2765646,0.00309 1.1436927,1.2587471 1.1436929,1.936479 l 2e-7,0.4667004 c 0,0.280782 -0.092249,0.5068269 -0.2068356,0.5068269 l -1.1689936,0 c -0.114587,0 -0.2068357,-0.2260449 -0.2068357,-0.5068269 l 0,-1.8989423 c 0,-0.2807822 0.092256,-0.5081054 0.2068357,-0.5068271 z"
           sodipodi:nodetypes="sssssssss" /><path
           id="rect4"
           style="fill-rule:evenodd;stroke-width:0.499999;fill:#000000"
           d="m -7.1642067,-5.0190405 0.263994,-0.2849135 0.3060842,0.2849135 c 0.029973,0.0279 0.9536306,1.286538 1.0583335,1.9147557 l 0.2645834,1.5875003 c 0.025818,0.1549089 -0.1476732,0.2525437 -0.3311058,0.2525437 h -2.5537008 c -0.1834326,0 -0.3569238,-0.097635 -0.3311057,-0.2525437 l 0.2645832,-1.5875003 c 0.1047029,-0.6282174 1.0173852,-1.9147557 1.058334,-1.9147557 z"
           sodipodi:nodetypes="scssssssss" /><path
           id="rect3-2"
           style="fill:#000000;fill-rule:evenodd;stroke-width:0.585225"
           d="m -9.0084606,2.9227078 -0.2321361,0.00259 c -0.2765646,0.00309 -1.1436923,1.2587471 -1.1436923,1.936479 v 0.4667004 c 0,0.280782 0.09225,0.5068269 0.206834,0.5068269 h 1.1689944 c 0.114587,0 0.2068357,-0.2260449 0.2068357,-0.5068269 V 3.4295349 c 0,-0.2807822 -0.092256,-0.5081054 -0.2068357,-0.5068271 z"
           sodipodi:nodetypes="sssssssss" /></g><path
         id="path4"
         style="fill:#000000;fill-rule:evenodd;stroke-width:0.499999"
         d="M 3.185914 11.014834 C 3.0407606 11.014361 2.8942373 11.019906 2.7466375 11.032156 C 3.094763 11.2176 3.542499 11.34197 3.7040968 11.641782 C 3.0240405 11.808207 2.6389622 12.204068 2.3814557 12.699846 C 2.6636526 12.669796 2.7179041 12.680971 2.9102235 12.804258 C 2.1201026 13.738514 1.7234055 14.757274 1.0583335 15.875003 C 1.8961084 15.211601 2.9602479 14.772684 3.5611996 13.882531 C 3.6707241 14.276582 3.3077217 14.473006 3.1748479 14.816457 C 3.7447954 14.424937 4.4828718 14.34654 4.7702928 13.428318 C 5.2548027 13.619385 5.1905103 14.134783 5.2918436 14.552302 C 5.5376042 13.810024 5.924462 12.71123 5.7320824 11.988696 C 5.604426 11.672101 5.4414607 11.384116 5.0272191 11.258781 C 4.4229489 11.128141 3.8149124 11.016882 3.185914 11.014834 z M 3.7040968 11.242902 C 3.7739608 11.234403 5.2363291 11.334722 5.392882 11.952609 C 5.4421389 12.554064 5.4231159 12.965914 5.2918436 13.3624 C 5.2306466 13.096116 5.1751021 12.845962 4.8790294 12.72198 C 4.7255039 13.212445 4.2731579 13.549262 3.9687213 13.758392 C 4.0396962 13.574939 4.2918481 13.174965 4.2333457 12.964483 C 3.9123482 13.439956 3.1883603 13.558007 2.7408638 13.912363 C 3.0366612 13.275608 3.329221 12.797892 3.8854849 12.388538 C 3.7827577 12.322688 3.325583 12.326778 3.1748479 12.342828 C 3.3123947 12.078009 3.9465951 11.856259 4.3098463 11.767364 C 4.2235294 11.607219 3.8900476 11.341957 3.7040968 11.242902 z " /></g></g><metadata
     id="metadata10"><rdf:RDF><cc:Work
         rdf:about=""><dc:creator><cc:Agent><dc:title>mediapire llc</dc:title></cc:Agent></dc:creator><dc:rights><cc:Agent><dc:title>https://mediapire.com/assets/license</dc:title></cc:Agent></dc:rights></cc:Work></rdf:RDF></metadata></svg>
