<?xml version="1.0" encoding="UTF-8" standalone="no"?>
<!-- Created with Inkscape (http://www.inkscape.org/) -->

<svg
   width="64"
   height="64"
   viewBox="0 0 16.933336 16.933336"
   version="1.1"
   id="svg1"
   inkscape:version="1.3 (0e150ed6c4, 2023-07-21)"
   sodipodi:docname="b-snowflake.svg"
   xml:space="preserve"
   xmlns:inkscape="http://www.inkscape.org/namespaces/inkscape"
   xmlns:sodipodi="http://sodipodi.sourceforge.net/DTD/sodipodi-0.dtd"
   xmlns="http://www.w3.org/2000/svg"
   xmlns:svg="http://www.w3.org/2000/svg"
   xmlns:rdf="http://www.w3.org/1999/02/22-rdf-syntax-ns#"
   xmlns:cc="http://creativecommons.org/ns#"
   xmlns:dc="http://purl.org/dc/elements/1.1/"><sodipodi:namedview
     id="namedview1"
     pagecolor="#ffffff"
     bordercolor="#000000"
     borderopacity="0.25"
     inkscape:showpageshadow="2"
     inkscape:pageopacity="0.0"
     inkscape:pagecheckerboard="0"
     inkscape:deskcolor="#d1d1d1"
     inkscape:document-units="px"
     showgrid="true"
     inkscape:zoom="5.6568543"
     inkscape:cx="63.374444"
     inkscape:cy="51.707183"
     inkscape:window-width="2560"
     inkscape:window-height="947"
     inkscape:window-x="0"
     inkscape:window-y="1112"
     inkscape:window-maximized="1"
     inkscape:current-layer="g12"><sodipodi:guide
       position="0,15.875003"
       orientation="0,1"
       id="guide7"
       inkscape:locked="false"
       inkscape:label=""
       inkscape:color="rgb(0,134,229)" /><sodipodi:guide
       position="15.875003,6.8791676"
       orientation="-1,0"
       id="guide8"
       inkscape:locked="false"
       inkscape:label=""
       inkscape:color="rgb(0,134,229)" /><sodipodi:guide
       position="5.2916676,1.0583335"
       orientation="0,1"
       id="guide9"
       inkscape:locked="false"
       inkscape:label=""
       inkscape:color="rgb(0,134,229)" /><sodipodi:guide
       position="1.0583335,0"
       orientation="-1,0"
       id="guide10"
       inkscape:locked="false"
       inkscape:label=""
       inkscape:color="rgb(0,134,229)" /><inkscape:grid
       id="grid10"
       units="px"
       originx="0"
       originy="0"
       spacingx="0.26458338"
       spacingy="0.26458338"
       empcolor="#0099e5"
       empopacity="0.30196078"
       color="#0099e5"
       opacity="0.14901961"
       empspacing="4"
       dotted="true"
       gridanglex="30"
       gridanglez="30"
       visible="true" /></sodipodi:namedview><defs
     id="defs1" /><g
     inkscape:label="layer1"
     inkscape:groupmode="layer"
     id="layer1"><g
       id="g5"
       transform="matrix(1.074052,0,0,1.0740033,-0.07837166,-1.1748028)"><g
         id="g12"><path
           id="rect3"
           style="fill:#000000;fill-rule:evenodd;stroke-width:0.71112"
           d="M 7.6946336 2.0792639 L 7.6946336 3.5698889 L 6.8940243 2.8024432 L 6.5326917 3.1801515 L 7.6946336 4.2930681 L 7.6946336 8.4228402 L 5.4751561 6.2032621 L 5.503062 4.9277144 L 5.0888044 4.9185725 L 5.069559 5.7976466 L 4.234308 4.9623578 L 3.9412966 5.2553825 L 4.7770287 6.0911525 L 3.8975133 6.1099176 L 3.9066548 6.524194 L 5.1826258 6.496768 L 7.4016221 8.715865 L 3.271075 8.715865 L 2.1591712 7.5538704 L 1.7814799 7.9152194 L 2.5479286 8.715865 L 1.0583335 8.715865 L 1.0583335 9.2384017 L 2.5488908 9.2384017 L 1.7814799 10.039047 L 2.1591712 10.400396 L 3.2720373 9.2384017 L 7.4016221 9.2384017 L 5.1821447 11.45798 L 3.9066548 11.430073 L 3.8975133 11.844349 L 4.7765476 11.863595 L 3.9412966 12.698884 L 4.234308 12.991909 L 5.0700401 12.156139 L 5.0888044 13.035694 L 5.503062 13.026071 L 5.4756373 11.750523 L 7.6946336 9.5314264 L 7.6946336 13.662161 L 6.5326917 14.774115 L 6.8940243 15.151823 L 7.6946336 14.38534 L 7.6946336 15.875003 L 8.2171466 15.875003 L 8.2171466 14.384378 L 9.0177558 15.151823 L 9.3790885 14.774115 L 8.2171466 13.661199 L 8.2171466 9.5314264 L 10.436624 11.751004 L 10.408718 13.026071 L 10.822976 13.035694 L 10.842221 12.15662 L 11.677472 12.991909 L 11.970484 12.698884 L 11.134751 11.863114 L 12.014267 11.844349 L 12.004644 11.430073 L 10.729154 11.457499 L 8.510158 9.2384017 L 12.640705 9.2384017 L 13.752609 10.400396 L 14.1303 10.039047 L 13.363852 9.2384017 L 14.853447 9.2384017 L 14.853447 8.715865 L 13.362889 8.715865 L 14.1303 7.9152194 L 13.752609 7.5538704 L 12.639743 8.715865 L 8.510158 8.715865 L 10.729635 6.4962869 L 12.004644 6.524194 L 12.014267 6.1099176 L 11.135233 6.0906714 L 11.970484 5.2553825 L 11.677472 4.9623578 L 10.84174 5.7981278 L 10.822976 4.9185725 L 10.408718 4.9277144 L 10.436143 6.2037433 L 8.2171466 8.4228402 L 8.2171466 4.2921058 L 9.3790885 3.1801515 L 9.0177558 2.8024432 L 8.2171466 3.5689266 L 8.2171466 2.0792639 L 7.6946336 2.0792639 z " /></g></g></g><metadata
     id="metadata10"><rdf:RDF><cc:Work
         rdf:about=""><dc:creator><cc:Agent><dc:title>mediapire llc</dc:title></cc:Agent></dc:creator><dc:rights><cc:Agent><dc:title>https://mediapire.com/assets/license</dc:title></cc:Agent></dc:rights></cc:Work></rdf:RDF></metadata></svg>
