<?xml version="1.0" encoding="UTF-8" standalone="no"?>
<!-- Created with Inkscape (http://www.inkscape.org/) -->

<svg
   width="64"
   height="64"
   viewBox="0 0 16.933336 16.933336"
   version="1.1"
   id="svg1"
   inkscape:version="1.3 (0e150ed6c4, 2023-07-21)"
   sodipodi:docname="b-spoon-fork.svg"
   xml:space="preserve"
   xmlns:inkscape="http://www.inkscape.org/namespaces/inkscape"
   xmlns:sodipodi="http://sodipodi.sourceforge.net/DTD/sodipodi-0.dtd"
   xmlns="http://www.w3.org/2000/svg"
   xmlns:svg="http://www.w3.org/2000/svg"
   xmlns:rdf="http://www.w3.org/1999/02/22-rdf-syntax-ns#"
   xmlns:cc="http://creativecommons.org/ns#"
   xmlns:dc="http://purl.org/dc/elements/1.1/"><sodipodi:namedview
     id="namedview1"
     pagecolor="#ffffff"
     bordercolor="#000000"
     borderopacity="0.25"
     inkscape:showpageshadow="2"
     inkscape:pageopacity="0.0"
     inkscape:pagecheckerboard="0"
     inkscape:deskcolor="#d1d1d1"
     inkscape:document-units="px"
     showgrid="true"
     inkscape:zoom="4"
     inkscape:cx="-120.75"
     inkscape:cy="32.875"
     inkscape:window-width="2560"
     inkscape:window-height="947"
     inkscape:window-x="0"
     inkscape:window-y="1112"
     inkscape:window-maximized="1"
     inkscape:current-layer="g3"><sodipodi:guide
       position="-2.116667,15.875002"
       orientation="0,-1"
       id="guide7"
       inkscape:locked="false"
       inkscape:label=""
       inkscape:color="rgb(0,134,229)" /><sodipodi:guide
       position="15.875003,16.933336"
       orientation="-1,0"
       id="guide8"
       inkscape:locked="false"
       inkscape:label=""
       inkscape:color="rgb(0,134,229)" /><sodipodi:guide
       position="16.933336,1.0583335"
       orientation="0,1"
       id="guide9"
       inkscape:locked="false"
       inkscape:label=""
       inkscape:color="rgb(0,134,229)" /><sodipodi:guide
       position="1.0583335,0"
       orientation="-1,0"
       id="guide10"
       inkscape:locked="false"
       inkscape:label=""
       inkscape:color="rgb(0,134,229)" /><inkscape:grid
       id="grid10"
       units="px"
       originx="0"
       originy="0"
       spacingx="0.26458338"
       spacingy="0.26458338"
       empcolor="#0099e5"
       empopacity="0.30196078"
       color="#0099e5"
       opacity="0.14901961"
       empspacing="4"
       dotted="true"
       gridanglex="30"
       gridanglez="30"
       visible="true" /></sodipodi:namedview><defs
     id="defs1" /><g
     inkscape:label="layer1"
     inkscape:groupmode="layer"
     id="layer1"><g
       id="g23"><g
         id="g29"
         transform="matrix(0.65182853,0.65201459,-0.65182853,0.65201459,6.5019093,-0.60667976)"><g
           id="g47"
           style="fill:#ffffff"><g
             id="g10"
             style="fill:#ffffff;opacity:1"
             transform="matrix(0.76707291,-0.76707291,0.76685401,0.76685401,-4.5222036,5.4526732)"><path
               id="rect10"
               style="opacity:0;fill:#ffffff;fill-rule:evenodd;stroke-width:0.396875"
               d="M 0,0 H 16.933336 V 16.933336 H 0 Z"
               inkscape:label="clear-background"
               sodipodi:insensitive="true" /><g
               id="g11"
               transform="matrix(0.51851862,0,0,0.42010276,-0.31357881,2.7590456)"
               style="fill:#ffffff"><g
                 id="g12"
                 transform="matrix(1,0,0,1.417164,-1.9312542e-8,-12.357776)"
                 style="fill:#ffffff" /></g></g><g
             id="g4"
             transform="matrix(1.341166,-0.01108819,-0.01108819,1.341166,-2.6803739,-5.6464558)"><g
               id="g3"><g
                 id="g7"><path
                   id="rect4"
                   style="fill:#000000;fill-rule:evenodd;stroke-width:0.11697"
                   d="M 5.1085409,3.0717879 6.9234466,4.8866938 7.5797997,5.5430468 8.1634684,4.9593781 14.2248,11.020708 15.058611,10.186896 8.9972807,4.1255657 9.5809495,3.541897 8.9245964,2.885544 7.1096907,1.0706381 6.859547,1.3207819 8.6744528,3.1356876 8.3409278,3.4692126 6.526022,1.6543068 6.2758783,1.9044505 8.090784,3.7193564 7.7572591,4.0528813 5.9423533,2.2379755 5.6922095,2.4881193 7.5071154,4.303025 7.1735904,4.63655 5.3586846,2.8216443 Z" /><path
                   id="rect4-9"
                   style="fill:#000000;fill-rule:evenodd;stroke-width:0.112226"
                   d="M 2.1978893,5.9978229 A 2.2045302,1.5329457 45 0 0 2.6727716,8.6406177 2.2045302,1.5329457 45 0 0 4.7852761,9.4105533 L 10.32005,14.945328 11.153862,14.111515 5.6139607,8.5716134 A 2.2045302,1.5329457 45 0 0 4.8406837,6.4727056 2.2045302,1.5329457 45 0 0 2.1978893,5.9978229 Z m 0.42304,0.4230398 A 1.606312,1.1169678 45 0 1 4.5465694,6.7668189 1.606312,1.1169678 45 0 1 4.892526,8.6924595 1.606312,1.1169678 45 0 1 2.9668858,8.3465033 1.606312,1.1169678 45 0 1 2.6209293,6.4208627 Z" /></g></g></g></g></g></g></g><metadata
     id="metadata10"><rdf:RDF><cc:Work
         rdf:about=""><dc:creator><cc:Agent><dc:title>mediapire llc</dc:title></cc:Agent></dc:creator><dc:rights><cc:Agent><dc:title>https://mediapire.com/assets/license</dc:title></cc:Agent></dc:rights></cc:Work></rdf:RDF></metadata></svg>
