<?xml version="1.0" encoding="UTF-8" standalone="no"?>
<!-- Created with Inkscape (http://www.inkscape.org/) -->

<svg
   width="64"
   height="64"
   viewBox="0 0 16.933336 16.933336"
   version="1.1"
   id="svg1"
   inkscape:version="1.3 (0e150ed6c4, 2023-07-21)"
   sodipodi:docname="w-boxing-bell.svg"
   xml:space="preserve"
   xmlns:inkscape="http://www.inkscape.org/namespaces/inkscape"
   xmlns:sodipodi="http://sodipodi.sourceforge.net/DTD/sodipodi-0.dtd"
   xmlns="http://www.w3.org/2000/svg"
   xmlns:svg="http://www.w3.org/2000/svg"
   xmlns:rdf="http://www.w3.org/1999/02/22-rdf-syntax-ns#"
   xmlns:cc="http://creativecommons.org/ns#"
   xmlns:dc="http://purl.org/dc/elements/1.1/"><sodipodi:namedview
     id="namedview1"
     pagecolor="#ffffff"
     bordercolor="#000000"
     borderopacity="0.25"
     inkscape:showpageshadow="2"
     inkscape:pageopacity="0.0"
     inkscape:pagecheckerboard="0"
     inkscape:deskcolor="#d1d1d1"
     inkscape:document-units="px"
     showgrid="true"
     inkscape:zoom="5.6568543"
     inkscape:cx="-3.0052038"
     inkscape:cy="25.367456"
     inkscape:window-width="2560"
     inkscape:window-height="947"
     inkscape:window-x="0"
     inkscape:window-y="1112"
     inkscape:window-maximized="1"
     inkscape:current-layer="g12"><sodipodi:guide
       position="0,15.875003"
       orientation="0,1"
       id="guide7"
       inkscape:locked="false"
       inkscape:label=""
       inkscape:color="rgb(0,134,229)" /><sodipodi:guide
       position="15.875003,16.933336"
       orientation="-1,0"
       id="guide8"
       inkscape:locked="false"
       inkscape:label=""
       inkscape:color="rgb(0,134,229)" /><sodipodi:guide
       position="16.933336,1.0583335"
       orientation="0,1"
       id="guide9"
       inkscape:locked="false"
       inkscape:label=""
       inkscape:color="rgb(0,134,229)" /><sodipodi:guide
       position="1.0583335,0"
       orientation="-1,0"
       id="guide10"
       inkscape:locked="false"
       inkscape:label=""
       inkscape:color="rgb(0,134,229)" /><inkscape:grid
       id="grid10"
       units="px"
       originx="0"
       originy="0"
       spacingx="0.26458338"
       spacingy="0.26458338"
       empcolor="#0099e5"
       empopacity="0.30196078"
       color="#0099e5"
       opacity="0.14901961"
       empspacing="4"
       dotted="true"
       gridanglex="30"
       gridanglez="30"
       visible="true" /></sodipodi:namedview><defs
     id="defs1" /><g
     inkscape:label="layer1"
     inkscape:groupmode="layer"
     id="layer1"><g
       id="g5"
       transform="matrix(1.074052,0,0,1.0740033,-0.07837166,-1.1748028)"><g
         id="g12"><g
           id="g17"
           transform="translate(-0.98536544,0.18909896)"
           style="fill:#ffffff"><path
             id="path14"
             style="fill:#ffffff;fill-rule:evenodd;stroke-width:0.299274"
             d="M 7.7095488,3.1661937 A 4.4341435,4.4343448 0 0 0 3.2754052,7.6005383 4.4341435,4.4343448 0 0 0 7.7095488,12.034883 4.4341435,4.4343448 0 0 0 12.143693,7.6005383 4.4341435,4.4343448 0 0 0 7.7095488,3.1661937 Z m 0,2.2171723 A 2.2170718,2.2171724 0 0 1 9.9266207,7.6005383 2.2170718,2.2171724 0 0 1 7.7095488,9.8177106 2.2170718,2.2171724 0 0 1 5.492477,7.6005383 2.2170718,2.2171724 0 0 1 7.7095488,5.383366 Z" /><ellipse
             style="fill:#ffffff;fill-rule:evenodd;stroke-width:0.0443896"
             id="path14-6-9"
             cx="7.709549"
             cy="7.6005802"
             rx="0.65769112"
             ry="0.65772092" /><path
             d="m 10.600692,11.453645 a 4.4341435,4.4343448 0 0 1 -0.100558,0.08565 4.4341435,4.4343448 0 0 1 -0.184275,0.14146 4.4341435,4.4343448 0 0 1 -0.191492,0.131356 A 4.4341435,4.4343448 0 0 1 9.9266207,11.933363 4.4341435,4.4343448 0 0 1 9.7226192,12.04451 4.4341435,4.4343448 0 0 1 9.5128441,12.14411 4.4341435,4.4343448 0 0 1 9.2987389,12.23312 4.4341435,4.4343448 0 0 1 9.0798223,12.31059 4.4341435,4.4343448 0 0 1 8.8570566,12.37651 4.4341435,4.4343448 0 0 1 8.6314042,12.43088 4.4341435,4.4343448 0 0 1 8.403346,12.47322 4.4341435,4.4343448 0 0 1 8.1728821,12.50353 4.4341435,4.4343448 0 0 1 7.941456,12.52133 4.4341435,4.4343448 0 0 1 7.7095488,12.52763 4.4341435,4.4343448 0 0 1 7.0157516,12.473217 4.4341435,4.4343448 0 0 1 6.3392753,12.310586 4.4341435,4.4343448 0 0 1 5.6964784,12.044506 4.4341435,4.4343448 0 0 1 5.1032385,11.680751 4.4341435,4.4343448 0 0 1 4.8371706,11.453645 H 3.7680879 v 2.95623 H 11.65101 v -2.95623 z"
             style="fill-rule:evenodd;stroke-width:0.465537;fill:#ffffff"
             id="path16" /><path
             style="fill:#ffffff;fill-rule:evenodd;stroke-width:0.465537"
             d="m 11.897351,12.918773 v -0.98541 h 0.492683 l 1.120916,-4.9905037 0.603473,0.063454 -1.231706,4.9270497 0.0054,0.998397 z"
             id="path17" /><rect
             style="fill:#ffffff;fill-rule:evenodd;stroke-width:0.465537"
             id="rect17"
             width="1.9707304"
             height="0.98540992"
             x="12.636375"
             y="5.7745509" /></g></g></g></g><metadata
     id="metadata10"><rdf:RDF><cc:Work
         rdf:about=""><dc:creator><cc:Agent><dc:title>mediapire llc</dc:title></cc:Agent></dc:creator><dc:rights><cc:Agent><dc:title>https://mediapire.com/assets/license</dc:title></cc:Agent></dc:rights></cc:Work></rdf:RDF></metadata></svg>
