<?xml version="1.0" encoding="UTF-8" standalone="no"?>
<!-- Created with Inkscape (http://www.inkscape.org/) -->

<svg
   width="64"
   height="64"
   viewBox="0 0 16.933336 16.933336"
   version="1.1"
   id="svg1"
   inkscape:version="1.3 (0e150ed6c4, 2023-07-21)"
   sodipodi:docname="w-bulb.svg"
   xml:space="preserve"
   xmlns:inkscape="http://www.inkscape.org/namespaces/inkscape"
   xmlns:sodipodi="http://sodipodi.sourceforge.net/DTD/sodipodi-0.dtd"
   xmlns="http://www.w3.org/2000/svg"
   xmlns:svg="http://www.w3.org/2000/svg"
   xmlns:rdf="http://www.w3.org/1999/02/22-rdf-syntax-ns#"
   xmlns:cc="http://creativecommons.org/ns#"
   xmlns:dc="http://purl.org/dc/elements/1.1/"><sodipodi:namedview
     id="namedview1"
     pagecolor="#ffffff"
     bordercolor="#000000"
     borderopacity="0.25"
     inkscape:showpageshadow="2"
     inkscape:pageopacity="0.0"
     inkscape:pagecheckerboard="0"
     inkscape:deskcolor="#d1d1d1"
     inkscape:document-units="px"
     showgrid="true"
     inkscape:zoom="2.8284271"
     inkscape:cx="-22.273864"
     inkscape:cy="84.322483"
     inkscape:window-width="2560"
     inkscape:window-height="947"
     inkscape:window-x="0"
     inkscape:window-y="1112"
     inkscape:window-maximized="1"
     inkscape:current-layer="g26"><sodipodi:guide
       position="-2.116667,15.875002"
       orientation="0,-1"
       id="guide7"
       inkscape:locked="false"
       inkscape:label=""
       inkscape:color="rgb(0,134,229)" /><sodipodi:guide
       position="15.875003,16.933336"
       orientation="-1,0"
       id="guide8"
       inkscape:locked="false"
       inkscape:label=""
       inkscape:color="rgb(0,134,229)" /><sodipodi:guide
       position="16.933336,1.0583335"
       orientation="0,1"
       id="guide9"
       inkscape:locked="false"
       inkscape:label=""
       inkscape:color="rgb(0,134,229)" /><sodipodi:guide
       position="1.0583335,0"
       orientation="-1,0"
       id="guide10"
       inkscape:locked="false"
       inkscape:label=""
       inkscape:color="rgb(0,134,229)" /><inkscape:grid
       id="grid10"
       units="px"
       originx="0"
       originy="0"
       spacingx="0.26458338"
       spacingy="0.26458338"
       empcolor="#0099e5"
       empopacity="0.30196078"
       color="#0099e5"
       opacity="0.14901961"
       empspacing="4"
       dotted="true"
       gridanglex="30"
       gridanglez="30"
       visible="true" /></sodipodi:namedview><defs
     id="defs1" /><g
     inkscape:label="layer1"
     inkscape:groupmode="layer"
     id="layer1"><g
       id="g23"><g
         id="g29"
         transform="matrix(0.65182853,0.65201459,-0.65182853,0.65201459,6.5019093,-0.60667976)"><g
           id="g47"
           style="fill:#ffffff"><g
             id="g10"
             style="fill:#ffffff;opacity:1"
             transform="matrix(0.76707291,-0.76707291,0.76685401,0.76685401,-4.5222036,5.4526732)"><path
               id="rect10"
               style="opacity:0;fill:#ffffff;fill-rule:evenodd;stroke-width:0.396875"
               d="M 0,0 H 16.933336 V 16.933336 H 0 Z"
               inkscape:label="clear-background"
               sodipodi:insensitive="true" /><g
               id="g11"
               transform="matrix(0.51851862,0,0,0.42010276,-0.31357881,2.7590456)"
               style="fill:#ffffff"><g
                 id="g12"
                 transform="matrix(1,0,0,1.417164,-1.9312542e-8,-12.357776)"
                 style="fill:#ffffff" /></g></g><g
             id="g4"
             transform="matrix(1.341166,-0.01108819,-0.01108819,1.341166,-2.6803739,-5.6464558)"><g
               id="g16"
               transform="translate(8.5937996,-6.1146497)" /><g
               id="g26"
               transform="matrix(0.68991349,-0.01521474,-0.01521474,0.68991349,4.1146785,4.1041801)"><path
                 id="path27"
                 style="fill:#ffffff;fill-rule:evenodd;stroke:none;stroke-width:0.141766;stroke-dasharray:none"
                 d="M -0.01075127,-0.0463544 C -2.2249683,2.1678627 -2.0807992,5.901979 0.31125853,8.2940092 1.7549254,9.7338134 3.7669802,10.414125 5.678375,10.108724 L 6.6360497,11.043777 8.3175238,8.950117 5.0052496,5.6378429 2.9452254,5.8051392 2.2354524,5.0953661 C 4.642576,5.4298814 5.3741133,4.254122 5.1309689,2.1998495 L 5.8407419,2.9096225 5.6734458,4.9696468 8.9857199,8.281921 11.09069,6.5891361 10.144326,5.6427721 C 10.449726,3.7313774 9.7694163,1.7193226 8.3296121,0.27565553 5.9375819,-2.1164021 2.2034657,-2.2605712 -0.01075127,-0.0463544 Z"
                 sodipodi:nodetypes="sccccccccccccccs" /><path
                 id="path28"
                 style="fill:#ffffff;fill-rule:evenodd;stroke:none;stroke-width:0.162321;stroke-dasharray:none"
                 d="M 9.022682,8.9870788 A 0.66918042,3.7798883 45 0 0 6.8230792,12.133045 0.66918042,3.7798883 45 0 0 7.4229144,12.006391 0.66918042,3.7798883 45 0 0 7.296261,12.606227 0.66918042,3.7798883 45 0 0 7.896097,12.479574 0.66918042,3.7798883 45 0 0 7.7694428,13.079409 0.66918042,3.7798883 45 0 0 8.3692787,12.952755 0.66918042,3.7798883 45 0 0 8.2426253,13.552592 0.66918042,3.7798883 45 0 0 8.8424605,13.425937 0.66918042,3.7798883 45 0 0 8.7158071,14.025774 0.66918042,3.7798883 45 0 0 9.3156431,13.89912 0.66918042,3.7798883 45 0 0 9.188989,14.498955 0.66918042,3.7798883 45 0 0 9.7888249,14.372302 0.66918042,3.7798883 45 0 0 9.6621715,14.972137 0.66918042,3.7798883 45 0 0 12.808138,12.772535 0.66918042,3.7798883 45 0 0 15.00774,9.6265684 0.66918042,3.7798883 45 0 0 14.409617,9.7505842 0.66918042,3.7798883 45 0 0 14.534558,9.1533859 0.66918042,3.7798883 45 0 0 13.936436,9.2774024 0.66918042,3.7798883 45 0 0 14.061376,8.6802041 0.66918042,3.7798883 45 0 0 13.463254,8.8042206 0.66918042,3.7798883 45 0 0 13.588194,8.2070222 0.66918042,3.7798883 45 0 0 12.990072,8.3310387 0.66918042,3.7798883 45 0 0 13.115012,7.7338396 0.66918042,3.7798883 45 0 0 12.516889,7.8578562 0.66918042,3.7798883 45 0 0 12.64183,7.2606579 0.66918042,3.7798883 45 0 0 12.043707,7.3846744 0.66918042,3.7798883 45 0 0 12.168648,6.7874761 0.66918042,3.7798883 45 0 0 9.022682,8.9870788 Z" /></g></g></g></g></g></g><metadata
     id="metadata10"><rdf:RDF><cc:Work
         rdf:about=""><dc:creator><cc:Agent><dc:title>mediapire llc</dc:title></cc:Agent></dc:creator><dc:rights><cc:Agent><dc:title>https://mediapire.com/assets/license</dc:title></cc:Agent></dc:rights></cc:Work></rdf:RDF></metadata></svg>
