<?xml version="1.0" encoding="UTF-8" standalone="no"?>
<!-- Created with Inkscape (http://www.inkscape.org/) -->

<svg
   width="64"
   height="64"
   viewBox="0 0 16.933336 16.933336"
   version="1.1"
   id="svg1"
   inkscape:version="1.3 (0e150ed6c4, 2023-07-21)"
   sodipodi:docname="w-button-side-pressed.svg"
   xml:space="preserve"
   xmlns:inkscape="http://www.inkscape.org/namespaces/inkscape"
   xmlns:sodipodi="http://sodipodi.sourceforge.net/DTD/sodipodi-0.dtd"
   xmlns="http://www.w3.org/2000/svg"
   xmlns:svg="http://www.w3.org/2000/svg"
   xmlns:rdf="http://www.w3.org/1999/02/22-rdf-syntax-ns#"
   xmlns:cc="http://creativecommons.org/ns#"
   xmlns:dc="http://purl.org/dc/elements/1.1/"><sodipodi:namedview
     id="namedview1"
     pagecolor="#ffffff"
     bordercolor="#000000"
     borderopacity="0.25"
     inkscape:showpageshadow="2"
     inkscape:pageopacity="0.0"
     inkscape:pagecheckerboard="0"
     inkscape:deskcolor="#d1d1d1"
     inkscape:document-units="px"
     showgrid="true"
     inkscape:zoom="8"
     inkscape:cx="31.9375"
     inkscape:cy="50.3125"
     inkscape:window-width="2560"
     inkscape:window-height="947"
     inkscape:window-x="0"
     inkscape:window-y="1112"
     inkscape:window-maximized="1"
     inkscape:current-layer="g11"><sodipodi:guide
       position="0,15.875003"
       orientation="0,1"
       id="guide7"
       inkscape:locked="false"
       inkscape:label=""
       inkscape:color="rgb(0,134,229)" /><sodipodi:guide
       position="15.875003,16.933336"
       orientation="-1,0"
       id="guide8"
       inkscape:locked="false"
       inkscape:label=""
       inkscape:color="rgb(0,134,229)" /><sodipodi:guide
       position="16.933336,1.0583335"
       orientation="0,1"
       id="guide9"
       inkscape:locked="false"
       inkscape:label=""
       inkscape:color="rgb(0,134,229)" /><sodipodi:guide
       position="1.0583335,0"
       orientation="-1,0"
       id="guide10"
       inkscape:locked="false"
       inkscape:label=""
       inkscape:color="rgb(0,134,229)" /><inkscape:grid
       id="grid10"
       units="px"
       originx="0"
       originy="0"
       spacingx="0.26458338"
       spacingy="0.26458338"
       empcolor="#0099e5"
       empopacity="0.30196078"
       color="#0099e5"
       opacity="0.14901961"
       empspacing="4"
       dotted="true"
       gridanglex="30"
       gridanglez="30"
       visible="true" /></sodipodi:namedview><defs
     id="defs1" /><g
     inkscape:label="layer1"
     inkscape:groupmode="layer"
     id="layer1"><g
       id="g10"
       style="fill:#000000"><path
         id="rect10"
         style="opacity:0;fill:#ffffff;fill-rule:evenodd;stroke-width:0.396875"
         d="M 0,0 H 16.933336 V 16.933336 H 0 Z"
         inkscape:label="clear-background"
         sodipodi:insensitive="true" /><g
         id="g11"
         transform="matrix(0.51851862,0,0,0.42010276,-0.31357881,2.7590456)"><path
           id="path9"
           style="fill:#ffffff;fill-rule:evenodd;stroke:none;stroke-width:0.351358"
           d="m 2.6458333,17.604093 v 5.9061 2.392619 0.08888 h 0.017053 c 0.0049,0.223507 0.047751,0.446675 0.1281576,0.668176 0.09696,0.250539 0.2418465,0.498183 0.4335653,0.74104 0.1917398,0.243037 0.4298852,0.480665 0.712618,0.711068 0.2825297,0.23041 0.6089229,0.453012 0.9766845,0.666109 0.3678577,0.212965 0.7761073,0.415882 1.2216309,0.607198 0.4456635,0.19135 0.9274819,0.370607 1.4417724,0.536402 0.5140285,0.165847 1.0592256,0.317817 1.631425,0.454752 0.5724784,0.136976 1.17052,0.258553 1.789555,0.363802 0.618883,0.10518 1.257163,0.193773 1.909961,0.2651 0.65271,0.07132 1.318274,0.125203 1.99161,0.161231 0.673485,0.03609 1.353039,0.05422 2.033467,0.05426 0.680429,-4.1e-5 1.359982,-0.01817 2.033468,-0.05426 0.673335,-0.03603 1.338899,-0.08991 1.99161,-0.161231 0.652798,-0.07133 1.291076,-0.15992 1.90996,-0.2651 0.619036,-0.105249 1.217078,-0.226826 1.789555,-0.363802 0.572201,-0.136935 1.117397,-0.288905 1.631425,-0.454752 0.514291,-0.165795 0.996108,-0.345052 1.441773,-0.536402 0.445523,-0.191316 0.853773,-0.394233 1.221631,-0.607198 0.367761,-0.213097 0.694154,-0.435699 0.976684,-0.666109 0.282733,-0.230403 0.520879,-0.468031 0.712618,-0.711068 0.19172,-0.242857 0.336611,-0.490501 0.433565,-0.74104 0.0804,-0.221501 0.123207,-0.444669 0.128158,-0.668176 h 0.01705 v -0.08888 -2.392619 -5.904549 c -6.24e-4,0.0015 -10e-4,0.0031 -0.0015,0.0047 -0.03861,0.09423 -0.08281,0.187463 -0.133325,0.279569 -0.05052,0.09211 -0.107039,0.183536 -0.168982,0.273368 -0.06194,0.08983 -0.129679,0.178204 -0.202572,0.265617 -0.07289,0.08741 -0.151249,0.173536 -0.234611,0.258382 -0.08336,0.08485 -0.171748,0.168497 -0.2651,0.250631 -0.09335,0.08213 -0.19144,0.163203 -0.294556,0.242879 -0.103115,0.07968 -0.210906,0.157969 -0.323494,0.235128 -0.112588,0.07716 -0.230147,0.152797 -0.351917,0.227376 -0.121766,0.07458 -0.248128,0.148202 -0.378788,0.220142 -0.261319,0.143877 -0.53996,0.282524 -0.835091,0.415478 -0.295131,0.132955 -0.606667,0.260345 -0.933276,0.381889 -0.326612,0.121544 -0.668315,0.236878 -1.024227,0.346232 -0.355915,0.109354 -0.726106,0.21272 -1.108976,0.309025 -0.382874,0.09631 -0.778488,0.1858 -1.185975,0.268201 -0.407483,0.0824 -0.826498,0.157673 -1.256254,0.225309 -0.429752,0.06764 -0.870137,0.127304 -1.319816,0.179318 -0.449676,0.05201 -0.908889,0.09624 -1.376143,0.131774 -0.467258,0.03553 -0.942748,0.06242 -1.425236,0.08062 -0.482491,0.0182 -0.971714,0.0279 -1.467094,0.0279 -0.495377,0 -0.985119,-0.0097 -1.467611,-0.0279 -0.482488,-0.0182 -0.957978,-0.04508 -1.425236,-0.08062 -0.467304,-0.03558 -0.926464,-0.07976 -1.376143,-0.131774 -0.449679,-0.05201 -0.890064,-0.111682 -1.319816,-0.179318 -0.429805,-0.06769 -0.84877,-0.142909 -1.256254,-0.225309 C 9.6813036,21.501811 9.2856879,21.412317 8.9028157,21.316011 8.5199435,21.219706 8.1497534,21.11634 7.7938395,21.006986 7.4379252,20.897632 7.0962236,20.782298 6.7696126,20.660754 6.4430016,20.53921 6.1314663,20.41182 5.8363362,20.278865 5.5412061,20.145911 5.2625634,20.007264 5.0012451,19.863387 4.8705858,19.791447 4.7442262,19.717824 4.6224568,19.643245 4.5006878,19.568666 4.3831284,19.493027 4.2705403,19.415869 4.1579526,19.33871 4.0501612,19.260417 3.9470459,19.180741 3.8439305,19.101065 3.7458415,19.019995 3.6524902,18.937862 3.5591389,18.855728 3.4707519,18.772077 3.3873901,18.687231 3.3040283,18.602385 3.2256716,18.516261 3.1527791,18.428849 3.0798866,18.341436 3.0121508,18.253064 2.9502075,18.163232 2.8882642,18.0734 2.8317398,17.981969 2.7812256,17.889864 c -0.050515,-0.09211 -0.09472,-0.185337 -0.1333252,-0.279569 -8.369e-4,-0.002 -0.00124,-0.0042 -0.00207,-0.0062 z" /><path
           id="path8"
           style="fill:#ffffff;fill-rule:evenodd"
           d="m 16.933847,9.8074154 c -0.490963,0 -0.97659,0.0093 -1.454692,0.02739 -0.4781,0.01813 -0.949,0.04478 -1.4118,0.0801 -0.462799,0.03532 -0.917132,0.07915 -1.36219,0.1307406 -0.44506,0.05159 -0.880984,0.111354 -1.305864,0.178284 -0.424878,0.06693 -0.839007,0.140868 -1.241268,0.222209 -0.4022598,0.08134 -0.7922352,0.169761 -1.1694374,0.264583 -0.3772022,0.09482 -0.7417012,0.196483 -1.0914063,0.303857 -0.3497049,0.107374 -0.6848211,0.220517 -1.0045898,0.339515 -0.3197687,0.118997 -0.6237387,0.243576 -0.9110555,0.373103 -0.2873168,0.129528 -0.5579502,0.264241 -0.8102864,0.403077 -0.1261682,0.06942 -0.2478867,0.139841 -0.3648357,0.211356 -0.1169488,0.07152 -0.2289999,0.144097 -0.3364135,0.217558 -0.1074136,0.07346 -0.2099126,0.147473 -0.3074748,0.222725 -0.097562,0.07525 -0.1906246,0.151518 -0.2780192,0.22841 -0.087395,0.07689 -0.1691332,0.154535 -0.2459798,0.232544 -0.076847,0.07801 -0.1487828,0.156592 -0.214974,0.235645 -0.066191,0.07905 -0.1269897,0.158721 -0.1824178,0.238745 -0.055428,0.08002 -0.1053042,0.160406 -0.1498616,0.241329 -0.044558,0.08092 -0.083726,0.162164 -0.1173055,0.243913 -0.033579,0.08175 -0.061739,0.163994 -0.084233,0.246496 -0.022494,0.0825 -0.039342,0.165381 -0.050643,0.248564 -0.011301,0.08318 -0.017053,0.166322 -0.017053,0.250114 0,0.05096 0.00615,0.1017 0.010335,0.152445 0.0027,0.03268 0.00229,0.0656 0.00672,0.09818 0.011301,0.08318 0.028149,0.166062 0.050643,0.248564 0.022494,0.0825 0.050653,0.164748 0.084233,0.246497 0.033579,0.08175 0.072748,0.16299 0.1173055,0.243912 0.044557,0.08092 0.094434,0.161305 0.1498616,0.241329 0.055428,0.08002 0.1162268,0.159693 0.1824178,0.238745 0.066191,0.07905 0.1381274,0.157636 0.214974,0.235645 0.076847,0.07801 0.1585852,0.155652 0.2459798,0.232544 0.087395,0.07689 0.180457,0.153103 0.2780192,0.22841 0.097562,0.07531 0.2000612,0.14969 0.3074748,0.223242 0.1074136,0.07355 0.2194647,0.145928 0.3364135,0.217558 0.116949,0.07163 0.2386675,0.142333 0.3648357,0.211873 0.2523362,0.13908 0.5229696,0.273882 0.8102864,0.403593 0.2873168,0.129711 0.5912868,0.254623 0.9110555,0.373621 0.3197687,0.118996 0.6548849,0.232193 1.0045898,0.339514 0.3497051,0.10732 0.7142041,0.20861 1.0914063,0.30334 0.3772022,0.09473 0.7671776,0.182841 1.1694374,0.264067 0.402261,0.08123 0.81639,0.1554 1.241268,0.222209 0.42488,0.06681 0.860804,0.12629 1.305864,0.177767 0.445058,0.05148 0.899391,0.09499 1.36219,0.130224 0.4628,0.03523 0.9337,0.06203 1.4118,0.0801 0.478102,0.01807 0.963729,0.02739 1.454692,0.02739 0.490964,0 0.976073,-0.0093 1.454175,-0.02739 0.4781,-0.01807 0.949,-0.04487 1.4118,-0.0801 0.462799,-0.03523 0.917131,-0.07875 1.362191,-0.130224 0.445058,-0.05148 0.880985,-0.110959 1.305863,-0.177767 0.42488,-0.06681 0.839007,-0.140983 1.241268,-0.222209 0.402261,-0.08123 0.792235,-0.169336 1.169438,-0.264067 0.377201,-0.09473 0.741701,-0.19602 1.091406,-0.30334 0.349705,-0.107321 0.684821,-0.220518 1.00459,-0.339514 0.319768,-0.118998 0.623739,-0.24391 0.911055,-0.373621 0.287317,-0.129711 0.55795,-0.264513 0.810287,-0.403593 0.126168,-0.06954 0.247886,-0.140243 0.364835,-0.211873 0.116949,-0.07163 0.229,-0.144006 0.336414,-0.217558 0.107414,-0.07355 0.21043,-0.147936 0.307991,-0.223242 0.09756,-0.07531 0.190108,-0.151518 0.277503,-0.22841 0.0874,-0.07689 0.169133,-0.154535 0.24598,-0.232544 0.07685,-0.07801 0.148783,-0.156592 0.214974,-0.235645 0.06619,-0.07905 0.12699,-0.158721 0.182417,-0.238745 0.05543,-0.08002 0.105305,-0.160406 0.149862,-0.241329 0.04456,-0.08092 0.08373,-0.162165 0.117306,-0.243912 0.03358,-0.08175 0.06174,-0.163995 0.08423,-0.246497 0.02249,-0.0825 0.03934,-0.16538 0.05064,-0.248564 0.0044,-0.03259 0.004,-0.0655 0.0067,-0.09818 0.0042,-0.05075 0.01034,-0.10148 0.01034,-0.152445 0,-0.08379 -0.0058,-0.166931 -0.01705,-0.250114 -0.0113,-0.08318 -0.02815,-0.166062 -0.05064,-0.248564 -0.02249,-0.0825 -0.05065,-0.164749 -0.08423,-0.246496 -0.03358,-0.08175 -0.07275,-0.162991 -0.117306,-0.243913 -0.04456,-0.08092 -0.09443,-0.161305 -0.149862,-0.241329 -0.05543,-0.08002 -0.116226,-0.159693 -0.182417,-0.238745 -0.06619,-0.07905 -0.138128,-0.157636 -0.214974,-0.235645 -0.07685,-0.07801 -0.158585,-0.155651 -0.24598,-0.232544 -0.08739,-0.07689 -0.17994,-0.153157 -0.277503,-0.22841 -0.09757,-0.07525 -0.200577,-0.149264 -0.307991,-0.222725 C 29.289747,12.485728 29.177696,12.413146 29.060747,12.34163 28.943798,12.27012 28.82208,12.199691 28.695912,12.130274 28.443575,11.991438 28.172942,11.856725 27.885625,11.727197 27.598309,11.59767 27.294338,11.473091 26.97457,11.354094 26.654801,11.235096 26.319685,11.121953 25.96998,11.014579 25.620275,10.907205 25.255775,10.805544 24.878574,10.710722 24.501371,10.615902 24.111397,10.527479 23.709136,10.446139 23.306875,10.364799 22.892748,10.29086 22.467868,10.22393 22.04299,10.157 21.607063,10.097237 21.162005,10.045646 c -0.44506,-0.05159 -0.899392,-0.09542 -1.362191,-0.1307406 -0.4628,-0.03532 -0.9337,-0.06197 -1.4118,-0.0801 -0.478102,-0.01813 -0.963211,-0.02739 -1.454175,-0.02739 z" /></g></g></g><metadata
     id="metadata10"><rdf:RDF><cc:Work
         rdf:about=""><dc:creator><cc:Agent><dc:title>mediapire llc</dc:title></cc:Agent></dc:creator><dc:rights><cc:Agent><dc:title>https://mediapire.com/assets/license</dc:title></cc:Agent></dc:rights></cc:Work></rdf:RDF></metadata></svg>
