<?xml version="1.0" encoding="UTF-8" standalone="no"?>
<!-- Created with Inkscape (http://www.inkscape.org/) -->

<svg
   width="64"
   height="64"
   viewBox="0 0 16.933336 16.933336"
   version="1.1"
   id="svg1"
   inkscape:version="1.3 (0e150ed6c4, 2023-07-21)"
   sodipodi:docname="w-burger.svg"
   xml:space="preserve"
   xmlns:inkscape="http://www.inkscape.org/namespaces/inkscape"
   xmlns:sodipodi="http://sodipodi.sourceforge.net/DTD/sodipodi-0.dtd"
   xmlns="http://www.w3.org/2000/svg"
   xmlns:svg="http://www.w3.org/2000/svg"
   xmlns:rdf="http://www.w3.org/1999/02/22-rdf-syntax-ns#"
   xmlns:cc="http://creativecommons.org/ns#"
   xmlns:dc="http://purl.org/dc/elements/1.1/"><sodipodi:namedview
     id="namedview1"
     pagecolor="#ffffff"
     bordercolor="#000000"
     borderopacity="0.25"
     inkscape:showpageshadow="2"
     inkscape:pageopacity="0.0"
     inkscape:pagecheckerboard="0"
     inkscape:deskcolor="#d1d1d1"
     inkscape:document-units="px"
     showgrid="true"
     inkscape:zoom="8.0000004"
     inkscape:cx="46.249998"
     inkscape:cy="28.687499"
     inkscape:window-width="2560"
     inkscape:window-height="947"
     inkscape:window-x="0"
     inkscape:window-y="1112"
     inkscape:window-maximized="1"
     inkscape:current-layer="g5"><sodipodi:guide
       position="8.4666681,15.875002"
       orientation="0,1"
       id="guide7"
       inkscape:locked="false"
       inkscape:label=""
       inkscape:color="rgb(0,134,229)" /><sodipodi:guide
       position="15.875003,8.4666679"
       orientation="-1,0"
       id="guide8"
       inkscape:locked="false"
       inkscape:label=""
       inkscape:color="rgb(0,134,229)" /><sodipodi:guide
       position="8.4666681,-2.5793457e-07"
       orientation="0,1"
       id="guide9"
       inkscape:locked="false"
       inkscape:label=""
       inkscape:color="rgb(0,134,229)" /><sodipodi:guide
       position="1.0583335,8.4666679"
       orientation="-1,0"
       id="guide10"
       inkscape:locked="false"
       inkscape:label=""
       inkscape:color="rgb(0,134,229)" /><inkscape:grid
       id="grid10"
       units="px"
       originx="0"
       originy="0"
       spacingx="0.26458338"
       spacingy="0.26458338"
       empcolor="#0099e5"
       empopacity="0.30196078"
       color="#0099e5"
       opacity="0.14901961"
       empspacing="4"
       dotted="true"
       gridanglex="30"
       gridanglez="30"
       visible="true" /></sodipodi:namedview><defs
     id="defs1" /><g
     inkscape:label="layer1"
     inkscape:groupmode="layer"
     id="layer1"><g
       id="g5"
       transform="matrix(1.074052,0,0,1.0740033,-0.07837166,-1.1748028)"
       style="fill:#000000"><path
         id="rect9"
         style="fill-rule:evenodd;stroke-width:0.485499;fill:#ffffff"
         d="M 7.7447905,4.9142855 C 5.9399042,4.933945 4.164481,5.3104346 2.4133294,5.984968 2.1570198,6.5589491 2.0873279,7.1471739 2.2699511,7.754263 c 0.8595253,0.2560243 1.7623201,0.2917292 2.7424716,-0.0696 1.123991,-0.42832 2.0622009,-0.2793816 2.9585014,0 0.9412458,0.3413117 1.9232165,0.3728837 2.9585019,0 0.747155,-0.1376139 1.531296,-0.2196709 2.489875,-0.038724 C 13.553704,7.1183826 13.528638,6.568797 13.252347,5.984968 11.384048,5.2317971 9.5496767,4.8946261 7.7447905,4.9142855 Z M 6.6030562,7.6846634 c -0.4326876,0.00382 -0.8886308,0.080542 -1.3803773,0.2679323 -1.0663146,0.3930923 -2.0415857,0.3198054 -2.9686053,0 -0.2141373,0.3446183 -0.4271489,0.6888342 0,0.8037968 0.8786685,0.2698291 1.7938114,0.4361334 2.9209729,0 0.9254515,-0.297741 1.9005985,-0.4127602 3.0196055,0 0.8757295,0.3040147 1.825521,0.407276 2.963794,0 0.866013,-0.123761 1.736244,-0.2272554 2.673669,0 0.455586,-0.2982289 0.17317,-0.5473808 0,-0.8037968 -1.05338,-0.2349298 -1.892728,-0.1472932 -2.692433,0 -1.035285,0.372884 -2.0172549,0.341312 -2.9585018,0 C 7.6770107,7.7954433 7.1593689,7.6797459 6.6030562,7.6846634 Z M 6.6179712,8.753776 C 6.05112,8.755526 5.5426768,8.8714718 5.0706399,9.0646193 4.2661865,9.3509923 3.5686185,9.3325589 2.9132289,9.1954456 c -0.289657,0.019997 -0.577469,0.038771 -0.8698928,0.060703 -0.4477174,0.5447391 -0.1836051,0.8210984 0,1.1277224 3.7285364,-0.4532255 7.7386876,-0.308201 11.8253459,0 0.291347,-0.34408 0.362978,-0.7122373 0,-1.1277224 C 13.040659,8.897703 12.071285,9.0200634 11.137276,9.0342676 10.011944,9.429408 9.0705789,9.3257355 8.2023502,9.0243248 8.1534176,9.0062753 8.1049567,8.9906706 8.0565662,8.9746108 7.5351691,8.8200534 7.0588557,8.7524111 6.6179712,8.753776 Z m 1.3847076,1.710685 c -1.8038615,-0.0088 -3.623806,0.03752 -5.4671412,0.164841 -0.4484908,0.519818 -0.1838269,1.349184 0,2.143458 3.8486878,0.39167 7.4193895,0.321357 10.8390184,0 0.267972,-1.082235 0.388737,-1.771018 0,-2.143458 C 11.59433,10.53722 9.8065405,10.473269 8.0026788,10.464461 Z" /></g></g><metadata
     id="metadata10"><rdf:RDF><cc:Work
         rdf:about=""><dc:creator><cc:Agent><dc:title>mediapire llc</dc:title></cc:Agent></dc:creator><dc:rights><cc:Agent><dc:title>https://mediapire.com/assets/license</dc:title></cc:Agent></dc:rights></cc:Work></rdf:RDF></metadata></svg>
