<?xml version="1.0" encoding="UTF-8" standalone="no"?>
<!-- Created with Inkscape (http://www.inkscape.org/) -->

<svg
   width="64"
   height="64"
   viewBox="0 0 16.933336 16.933336"
   version="1.1"
   id="svg1"
   inkscape:version="1.3 (0e150ed6c4, 2023-07-21)"
   sodipodi:docname="w-cheese.svg"
   xml:space="preserve"
   xmlns:inkscape="http://www.inkscape.org/namespaces/inkscape"
   xmlns:sodipodi="http://sodipodi.sourceforge.net/DTD/sodipodi-0.dtd"
   xmlns="http://www.w3.org/2000/svg"
   xmlns:svg="http://www.w3.org/2000/svg"
   xmlns:rdf="http://www.w3.org/1999/02/22-rdf-syntax-ns#"
   xmlns:cc="http://creativecommons.org/ns#"
   xmlns:dc="http://purl.org/dc/elements/1.1/"><sodipodi:namedview
     id="namedview1"
     pagecolor="#ffffff"
     bordercolor="#000000"
     borderopacity="0.25"
     inkscape:showpageshadow="2"
     inkscape:pageopacity="0.0"
     inkscape:pagecheckerboard="0"
     inkscape:deskcolor="#d1d1d1"
     inkscape:document-units="px"
     showgrid="true"
     inkscape:zoom="4.0000001"
     inkscape:cx="88.374998"
     inkscape:cy="67.374998"
     inkscape:window-width="2560"
     inkscape:window-height="947"
     inkscape:window-x="0"
     inkscape:window-y="1112"
     inkscape:window-maximized="1"
     inkscape:current-layer="g12"><sodipodi:guide
       position="8.4666681,15.875002"
       orientation="0,1"
       id="guide7"
       inkscape:locked="false"
       inkscape:label=""
       inkscape:color="rgb(0,134,229)" /><sodipodi:guide
       position="15.875003,8.4666679"
       orientation="-1,0"
       id="guide8"
       inkscape:locked="false"
       inkscape:label=""
       inkscape:color="rgb(0,134,229)" /><sodipodi:guide
       position="8.4666681,-2.5793457e-07"
       orientation="0,1"
       id="guide9"
       inkscape:locked="false"
       inkscape:label=""
       inkscape:color="rgb(0,134,229)" /><sodipodi:guide
       position="1.0583335,8.4666679"
       orientation="-1,0"
       id="guide10"
       inkscape:locked="false"
       inkscape:label=""
       inkscape:color="rgb(0,134,229)" /><inkscape:grid
       id="grid10"
       units="px"
       originx="0"
       originy="0"
       spacingx="0.26458338"
       spacingy="0.26458338"
       empcolor="#0099e5"
       empopacity="0.30196078"
       color="#0099e5"
       opacity="0.14901961"
       empspacing="4"
       dotted="true"
       gridanglex="30"
       gridanglez="30"
       visible="true" /></sodipodi:namedview><defs
     id="defs1" /><g
     inkscape:label="layer1"
     inkscape:groupmode="layer"
     id="layer1"><g
       id="g5"
       transform="matrix(1.074052,0,0,1.0740033,-0.07837166,-1.1748028)"><g
         id="g12"><path
           id="path2"
           style="fill:#ffffff;fill-rule:evenodd;stroke:none;stroke-width:0.461121"
           d="M 3.3694939,3.1343294 2.0436987,6.3580013 V 7.601266 a 0.72507583,0.85337831 0 0 1 0.7249106,0.8534498 0.72507583,0.85337831 0 0 1 -0.7249106,0.85345 v 6.5668372 l 2.1015993,-0.0032 a 0.60216734,0.7477641 0 0 1 0.5867713,-0.58897 0.60216734,0.7477641 0 0 1 0.5880544,0.587377 L 12.533732,15.86009 13.868082,12.611989 6.7532655,6.189117 A 0.69873566,0.86768148 0 0 1 6.2101171,6.5136086 0.69873566,0.86768148 0 0 1 5.5112947,5.6458194 0.69873566,0.86768148 0 0 1 5.6259119,5.1710316 Z m -0.00599,1.7477932 v 8.4293444 l 8.9777751,-0.271914 -8.9777725,0.543829 -0.8758803,1.35957 0.6569102,-1.631485 z M 5.4073695,8.6889233 A 1.1495923,1.42755 0 0 1 6.5569623,10.116474 1.1495923,1.42755 0 0 1 5.4073695,11.544023 1.1495923,1.42755 0 0 1 4.2577768,10.116474 1.1495923,1.42755 0 0 1 5.4073695,8.6889233 Z m 0.037635,0.1752574 c -0.3949881,8.671e-4 -0.7390099,0.27601 -0.858345,0.6866898 0.8169877,-0.097118 1.3455607,0.00125 1.4985763,1.1381105 C 6.3843569,10.414841 6.4878475,9.9572554 6.3439797,9.5471529 6.2001116,9.1370516 5.8399935,8.8633135 5.4450045,8.8641807 Z m 3.3333063,1.112087 A 0.69873566,0.86768148 0 0 1 9.4771332,10.843526 0.69873566,0.86768148 0 0 1 8.7783108,11.711315 0.69873566,0.86768148 0 0 1 8.0794884,10.843526 0.69873566,0.86768148 0 0 1 8.7783108,9.9762677 Z m 0.023522,0.1024993 c -0.2038785,3.23e-4 -0.3876735,0.125109 -0.475148,0.330334 0.498338,0.02792 0.8095486,0.142467 0.8237038,0.842827 0.1988103,-0.133364 0.2924087,-0.397588 0.2339386,-0.659605 -0.05847,-0.262015 -0.2561938,-0.46489 -0.4939656,-0.506122 -0.029722,-0.0051 -0.059404,-0.0075 -0.088529,-0.0074 z m 0.9665477,3.572593 a 0.60216734,0.7477641 0 0 1 0.6021675,0.747764 0.60216734,0.7477641 0 0 1 -0.6021675,0.747765 0.60216734,0.7477641 0 0 1 -0.602168,-0.747765 0.60216734,0.7477641 0 0 1 0.602168,-0.747764 z" /></g></g></g><metadata
     id="metadata10"><rdf:RDF><cc:Work
         rdf:about=""><dc:creator><cc:Agent><dc:title>mediapire llc</dc:title></cc:Agent></dc:creator><dc:rights><cc:Agent><dc:title>https://mediapire.com/assets/license</dc:title></cc:Agent></dc:rights></cc:Work></rdf:RDF></metadata></svg>
