<?xml version="1.0" encoding="UTF-8" standalone="no"?>
<!-- Created with Inkscape (http://www.inkscape.org/) -->

<svg
   width="64"
   height="64"
   viewBox="0 0 16.933336 16.933336"
   version="1.1"
   id="svg1"
   inkscape:version="1.3 (0e150ed6c4, 2023-07-21)"
   sodipodi:docname="w-copy.svg"
   xml:space="preserve"
   xmlns:inkscape="http://www.inkscape.org/namespaces/inkscape"
   xmlns:sodipodi="http://sodipodi.sourceforge.net/DTD/sodipodi-0.dtd"
   xmlns="http://www.w3.org/2000/svg"
   xmlns:svg="http://www.w3.org/2000/svg"
   xmlns:rdf="http://www.w3.org/1999/02/22-rdf-syntax-ns#"
   xmlns:cc="http://creativecommons.org/ns#"
   xmlns:dc="http://purl.org/dc/elements/1.1/"><sodipodi:namedview
     id="namedview1"
     pagecolor="#ffffff"
     bordercolor="#000000"
     borderopacity="0.25"
     inkscape:showpageshadow="2"
     inkscape:pageopacity="0.0"
     inkscape:pagecheckerboard="0"
     inkscape:deskcolor="#d1d1d1"
     inkscape:document-units="px"
     showgrid="true"
     inkscape:zoom="4"
     inkscape:cx="18"
     inkscape:cy="46.875"
     inkscape:window-width="2560"
     inkscape:window-height="947"
     inkscape:window-x="0"
     inkscape:window-y="1112"
     inkscape:window-maximized="1"
     inkscape:current-layer="g12"><sodipodi:guide
       position="0,15.875003"
       orientation="0,1"
       id="guide7"
       inkscape:locked="false"
       inkscape:label=""
       inkscape:color="rgb(0,134,229)" /><sodipodi:guide
       position="15.875003,16.933336"
       orientation="-1,0"
       id="guide8"
       inkscape:locked="false"
       inkscape:label=""
       inkscape:color="rgb(0,134,229)" /><sodipodi:guide
       position="16.933336,1.0583335"
       orientation="0,1"
       id="guide9"
       inkscape:locked="false"
       inkscape:label=""
       inkscape:color="rgb(0,134,229)" /><sodipodi:guide
       position="1.0583335,0"
       orientation="-1,0"
       id="guide10"
       inkscape:locked="false"
       inkscape:label=""
       inkscape:color="rgb(0,134,229)" /><inkscape:grid
       id="grid10"
       units="px"
       originx="0"
       originy="0"
       spacingx="0.26458338"
       spacingy="0.26458338"
       empcolor="#0099e5"
       empopacity="0.30196078"
       color="#0099e5"
       opacity="0.14901961"
       empspacing="4"
       dotted="true"
       gridanglex="30"
       gridanglez="30"
       visible="true" /></sodipodi:namedview><defs
     id="defs1" /><g
     inkscape:label="layer1"
     inkscape:groupmode="layer"
     id="layer1"><g
       id="g5"
       transform="matrix(1.074052,0,0,1.0740033,-0.07837166,-1.1748028)"><g
         id="g12"><g
           id="g17"
           transform="matrix(1.2474409,0,0,1.1415915,-2.2913107,-1.396267)"
           style="fill:#ffffff"><rect
             style="fill:#ffffff;fill-rule:evenodd;stroke-width:0.465537"
             id="rect17"
             width="6.3522677"
             height="8.8686895"
             x="2.6852126"
             y="6.260426"
             ry="1.4529129" /><path
             d="m 8.8445448,3.0444636 c -0.05031,0 -0.10019,0.00276 -0.149152,0.0077 -0.04896,0.00494 -0.09697,0.012007 -0.14434,0.021652 -0.04738,0.00965 -0.09398,0.021497 -0.139529,0.035606 -0.04555,0.014108 -0.09027,0.030746 -0.133756,0.049078 -0.04348,0.018332 -0.08584,0.038311 -0.12702,0.060626 -0.04118,0.022315 -0.08117,0.046596 -0.119803,0.072655 -0.03864,0.026059 -0.07577,0.054159 -0.111623,0.083721 -0.03585,0.029563 -0.07014,0.060518 -0.102963,0.093345 -0.03283,0.032827 -0.06426,0.067598 -0.09382,0.1034488 -0.02956,0.035851 -0.05766,0.072993 -0.08372,0.1116284 -0.02606,0.038635 -0.05034,0.078628 -0.07265,0.1198082 -0.02232,0.04118 -0.04229,0.08354 -0.06062,0.1270255 -0.01833,0.043485 -0.03497,0.088211 -0.04908,0.1337617 -0.01411,0.04555 -0.02596,0.09216 -0.0356,0.1395355 -0.0096,0.047376 -0.01671,0.095386 -0.02165,0.1443472 -0.0049,0.048961 -0.0077,0.098852 -0.0077,0.1491587 v 1.5031355 h 0.517702 c 0.05031,0 0.10019,0.0028 0.149152,0.0077 0.04896,0.0049 0.09696,0.01201 0.14434,0.02165 0.04738,0.0097 0.09398,0.0215 0.13953,0.03561 0.04555,0.01411 0.09027,0.03075 0.133755,0.04908 0.04349,0.01833 0.08584,0.03831 0.12702,0.06063 0.04118,0.02231 0.08117,0.0466 0.119803,0.07265 0.03864,0.02606 0.07577,0.05416 0.111623,0.08372 0.03585,0.02956 0.07014,0.06052 0.102963,0.09334 0.03283,0.03283 0.06426,0.0676 0.09382,0.103448 0.02956,0.03585 0.05766,0.07299 0.08372,0.111629 0.02606,0.03864 0.05034,0.07863 0.07265,0.119808 0.02232,0.04118 0.04229,0.08354 0.06062,0.127026 0.01833,0.04349 0.03497,0.08821 0.04908,0.133761 0.01411,0.04555 0.02596,0.09216 0.0356,0.139536 0.0097,0.04738 0.01671,0.09539 0.02165,0.144347 0.0049,0.04896 0.0077,0.09885 0.0077,0.149159 v 4.4593639 h 2.9286702 c 0.05031,0 0.10019,-0.0028 0.149152,-0.0077 0.04896,-0.0049 0.09696,-0.01201 0.14434,-0.02165 0.04738,-0.0096 0.09398,-0.0215 0.139529,-0.03561 0.04555,-0.01411 0.09027,-0.03075 0.133756,-0.04908 0.04348,-0.01833 0.08584,-0.03831 0.12702,-0.06063 0.04118,-0.02232 0.08117,-0.0466 0.119802,-0.07266 0.03864,-0.02606 0.07577,-0.05416 0.111624,-0.08372 0.03585,-0.02956 0.07014,-0.06052 0.102963,-0.09335 0.03283,-0.03283 0.06426,-0.0676 0.09382,-0.103448 0.02956,-0.03585 0.05718,-0.07299 0.08324,-0.111629 0.02606,-0.03864 0.05034,-0.07863 0.07265,-0.119808 0.02232,-0.04118 0.04277,-0.08354 0.0611,-0.127025 0.01833,-0.04349 0.03449,-0.08821 0.0486,-0.133762 0.01411,-0.04555 0.02644,-0.09216 0.03608,-0.139536 0.0096,-0.04737 0.01671,-0.09539 0.02165,-0.144347 0.0049,-0.04896 0.0077,-0.09885 0.0077,-0.149159 V 4.4975583 c 0,-0.050307 -0.0028,-0.1001974 -0.0077,-0.1491587 -0.0049,-0.048961 -0.01201,-0.096971 -0.02165,-0.1443472 -0.0096,-0.047376 -0.02198,-0.093985 -0.03608,-0.1395355 -0.01411,-0.04555 -0.03026,-0.090277 -0.0486,-0.1337617 -0.01833,-0.043485 -0.03879,-0.085845 -0.0611,-0.1270255 -0.02231,-0.04118 -0.04659,-0.081173 -0.07265,-0.1198082 -0.02606,-0.038635 -0.05367,-0.075777 -0.08324,-0.1116284 -0.02956,-0.035851 -0.06099,-0.070622 -0.09382,-0.1034488 -0.03283,-0.032827 -0.06711,-0.063782 -0.102963,-0.093345 -0.03585,-0.029563 -0.07299,-0.057663 -0.111624,-0.083721 -0.03864,-0.026059 -0.07862,-0.05034 -0.119802,-0.072655 -0.04118,-0.022315 -0.08354,-0.042294 -0.12702,-0.060626 -0.04349,-0.018332 -0.08821,-0.03497 -0.133756,-0.049078 -0.04555,-0.014108 -0.09215,-0.02596 -0.139529,-0.035606 -0.04738,-0.00965 -0.09538,-0.016709 -0.14434,-0.021652 -0.04896,-0.00494 -0.09884,-0.0077 -0.149152,-0.0077 z"
             style="fill-rule:evenodd;stroke-width:0.465537;fill:#ffffff"
             id="path17" /></g></g></g></g><metadata
     id="metadata10"><rdf:RDF><cc:Work
         rdf:about=""><dc:creator><cc:Agent><dc:title>mediapire llc</dc:title></cc:Agent></dc:creator><dc:rights><cc:Agent><dc:title>https://mediapire.com/assets/license</dc:title></cc:Agent></dc:rights></cc:Work></rdf:RDF></metadata></svg>
