<?xml version="1.0" encoding="UTF-8" standalone="no"?>
<!-- Created with Inkscape (http://www.inkscape.org/) -->

<svg
   width="64"
   height="64"
   viewBox="0 0 16.933336 16.933336"
   version="1.1"
   id="svg1"
   inkscape:version="1.3 (0e150ed6c4, 2023-07-21)"
   sodipodi:docname="w-floppy-disk.svg"
   xml:space="preserve"
   xmlns:inkscape="http://www.inkscape.org/namespaces/inkscape"
   xmlns:sodipodi="http://sodipodi.sourceforge.net/DTD/sodipodi-0.dtd"
   xmlns="http://www.w3.org/2000/svg"
   xmlns:svg="http://www.w3.org/2000/svg"
   xmlns:rdf="http://www.w3.org/1999/02/22-rdf-syntax-ns#"
   xmlns:cc="http://creativecommons.org/ns#"
   xmlns:dc="http://purl.org/dc/elements/1.1/"><sodipodi:namedview
     id="namedview1"
     pagecolor="#ffffff"
     bordercolor="#000000"
     borderopacity="0.25"
     inkscape:showpageshadow="2"
     inkscape:pageopacity="0.0"
     inkscape:pagecheckerboard="0"
     inkscape:deskcolor="#d1d1d1"
     inkscape:document-units="px"
     showgrid="true"
     inkscape:zoom="8.0000004"
     inkscape:cx="34.999998"
     inkscape:cy="40.437498"
     inkscape:window-width="2560"
     inkscape:window-height="947"
     inkscape:window-x="0"
     inkscape:window-y="1112"
     inkscape:window-maximized="1"
     inkscape:current-layer="g5"><sodipodi:guide
       position="8.4666681,15.875002"
       orientation="0,1"
       id="guide7"
       inkscape:locked="false"
       inkscape:label=""
       inkscape:color="rgb(0,134,229)" /><sodipodi:guide
       position="15.875003,8.4666679"
       orientation="-1,0"
       id="guide8"
       inkscape:locked="false"
       inkscape:label=""
       inkscape:color="rgb(0,134,229)" /><sodipodi:guide
       position="8.4666681,-2.5793457e-07"
       orientation="0,1"
       id="guide9"
       inkscape:locked="false"
       inkscape:label=""
       inkscape:color="rgb(0,134,229)" /><sodipodi:guide
       position="1.0583335,8.4666679"
       orientation="-1,0"
       id="guide10"
       inkscape:locked="false"
       inkscape:label=""
       inkscape:color="rgb(0,134,229)" /><inkscape:grid
       id="grid10"
       units="px"
       originx="0"
       originy="0"
       spacingx="0.26458338"
       spacingy="0.26458338"
       empcolor="#0099e5"
       empopacity="0.30196078"
       color="#0099e5"
       opacity="0.14901961"
       empspacing="4"
       dotted="true"
       gridanglex="30"
       gridanglez="30"
       visible="true" /></sodipodi:namedview><defs
     id="defs1" /><g
     inkscape:label="layer1"
     inkscape:groupmode="layer"
     id="layer1"><g
       id="g5"
       transform="matrix(1.074052,0,0,1.0740033,-0.07837166,-1.1748028)"
       style="fill:#000000"><path
         id="rect14"
         style="fill:#ffffff;fill-rule:evenodd;stroke-width:0.537083"
         d="m 2.3686879,3.0646738 c -0.1801717,0 -0.3249892,0.1452738 -0.3249892,0.3259947 V 15.654277 c 0,0.180721 0.1448175,0.325995 0.3249892,0.325995 h 2.2512272 c -0.029907,-0.03301 -0.048362,-0.07684 -0.048362,-0.125159 v -2.790844 c 0,-0.103084 0.082454,-0.186282 0.1852245,-0.186282 h 3.92792 2.5312394 c 0.102772,0 0.185226,0.0832 0.185226,0.186282 v 2.790844 c 0,0.04832 -0.01846,0.09215 -0.04836,0.125159 h 2.190291 c 0.180173,0 0.32499,-0.145274 0.32499,-0.325995 V 3.3906685 c 0,-0.1807209 -0.144817,-0.3259947 -0.32499,-0.3259947 z M 7.9863582,6.466758 A 2.7237194,2.5591828 0 0 1 10.710077,9.025719 2.7237194,2.5591828 0 0 1 7.9863582,11.58468 2.7237194,2.5591828 0 0 1 5.2626392,9.025719 2.7237194,2.5591828 0 0 1 7.9863582,6.466758 Z m 0.8796954,0.8319654 c -0.063258,0.00213 -0.1258061,0.028819 -0.1726505,0.079073 -0.093689,0.1005072 -0.088107,0.2567562 0.01209,0.3507353 l 0.3617438,0.3395777 c 0.1001978,0.093979 0.2559648,0.088379 0.3496536,-0.012128 0.093689,-0.1005072 0.088591,-0.2567563 -0.011607,-0.3507353 L 9.0435402,7.3656688 C 8.9934415,7.3186794 8.9293119,7.2965935 8.8660536,7.2987234 Z M 7.7387474,8.5289653 c -0.1371823,0 -0.2476108,0.1107767 -0.2476108,0.2483768 v 0.4967538 c 0,0.1376003 0.1104285,0.2483769 0.2476108,0.2483769 H 8.233969 c 0.1371821,0 0.2476108,-0.1107766 0.2476108,-0.2483769 V 8.7773421 c 0,-0.1376001 -0.1104287,-0.2483768 -0.2476108,-0.2483768 z M 5.0034216,13.044379 c -0.091952,0 -0.1658798,0.07465 -0.1658798,0.166879 v 2.496867 c 0,0.09223 0.073927,0.166878 0.1658798,0.166878 h 5.9653894 c 0.09195,0 0.166363,-0.07465 0.166363,-0.166878 v -2.496867 c 0,-0.09223 -0.07441,-0.166879 -0.166363,-0.166879 z M 9.107861,13.37765 h 1.073141 c 0.118886,0 0.214725,0.09566 0.214725,0.214905 v 1.733787 c 0,0.119248 -0.09584,0.21539 -0.214725,0.21539 H 9.107861 c -0.1188859,0 -0.214725,-0.09614 -0.214725,-0.21539 v -1.733787 c 0,-0.119249 0.09584,-0.214905 0.214725,-0.214905 z" /></g></g><metadata
     id="metadata10"><rdf:RDF><cc:Work
         rdf:about=""><dc:creator><cc:Agent><dc:title>mediapire llc</dc:title></cc:Agent></dc:creator><dc:rights><cc:Agent><dc:title>https://mediapire.com/assets/license</dc:title></cc:Agent></dc:rights></cc:Work></rdf:RDF></metadata></svg>
