<?xml version="1.0" encoding="UTF-8" standalone="no"?>
<!-- Created with Inkscape (http://www.inkscape.org/) -->

<svg
   width="64"
   height="64"
   viewBox="0 0 16.933336 16.933336"
   version="1.1"
   id="svg1"
   inkscape:version="1.3 (0e150ed6c4, 2023-07-21)"
   sodipodi:docname="w-handgun.svg"
   xml:space="preserve"
   xmlns:inkscape="http://www.inkscape.org/namespaces/inkscape"
   xmlns:sodipodi="http://sodipodi.sourceforge.net/DTD/sodipodi-0.dtd"
   xmlns="http://www.w3.org/2000/svg"
   xmlns:svg="http://www.w3.org/2000/svg"
   xmlns:rdf="http://www.w3.org/1999/02/22-rdf-syntax-ns#"
   xmlns:cc="http://creativecommons.org/ns#"
   xmlns:dc="http://purl.org/dc/elements/1.1/"><sodipodi:namedview
     id="namedview1"
     pagecolor="#ffffff"
     bordercolor="#000000"
     borderopacity="0.25"
     inkscape:showpageshadow="2"
     inkscape:pageopacity="0.0"
     inkscape:pagecheckerboard="0"
     inkscape:deskcolor="#d1d1d1"
     inkscape:document-units="px"
     showgrid="true"
     inkscape:zoom="8.0000001"
     inkscape:cx="46"
     inkscape:cy="36.0625"
     inkscape:window-width="2560"
     inkscape:window-height="947"
     inkscape:window-x="0"
     inkscape:window-y="1112"
     inkscape:window-maximized="1"
     inkscape:current-layer="g12"><sodipodi:guide
       position="0,15.875003"
       orientation="0,1"
       id="guide7"
       inkscape:locked="false"
       inkscape:label=""
       inkscape:color="rgb(0,134,229)" /><sodipodi:guide
       position="15.875003,16.933336"
       orientation="-1,0"
       id="guide8"
       inkscape:locked="false"
       inkscape:label=""
       inkscape:color="rgb(0,134,229)" /><sodipodi:guide
       position="5.2916676,1.0583335"
       orientation="0,1"
       id="guide9"
       inkscape:locked="false"
       inkscape:label=""
       inkscape:color="rgb(0,134,229)" /><sodipodi:guide
       position="1.0583335,0"
       orientation="-1,0"
       id="guide10"
       inkscape:locked="false"
       inkscape:label=""
       inkscape:color="rgb(0,134,229)" /><inkscape:grid
       id="grid10"
       units="px"
       originx="0"
       originy="0"
       spacingx="0.26458338"
       spacingy="0.26458338"
       empcolor="#0099e5"
       empopacity="0.30196078"
       color="#0099e5"
       opacity="0.14901961"
       empspacing="4"
       dotted="true"
       gridanglex="30"
       gridanglez="30"
       visible="true" /></sodipodi:namedview><defs
     id="defs1" /><g
     inkscape:label="layer1"
     inkscape:groupmode="layer"
     id="layer1"><g
       id="g5"
       transform="matrix(1.074052,0,0,1.0740033,-0.07837166,-1.1748028)"><g
         id="g12"><path
           id="rect10"
           style="fill-rule:evenodd;stroke-width:0.455735;fill:#ffffff"
           d="m 1.5510161,5.0354937 v 2.4635248 l 0.4926826,0.492705 11.3317003,-1e-7 V 5.0354937 Z M 4.5071118,5.2818461 H 7.9558901 V 6.267256 H 4.5071118 Z m -1.8112224,1.97082 H 12.06985 l 0.007,0.2463523 H 2.7028541 Z"
           sodipodi:nodetypes="cccccccccccccccc" /><path
           id="rect11"
           style="fill-rule:evenodd;stroke-width:0.465537;fill:#ffffff"
           d="m 8.2221987,8.1245849 c -0.096523,0 -0.174171,0.077655 -0.174171,0.1741789 V 9.8095974 H 5.5745108 c -0.096523,0 -0.174171,0.077655 -0.174171,0.1741789 v 0.6370527 c 0,0.09652 0.077647,0.174179 0.174171,0.174179 h 3.2847111 c 0.096524,0 0.174171,-0.07766 0.174171,-0.174179 V 9.9837763 c 0,-0.010576 -0.0011,-0.020748 -0.00289,-0.030794 0.00189,-0.010328 0.00289,-0.020865 0.00289,-0.031756 V 8.2987638 c 0,-0.096523 -0.077647,-0.1741789 -0.174171,-0.1741789 z" /><path
           id="rect13"
           style="fill-rule:evenodd;stroke-width:0.484406;fill:#ffffff"
           d="m 2.0436987,8.2380762 h 3.1672454 l 1e-7,3.9416398 0.5278742,1.037274 H 2.0436987 Z"
           sodipodi:nodetypes="cccccc" /><rect
           style="fill:#ffffff;fill-rule:evenodd;stroke-width:0.451637"
           id="rect14"
           width="4.1878023"
           height="0.53459609"
           x="9.433938"
           y="8.2171307"
           ry="0" /><path
           id="rect15"
           style="fill-rule:evenodd;stroke-width:0.362261;fill:#ffffff"
           d="m 12.40122,4.038897 h 0.957248 c 0.0062,0 0.01119,0.00499 0.01119,0.011187 v 0.7278707 c 0,0.0062 -0.005,0.011187 -0.01119,0.011187 H 12.40122 c -0.0062,0 -0.01466,-0.00606 -0.01119,-0.011187 l 0.492686,-0.7278709 c 0.0035,-0.00513 -0.487686,-0.011187 -0.481496,-0.011187 z"
           sodipodi:nodetypes="csssssssc" /><rect
           style="fill:#ffffff;fill-rule:evenodd;stroke-width:0.537556"
           id="rect16"
           width="0.98536509"
           height="1.4781148"
           x="13.62174"
           y="5.5281987"
           ry="0" /><path
           id="rect15-9"
           style="fill-rule:evenodd;stroke-width:0.530794;fill:#ffffff"
           d="m 2.1668694,3.8037312 0.8621946,10e-8 0.7390241,0.9854098 H 2.1668694 Z"
           sodipodi:nodetypes="ccccc" /><path
           style="fill:#ffffff;fill-rule:evenodd;stroke-width:0.465537"
           d="M 5.4924771,9.4698384 V 8.238076 c 0.3437972,0.6748023 0.894719,1.1583151 1.7243892,1.2317628 L 6.376431,9.7161909 Z"
           id="path16"
           sodipodi:nodetypes="ccccc" /><rect
           style="fill:#ffffff;fill-rule:evenodd;stroke-width:0.63034"
           id="rect17"
           width="2.7097545"
           height="0.9854092"
           x="2.29004"
           y="13.411479" /></g></g></g><metadata
     id="metadata10"><rdf:RDF><cc:Work
         rdf:about=""><dc:creator><cc:Agent><dc:title>mediapire llc</dc:title></cc:Agent></dc:creator><dc:rights><cc:Agent><dc:title>https://mediapire.com/assets/license</dc:title></cc:Agent></dc:rights></cc:Work></rdf:RDF></metadata></svg>
