<?xml version="1.0" encoding="UTF-8" standalone="no"?>
<!-- Created with Inkscape (http://www.inkscape.org/) -->

<svg
   width="64"
   height="64"
   viewBox="0 0 16.933336 16.933336"
   version="1.1"
   id="svg1"
   inkscape:version="1.3 (0e150ed6c4, 2023-07-21)"
   sodipodi:docname="w-moon.svg"
   xml:space="preserve"
   xmlns:inkscape="http://www.inkscape.org/namespaces/inkscape"
   xmlns:sodipodi="http://sodipodi.sourceforge.net/DTD/sodipodi-0.dtd"
   xmlns="http://www.w3.org/2000/svg"
   xmlns:svg="http://www.w3.org/2000/svg"
   xmlns:rdf="http://www.w3.org/1999/02/22-rdf-syntax-ns#"
   xmlns:cc="http://creativecommons.org/ns#"
   xmlns:dc="http://purl.org/dc/elements/1.1/"><sodipodi:namedview
     id="namedview1"
     pagecolor="#ffffff"
     bordercolor="#000000"
     borderopacity="0.25"
     inkscape:showpageshadow="2"
     inkscape:pageopacity="0.0"
     inkscape:pagecheckerboard="0"
     inkscape:deskcolor="#d1d1d1"
     inkscape:document-units="px"
     showgrid="true"
     inkscape:zoom="8"
     inkscape:cx="48.9375"
     inkscape:cy="35.1875"
     inkscape:window-width="2560"
     inkscape:window-height="947"
     inkscape:window-x="0"
     inkscape:window-y="1112"
     inkscape:window-maximized="1"
     inkscape:current-layer="g10"><sodipodi:guide
       position="0,15.875003"
       orientation="0,1"
       id="guide7"
       inkscape:locked="false"
       inkscape:label=""
       inkscape:color="rgb(0,134,229)" /><sodipodi:guide
       position="15.875003,16.933336"
       orientation="-1,0"
       id="guide8"
       inkscape:locked="false"
       inkscape:label=""
       inkscape:color="rgb(0,134,229)" /><sodipodi:guide
       position="16.933336,1.0583335"
       orientation="0,1"
       id="guide9"
       inkscape:locked="false"
       inkscape:label=""
       inkscape:color="rgb(0,134,229)" /><sodipodi:guide
       position="1.0583335,0"
       orientation="-1,0"
       id="guide10"
       inkscape:locked="false"
       inkscape:label=""
       inkscape:color="rgb(0,134,229)" /><inkscape:grid
       id="grid10"
       units="px"
       originx="0"
       originy="0"
       spacingx="0.26458338"
       spacingy="0.26458338"
       empcolor="#0099e5"
       empopacity="0.30196078"
       color="#0099e5"
       opacity="0.14901961"
       empspacing="4"
       dotted="true"
       gridanglex="30"
       gridanglez="30"
       visible="true" /></sodipodi:namedview><defs
     id="defs1" /><g
     inkscape:label="layer1"
     inkscape:groupmode="layer"
     id="layer1"><g
       id="g10"><path
         id="rect10"
         style="opacity:0.5;fill-rule:evenodd;stroke-width:0.396875;fill:none"
         d="M 0,0 H 16.933336 V 16.933336 H 0 Z"
         inkscape:label="clear-background" /><path
         d="M 5.2021832,1.9876874 A 8.2874848,7.4421367 0 0 0 4.1304099,2.6490353 8.2874848,7.4421367 0 0 0 3.1870183,3.4530015 8.2874848,7.4421367 0 0 0 2.39537,4.3793931 8.2874848,7.4421367 0 0 0 1.7749087,5.4056963 8.2874848,7.4421367 0 0 0 1.3408656,6.506609 8.2874848,7.4421367 0 0 0 1.103776,7.6549125 8.2874848,7.4421367 0 0 0 1.069669,8.8223034 a 8.2874848,7.4421367 0 0 0 0.169777,1.1577273 8.2874848,7.4421367 0 0 0 0.369357,1.1198363 8.2874848,7.4421367 0 0 0 0.5599479,1.053969 8.2874848,7.4421367 0 0 0 0.7364704,0.96245 8.2874848,7.4421367 0 0 0 0.8952884,0.847162 8.2874848,7.4421367 0 0 0 1.0316199,0.710898 8.2874848,7.4421367 0 0 0 1.1428804,0.557172 8.2874848,7.4421367 0 0 0 1.2259647,0.38977 8.2874848,7.4421367 0 0 0 1.2787391,0.212906 8.2874848,7.4421367 0 0 0 1.2999937,0.03063 8.2874848,7.4421367 0 0 0 1.2892325,-0.15246 8.2874848,7.4421367 0 0 0 1.247039,-0.331681 8.2874848,7.4421367 0 0 0 1.173688,-0.502832 8.2874848,7.4421367 0 0 0 1.071774,-0.661347 8.2874848,7.4421367 0 0 0 0.943391,-0.803967 8.2874848,7.4421367 0 0 0 0.370171,-0.433112 8.2874848,7.4421367 0 0 1 -0.686457,0.08114 8.2874848,7.4421367 0 0 1 -1.299994,-0.03063 A 8.2874848,7.4421367 0 0 1 12.609813,12.817027 8.2874848,7.4421367 0 0 1 11.383849,12.427258 8.2874848,7.4421367 0 0 1 10.240968,11.870085 8.2874848,7.4421367 0 0 1 9.2093487,11.159188 8.2874848,7.4421367 0 0 1 8.3140609,10.312025 8.2874848,7.4421367 0 0 1 7.5775902,9.3495747 8.2874848,7.4421367 0 0 1 7.0176416,8.2956065 8.2874848,7.4421367 0 0 1 6.6482849,7.1757702 8.2874848,7.4421367 0 0 1 6.4785081,6.0180424 8.2874848,7.4421367 0 0 1 6.5126152,4.8506519 8.2874848,7.4421367 0 0 1 6.7497054,3.7023485 8.2874848,7.4421367 0 0 1 7.183749,2.6014354 8.2874848,7.4421367 0 0 1 7.80421,1.5751323 8.2874848,7.4421367 0 0 1 8.2458717,1.0583335 8.2874848,7.4421367 0 0 0 8.1531933,1.0681527 8.2874848,7.4421367 0 0 0 7.7107232,1.1368634 8.2874848,7.4421367 0 0 0 7.2734496,1.2271222 8.2874848,7.4421367 0 0 0 6.8420095,1.3382911 8.2874848,7.4421367 0 0 0 6.417886,1.4705313 8.2874848,7.4421367 0 0 0 6.0023786,1.6231701 8.2874848,7.4421367 0 0 0 5.5969337,1.795768 8.2874848,7.4421367 0 0 0 5.2021814,1.9876874 Z"
         style="fill-rule:evenodd;stroke-width:0.140716;fill:#ffffff"
         id="path5" /></g></g><metadata
     id="metadata10"><rdf:RDF><cc:Work
         rdf:about=""><dc:creator><cc:Agent><dc:title>mediapire llc</dc:title></cc:Agent></dc:creator><dc:rights><cc:Agent><dc:title>https://mediapire.com/assets/license</dc:title></cc:Agent></dc:rights></cc:Work></rdf:RDF></metadata></svg>
