<?xml version="1.0" encoding="UTF-8" standalone="no"?>
<!-- Created with Inkscape (http://www.inkscape.org/) -->

<svg
   width="64"
   height="64"
   viewBox="0 0 16.933336 16.933336"
   version="1.1"
   id="svg1"
   inkscape:version="1.3 (0e150ed6c4, 2023-07-21)"
   sodipodi:docname="w-paper-hand-game.svg"
   xml:space="preserve"
   xmlns:inkscape="http://www.inkscape.org/namespaces/inkscape"
   xmlns:sodipodi="http://sodipodi.sourceforge.net/DTD/sodipodi-0.dtd"
   xmlns="http://www.w3.org/2000/svg"
   xmlns:svg="http://www.w3.org/2000/svg"
   xmlns:rdf="http://www.w3.org/1999/02/22-rdf-syntax-ns#"
   xmlns:cc="http://creativecommons.org/ns#"
   xmlns:dc="http://purl.org/dc/elements/1.1/"><sodipodi:namedview
     id="namedview1"
     pagecolor="#ffffff"
     bordercolor="#000000"
     borderopacity="0.25"
     inkscape:showpageshadow="2"
     inkscape:pageopacity="0.0"
     inkscape:pagecheckerboard="0"
     inkscape:deskcolor="#d1d1d1"
     inkscape:document-units="px"
     showgrid="true"
     inkscape:zoom="8"
     inkscape:cx="35.375"
     inkscape:cy="30.6875"
     inkscape:window-width="1393"
     inkscape:window-height="701"
     inkscape:window-x="585"
     inkscape:window-y="1173"
     inkscape:window-maximized="0"
     inkscape:current-layer="layer1"><sodipodi:guide
       position="0,15.875003"
       orientation="0,1"
       id="guide7"
       inkscape:locked="false"
       inkscape:label=""
       inkscape:color="rgb(0,134,229)" /><sodipodi:guide
       position="15.875003,16.933336"
       orientation="-1,0"
       id="guide8"
       inkscape:locked="false"
       inkscape:label=""
       inkscape:color="rgb(0,134,229)" /><sodipodi:guide
       position="16.933336,1.0583335"
       orientation="0,1"
       id="guide9"
       inkscape:locked="false"
       inkscape:label=""
       inkscape:color="rgb(0,134,229)" /><sodipodi:guide
       position="1.0583335,0"
       orientation="-1,0"
       id="guide10"
       inkscape:locked="false"
       inkscape:label=""
       inkscape:color="rgb(0,134,229)" /><inkscape:grid
       id="grid10"
       units="px"
       originx="0"
       originy="0"
       spacingx="0.26458338"
       spacingy="0.26458338"
       empcolor="#0099e5"
       empopacity="0.30196078"
       color="#0099e5"
       opacity="0.14901961"
       empspacing="4"
       dotted="true"
       gridanglex="30"
       gridanglez="30"
       visible="true" /></sodipodi:namedview><defs
     id="defs1" /><g
     inkscape:label="layer1"
     inkscape:groupmode="layer"
     id="layer1"><g
       id="g10"
       style="fill:#000000;opacity:1"><path
         id="rect10"
         style="opacity:0;fill:#000000;fill-rule:evenodd;stroke-width:0.396875"
         d="M 0,0 H 16.933336 V 16.933336 H 0 Z"
         inkscape:label="clear-background"
         sodipodi:insensitive="true" /><g
         id="g11"
         transform="matrix(0.51851862,0,0,0.42010276,-0.31357881,2.7590456)"
         style="fill:#000000"><g
           id="g12"
           transform="matrix(1,0,0,1.417164,-1.9312542e-8,-12.357776)"
           style="fill:#000000" /></g></g><path
       id="rect12"
       style="opacity:1;fill:#ffffff;fill-rule:evenodd;stroke-width:0.342926"
       d="M 10.487124,2.6768396 5.3686374,4.233334 3.533917,5.4348112 3.2134854,6.350001 H 1.0583335 v 5.293735 l 1.9925685,0.105419 0.9470882,0.950847 2.3135262,0.699182 0.5877209,0.07235 2.4040256,0.09405 0.00474,0.0047 4.2303281,0.47284 0.422506,-0.513664 0.04578,-0.529167 -0.326746,-0.592729 -3.8735914,-0.433565 0.041567,-0.03204 0.036831,-0.312643 4.4407924,0.319877 0.710316,-0.470255 0.03104,-0.766362 L 14.399124,10.129099 9.9099256,9.8056046 V 9.515183 l 5.4731174,-0.1126547 0.496169,-0.6325196 -0.0084,-0.592212 -0.512481,-0.6066814 -5.5578287,0.1142049 0.0342,-0.03359 V 7.3339204 L 14.551184,7.1230805 15.237823,6.5716929 15.179945,5.8063648 14.414909,5.3061369 9.2958967,5.5350635 7.1402185,5.5531503 c 0.019816,-0.00551 0.039726,-0.010705 0.062087,-0.018087 C 7.5521331,5.4195731 8.0838545,5.1833293 8.48561,5.0565397 9.1023036,4.861918 9.7226263,4.6642882 10.170901,4.4948168 l 0.585616,-1.0552329 z" /></g><metadata
     id="metadata10"><rdf:RDF><cc:Work
         rdf:about=""><dc:creator><cc:Agent><dc:title>mediapire llc</dc:title></cc:Agent></dc:creator><dc:rights><cc:Agent><dc:title>https://mediapire.com/assets/license</dc:title></cc:Agent></dc:rights></cc:Work></rdf:RDF></metadata></svg>
