<?xml version="1.0" encoding="UTF-8" standalone="no"?>
<!-- Created with Inkscape (http://www.inkscape.org/) -->

<svg
   width="64"
   height="64"
   viewBox="0 0 16.933336 16.933336"
   version="1.1"
   id="svg1"
   inkscape:version="1.3 (0e150ed6c4, 2023-07-21)"
   sodipodi:docname="w-puzzle-piece.svg"
   xml:space="preserve"
   xmlns:inkscape="http://www.inkscape.org/namespaces/inkscape"
   xmlns:sodipodi="http://sodipodi.sourceforge.net/DTD/sodipodi-0.dtd"
   xmlns="http://www.w3.org/2000/svg"
   xmlns:svg="http://www.w3.org/2000/svg"
   xmlns:rdf="http://www.w3.org/1999/02/22-rdf-syntax-ns#"
   xmlns:cc="http://creativecommons.org/ns#"
   xmlns:dc="http://purl.org/dc/elements/1.1/"><sodipodi:namedview
     id="namedview1"
     pagecolor="#ffffff"
     bordercolor="#000000"
     borderopacity="0.25"
     inkscape:showpageshadow="2"
     inkscape:pageopacity="0.0"
     inkscape:pagecheckerboard="0"
     inkscape:deskcolor="#d1d1d1"
     inkscape:document-units="px"
     showgrid="true"
     inkscape:zoom="5.6568545"
     inkscape:cx="43.133512"
     inkscape:cy="38.272153"
     inkscape:window-width="2560"
     inkscape:window-height="947"
     inkscape:window-x="0"
     inkscape:window-y="1112"
     inkscape:window-maximized="1"
     inkscape:current-layer="g5"><sodipodi:guide
       position="8.4666681,15.875002"
       orientation="0,1"
       id="guide7"
       inkscape:locked="false"
       inkscape:label=""
       inkscape:color="rgb(0,134,229)" /><sodipodi:guide
       position="15.875003,8.4666679"
       orientation="-1,0"
       id="guide8"
       inkscape:locked="false"
       inkscape:label=""
       inkscape:color="rgb(0,134,229)" /><sodipodi:guide
       position="8.4666681,-2.5793457e-07"
       orientation="0,1"
       id="guide9"
       inkscape:locked="false"
       inkscape:label=""
       inkscape:color="rgb(0,134,229)" /><sodipodi:guide
       position="1.0583335,8.4666679"
       orientation="-1,0"
       id="guide10"
       inkscape:locked="false"
       inkscape:label=""
       inkscape:color="rgb(0,134,229)" /><inkscape:grid
       id="grid10"
       units="px"
       originx="0"
       originy="0"
       spacingx="0.26458338"
       spacingy="0.26458338"
       empcolor="#0099e5"
       empopacity="0.30196078"
       color="#0099e5"
       opacity="0.14901961"
       empspacing="4"
       dotted="true"
       gridanglex="30"
       gridanglez="30"
       visible="true" /></sodipodi:namedview><defs
     id="defs1" /><g
     inkscape:label="layer1"
     inkscape:groupmode="layer"
     id="layer1"><g
       id="g5"
       transform="matrix(1.074052,0,0,1.0740033,-0.07837166,-1.1748028)"
       style="fill:#000000"><path
         id="rect9"
         style="fill:#ffffff;fill-rule:evenodd;stroke-width:0.400107"
         d="M 8.9001465,2.9554962 A 1.1429184,1.1429702 0 0 0 7.7571976,4.098497 1.1429184,1.1429702 0 0 0 8.0280484,4.8358233 H 3.8189035 V 9.0513621 A 1.1429184,1.1429702 0 0 0 3.0733402,8.7742961 1.1429184,1.1429702 0 0 0 1.9303913,9.9172968 1.1429184,1.1429702 0 0 0 3.0733402,11.060297 1.1429184,1.1429702 0 0 0 3.8189035,10.783231 v 4.215539 h 4.456839 A 1.1429184,1.1429702 0 0 1 7.7571976,14.042272 1.1429184,1.1429702 0 0 1 8.9001465,12.899271 1.1429184,1.1429702 0 0 1 10.043095,14.042272 1.1429184,1.1429702 0 0 1 9.5245506,14.99877 h 4.4568384 v -4.445876 a 1.1429184,1.1429702 0 0 1 -0.948184,0.507403 1.1429184,1.1429702 0 0 1 -1.142949,-1.1430002 1.1429184,1.1429702 0 0 1 1.142949,-1.1430007 1.1429184,1.1429702 0 0 1 0.948184,0.5049218 V 4.8358233 H 9.7722446 A 1.1429184,1.1429702 0 0 0 10.043095,4.098497 1.1429184,1.1429702 0 0 0 8.9001465,2.9554962 Z" /></g></g><metadata
     id="metadata10"><rdf:RDF><cc:Work
         rdf:about=""><dc:creator><cc:Agent><dc:title>mediapire llc</dc:title></cc:Agent></dc:creator><dc:rights><cc:Agent><dc:title>https://mediapire.com/assets/license</dc:title></cc:Agent></dc:rights></cc:Work></rdf:RDF></metadata></svg>
