<?xml version="1.0" encoding="UTF-8" standalone="no"?>
<!-- Created with Inkscape (http://www.inkscape.org/) -->

<svg
   width="64"
   height="64"
   viewBox="0 0 16.933336 16.933336"
   version="1.1"
   id="svg1"
   inkscape:version="1.3 (0e150ed6c4, 2023-07-21)"
   sodipodi:docname="w-scissors-hand-game.svg"
   xml:space="preserve"
   xmlns:inkscape="http://www.inkscape.org/namespaces/inkscape"
   xmlns:sodipodi="http://sodipodi.sourceforge.net/DTD/sodipodi-0.dtd"
   xmlns="http://www.w3.org/2000/svg"
   xmlns:svg="http://www.w3.org/2000/svg"
   xmlns:rdf="http://www.w3.org/1999/02/22-rdf-syntax-ns#"
   xmlns:cc="http://creativecommons.org/ns#"
   xmlns:dc="http://purl.org/dc/elements/1.1/"><sodipodi:namedview
     id="namedview1"
     pagecolor="#ffffff"
     bordercolor="#000000"
     borderopacity="0.25"
     inkscape:showpageshadow="2"
     inkscape:pageopacity="0.0"
     inkscape:pagecheckerboard="0"
     inkscape:deskcolor="#d1d1d1"
     inkscape:document-units="px"
     showgrid="true"
     inkscape:zoom="5.6568543"
     inkscape:cx="15.909903"
     inkscape:cy="54.889164"
     inkscape:window-width="1393"
     inkscape:window-height="701"
     inkscape:window-x="585"
     inkscape:window-y="1173"
     inkscape:window-maximized="0"
     inkscape:current-layer="layer1"><sodipodi:guide
       position="0,15.875003"
       orientation="0,1"
       id="guide7"
       inkscape:locked="false"
       inkscape:label=""
       inkscape:color="rgb(0,134,229)" /><sodipodi:guide
       position="15.875003,16.933336"
       orientation="-1,0"
       id="guide8"
       inkscape:locked="false"
       inkscape:label=""
       inkscape:color="rgb(0,134,229)" /><sodipodi:guide
       position="16.933336,1.0583335"
       orientation="0,1"
       id="guide9"
       inkscape:locked="false"
       inkscape:label=""
       inkscape:color="rgb(0,134,229)" /><sodipodi:guide
       position="1.0583335,0"
       orientation="-1,0"
       id="guide10"
       inkscape:locked="false"
       inkscape:label=""
       inkscape:color="rgb(0,134,229)" /><inkscape:grid
       id="grid10"
       units="px"
       originx="0"
       originy="0"
       spacingx="0.26458338"
       spacingy="0.26458338"
       empcolor="#0099e5"
       empopacity="0.30196078"
       color="#0099e5"
       opacity="0.14901961"
       empspacing="4"
       dotted="true"
       gridanglex="30"
       gridanglez="30"
       visible="true" /></sodipodi:namedview><defs
     id="defs1" /><g
     inkscape:label="layer1"
     inkscape:groupmode="layer"
     id="layer1"><g
       id="g10"
       style="fill:#000000;opacity:1"><path
         id="rect10"
         style="opacity:0;fill:#000000;fill-rule:evenodd;stroke-width:0.396875"
         d="M 0,0 H 16.933336 V 16.933336 H 0 Z"
         inkscape:label="clear-background"
         sodipodi:insensitive="true" /><g
         id="g11"
         transform="matrix(0.51851862,0,0,0.42010276,-0.31357881,2.7590456)"
         style="fill:#000000"><g
           id="g12"
           transform="matrix(1,0,0,1.417164,-1.9312542e-8,-12.357776)"
           style="fill:#000000" /></g></g><path
       id="rect12"
       style="opacity:1;fill:#ffffff;fill-rule:evenodd;stroke-width:0.33985"
       d="M 1.0583335,6.3500011 H 3.4395839 L 3.7518005,9.1653854 4.0994316,9.5848886 2.8345291,10.673131 3.1798124,11.757869 1.0583335,11.643743 Z"
       sodipodi:nodetypes="cccccccc" /><path
       id="rect13-8"
       style="fill:#ffffff;fill-rule:evenodd;stroke-width:0.381799"
       d="M 14.252226,5.3482703 9.603694,7.276043 8.9412725,6.8862215 8.7004835,6.3487908 8.8587712,5.6134074 13.507303,3.6856348 l 0.877181,0.2141366 0.313709,0.7001835 z"
       sodipodi:nodetypes="ccccccccc" /><path
       id="rect16"
       style="opacity:1;fill:#ffffff;fill-rule:evenodd;stroke-width:0.423638"
       d="M 3.8008614,6.1515637 4.5027291,5.0270843 h 1.5680243 l 0.2837364,1.1244794 0.00478,2.8729297 -0.8559923,0.5005083 H 4.7923757 L 4.0845979,8.9627621 Z"
       sodipodi:nodetypes="ccccccccc" /><path
       id="rect17"
       style="opacity:1;fill:#ffffff;fill-rule:evenodd;stroke-width:0.396875"
       d="m 2.6458338,10.583335 0.7937501,-1.0583334 0.6598477,0.059887 0.6630692,0.3264344 0.6800531,0.061721 0.9167159,-0.5083276 -0.00927,1.6477856 0.2310774,0.560123 -0.2310774,0.49821 0.00795,1.090376 -0.071856,0.06345 -0.068147,0.07474 -2.2724419,-0.699401 -1.035086,-1.058335 z"
       sodipodi:nodetypes="ccccccccccccccc" /><path
       id="rect13-8-7"
       style="fill:#ffffff;fill-rule:evenodd;stroke-width:0.385751"
       d="M 9.789585,7.672918 14.847918,8.3854492 15.202797,9.0588413 15.11388,9.6441606 14.572829,10.196237 9.5144964,9.4837052 8.8782245,8.8519364 8.9940744,8.0893622 Z"
       sodipodi:nodetypes="ccccccccc" /><path
       id="rect13-8-7-6"
       style="fill:#ffffff;fill-rule:evenodd;stroke-width:0.316724"
       d="m 7.1102451,9.7387374 h 3.7336759 l 0.330385,0.5693586 v 0.546016 l -0.330385,0.573822 H 7.1102451 L 6.5810785,10.932792 v -0.711369 z"
       sodipodi:nodetypes="ccccccccc" /><path
       id="rect13-8-7-7"
       style="fill:#ffffff;fill-rule:evenodd;stroke-width:0.316724"
       d="m 7.1102451,11.855405 h 3.7336759 l 0.330385,0.569359 v 0.546016 l -0.330385,0.573822 H 7.1102451 L 6.5810785,13.04946 v -0.711369 z"
       sodipodi:nodetypes="ccccccccc" /><path
       style="opacity:1;fill:#ffffff;fill-rule:evenodd;stroke:none;stroke-width:0.396875"
       d="M 6.7016948,5.8121234 9.2604186,5.556251 8.9958352,6.0854177 9.2604186,6.8791679 9.7895853,7.1437513 V 7.672918 L 9.5250019,7.9375014 9.2604186,8.7312518 10.054169,9.5250019 7.0887396,9.5250017 6.6145845,8.9988719 V 6.3389478 l 0,-0.3955839 c 0.029037,-0.043747 0.058074,-0.087494 0.08711,-0.1312405 z"
       id="path17"
       sodipodi:nodetypes="cccccccccccccc" /></g><metadata
     id="metadata10"><rdf:RDF><cc:Work
         rdf:about=""><dc:creator><cc:Agent><dc:title>mediapire llc</dc:title></cc:Agent></dc:creator><dc:rights><cc:Agent><dc:title>https://mediapire.com/assets/license</dc:title></cc:Agent></dc:rights></cc:Work></rdf:RDF></metadata></svg>
