<?xml version="1.0" encoding="UTF-8" standalone="no"?>
<!-- Created with Inkscape (http://www.inkscape.org/) -->

<svg
   width="64"
   height="64"
   viewBox="0 0 16.933336 16.933336"
   version="1.1"
   id="svg1"
   inkscape:version="1.3 (0e150ed6c4, 2023-07-21)"
   sodipodi:docname="w-server-rack.svg"
   xml:space="preserve"
   xmlns:inkscape="http://www.inkscape.org/namespaces/inkscape"
   xmlns:sodipodi="http://sodipodi.sourceforge.net/DTD/sodipodi-0.dtd"
   xmlns="http://www.w3.org/2000/svg"
   xmlns:svg="http://www.w3.org/2000/svg"
   xmlns:rdf="http://www.w3.org/1999/02/22-rdf-syntax-ns#"
   xmlns:cc="http://creativecommons.org/ns#"
   xmlns:dc="http://purl.org/dc/elements/1.1/"><sodipodi:namedview
     id="namedview1"
     pagecolor="#ffffff"
     bordercolor="#000000"
     borderopacity="0.25"
     inkscape:showpageshadow="2"
     inkscape:pageopacity="0.0"
     inkscape:pagecheckerboard="0"
     inkscape:deskcolor="#d1d1d1"
     inkscape:document-units="px"
     showgrid="true"
     inkscape:zoom="4.0000002"
     inkscape:cx="22.999999"
     inkscape:cy="62.624997"
     inkscape:window-width="2560"
     inkscape:window-height="947"
     inkscape:window-x="0"
     inkscape:window-y="1112"
     inkscape:window-maximized="1"
     inkscape:current-layer="g5"><sodipodi:guide
       position="8.4666681,15.875002"
       orientation="0,1"
       id="guide7"
       inkscape:locked="false"
       inkscape:label=""
       inkscape:color="rgb(0,134,229)" /><sodipodi:guide
       position="15.875003,8.4666679"
       orientation="-1,0"
       id="guide8"
       inkscape:locked="false"
       inkscape:label=""
       inkscape:color="rgb(0,134,229)" /><sodipodi:guide
       position="8.4666681,-2.5793457e-07"
       orientation="0,1"
       id="guide9"
       inkscape:locked="false"
       inkscape:label=""
       inkscape:color="rgb(0,134,229)" /><sodipodi:guide
       position="1.0583335,8.4666679"
       orientation="-1,0"
       id="guide10"
       inkscape:locked="false"
       inkscape:label=""
       inkscape:color="rgb(0,134,229)" /><inkscape:grid
       id="grid10"
       units="px"
       originx="0"
       originy="0"
       spacingx="0.26458338"
       spacingy="0.26458338"
       empcolor="#0099e5"
       empopacity="0.30196078"
       color="#0099e5"
       opacity="0.14901961"
       empspacing="4"
       dotted="true"
       gridanglex="30"
       gridanglez="30"
       visible="true" /></sodipodi:namedview><defs
     id="defs1" /><g
     inkscape:label="layer1"
     inkscape:groupmode="layer"
     id="layer1"><g
       id="g5"
       transform="matrix(1.074052,0,0,1.0740033,-0.07837166,-1.1748028)"
       style="fill:#000000"><path
         id="rect4"
         style="fill:#ffffff;fill-rule:evenodd;stroke-width:0.37428"
         d="m 2.2309291,3.0646739 c -0.1037853,0 -0.1872304,0.073422 -0.1872304,0.1647314 v 2.6429594 c 0,0.09131 0.083445,0.1647314 0.1872304,0.1647314 H 13.680851 c 0.103785,0 0.187231,-0.073423 0.187231,-0.1647314 V 3.2294053 c 0,-0.09131 -0.08345,-0.1647314 -0.187231,-0.1647314 z m 0.2111497,0.1857763 h 7.2269278 c 0.1037853,0 0.1872305,0.073422 0.1872305,0.1647314 v 2.2714067 c 0,0.09131 -0.083446,0.1647314 -0.1872305,0.1647314 H 2.4420788 c -0.1037853,0 -0.1872304,-0.073422 -0.1872304,-0.1647314 V 3.4151816 c 0,-0.091309 0.083445,-0.1647314 0.1872304,-0.1647314 z m 7.8125392,0 h 3.231992 c 0.103784,0 0.18723,0.073422 0.18723,0.1647314 v 2.2714067 c 0,0.09131 -0.08345,0.1647314 -0.18723,0.1647314 h -3.231992 c -0.103786,0 -0.187231,-0.073422 -0.187231,-0.1647314 V 3.4151816 c 0,-0.09131 0.08345,-0.1647314 0.187231,-0.1647314 z M 2.6532285,3.4362267 c -0.1037852,0 -0.1872304,0.073421 -0.1872304,0.1647313 v 1.8998538 c 0,0.091309 0.083445,0.1647315 0.1872304,0.1647315 h 0.8924374 c 0.1037846,0 0.1872302,-0.073422 0.1872302,-0.1647315 V 3.600958 c 0,-0.091309 -0.083445,-0.1647313 -0.1872302,-0.1647313 z m 1.4928943,0 c -0.1037852,0 -0.1872305,0.073421 -0.1872305,0.1647313 v 0.6937588 c 0,0.091309 0.083445,0.1647314 0.1872305,0.1647314 h 3.8188401 c 0.1037847,0 0.1872303,-0.073422 0.1872303,-0.1647314 V 3.600958 c 0,-0.091309 -0.083445,-0.1647313 -0.1872303,-0.1647313 z m 4.419297,0 c -0.1037851,0 -0.1872304,0.073421 -0.1872304,0.1647313 v 1.8998538 c 0,0.091309 0.083445,0.1647315 0.1872304,0.1647315 h 0.8924376 c 0.1037852,0 0.1872305,-0.073422 0.1872305,-0.1647315 V 3.600958 c 0,-0.091309 -0.083446,-0.1647313 -0.1872305,-0.1647313 z m 1.9003472,0 c -0.103785,0 -0.187231,0.073421 -0.187231,0.1647313 v 0.042091 c 0,0.09131 0.08345,0.1647314 0.187231,0.1647314 h 1.948185 c 0.103786,0 0.187232,-0.073422 0.187232,-0.1647314 V 3.600958 c 0,-0.09131 -0.08345,-0.1647313 -0.187232,-0.1647313 z m 2.71979,0.092888 A 0.31672453,0.27866457 0 0 0 12.868832,3.8077794 0.31672453,0.27866457 0 0 0 13.185557,4.086444 0.31672453,0.27866457 0 0 0 13.502281,3.8077794 0.31672453,0.27866457 0 0 0 13.185557,3.5291147 Z m -2.71979,0.5188677 c -0.103785,0 -0.187231,0.073422 -0.187231,0.1647314 v 0.041728 c 0,0.09131 0.08345,0.1650942 0.187231,0.1650942 h 1.948185 c 0.103786,0 0.187232,-0.073784 0.187232,-0.1650942 v -0.041728 c 0,-0.091309 -0.08345,-0.1647314 -0.187232,-0.1647314 z m 0,0.611393 c -0.103785,0 -0.187231,0.073785 -0.187231,0.1650943 v 0.041728 c 0,0.09131 0.08345,0.1647314 0.187231,0.1647314 h 1.948185 c 0.103786,0 0.187232,-0.073423 0.187232,-0.1647314 v -0.041728 c 0,-0.09131 -0.08345,-0.1650943 -0.187232,-0.1650943 z m -6.3266551,0.021044 c -0.099931,0 -0.1802196,0.070645 -0.1802196,0.1585631 v 0.6679967 c 0,0.087918 0.080288,0.1585631 0.1802196,0.1585631 h 3.8328618 c 0.099931,0 0.1802195,-0.070645 0.1802195,-0.1585631 V 4.8389834 c 0,-0.087917 -0.080288,-0.1585629 -0.1802195,-0.1585629 z m 9.0464451,0.3120464 a 0.31672453,0.27866457 0 0 0 -0.316725,0.2786645 0.31672453,0.27866457 0 0 0 0.316725,0.2786648 0.31672453,0.27866457 0 0 0 0.316724,-0.2786648 0.31672453,0.27866457 0 0 0 -0.316724,-0.2786645 z m -2.71979,0.2786645 c -0.103785,0 -0.187231,0.073423 -0.187231,0.1647315 v 0.04209 c 0,0.09131 0.08345,0.1647315 0.187231,0.1647315 h 1.948185 c 0.103786,0 0.187232,-0.073422 0.187232,-0.1647315 v -0.04209 c 0,-0.09131 -0.08345,-0.1647315 -0.187232,-0.1647315 z" /><path
         id="rect4-5"
         style="fill:#ffffff;fill-rule:evenodd;stroke-width:0.37428"
         d="m 2.2309292,6.0370961 c -0.1037854,0 -0.1872304,0.073421 -0.1872304,0.1647314 v 2.6429593 c 0,0.09131 0.083445,0.1647315 0.1872304,0.1647315 H 13.680851 c 0.103785,0 0.187231,-0.073422 0.187231,-0.1647315 V 6.2018275 c 0,-0.09131 -0.08345,-0.1647314 -0.187231,-0.1647314 z m 0.2111497,0.1857764 h 7.2269277 c 0.1037853,0 0.1872305,0.073422 0.1872305,0.1647314 v 2.2714066 c 0,0.091309 -0.083446,0.1647314 -0.1872305,0.1647314 H 2.4420789 c -0.1037853,0 -0.1872304,-0.073422 -0.1872304,-0.1647314 V 6.3876039 c 0,-0.091309 0.083445,-0.1647314 0.1872304,-0.1647314 z m 7.8125391,0 h 3.231992 c 0.103784,0 0.18723,0.073422 0.18723,0.1647314 v 2.2714066 c 0,0.09131 -0.08345,0.1647314 -0.18723,0.1647314 h -3.231992 c -0.103786,0 -0.187231,-0.073422 -0.187231,-0.1647314 V 6.3876039 c 0,-0.09131 0.08345,-0.1647314 0.187231,-0.1647314 z M 2.6532285,6.4086489 c -0.1037851,0 -0.1872303,0.073421 -0.1872303,0.1647313 v 1.8998539 c 0,0.091309 0.083445,0.1647315 0.1872303,0.1647315 H 3.545666 c 0.1037846,0 0.1872302,-0.073422 0.1872302,-0.1647315 V 6.5733802 c 0,-0.091309 -0.083445,-0.1647313 -0.1872302,-0.1647313 z m 1.4928944,0 c -0.1037852,0 -0.1872305,0.073421 -0.1872305,0.1647313 v 0.6937587 c 0,0.091309 0.083445,0.1647314 0.1872305,0.1647314 h 3.81884 c 0.1037848,0 0.1872304,-0.073422 0.1872304,-0.1647314 V 6.5733802 c 0,-0.091309 -0.083445,-0.1647313 -0.1872304,-0.1647313 z m 4.419297,0 c -0.1037851,0 -0.1872305,0.073421 -0.1872305,0.1647313 v 1.8998539 c 0,0.091309 0.083445,0.1647315 0.1872305,0.1647315 h 0.8924375 c 0.1037852,0 0.1872305,-0.073422 0.1872305,-0.1647315 V 6.5733802 c 0,-0.091309 -0.083446,-0.1647313 -0.1872305,-0.1647313 z m 1.9003471,0 c -0.103785,0 -0.187231,0.073421 -0.187231,0.1647313 v 0.04209 c 0,0.09131 0.08345,0.1647314 0.187231,0.1647314 h 1.948185 c 0.103786,0 0.187232,-0.073422 0.187232,-0.1647314 v -0.042089 c 0,-0.09131 -0.08345,-0.1647313 -0.187232,-0.1647313 z m 2.71979,0.092888 A 0.31672453,0.27866457 0 0 0 12.868832,6.7802014 0.31672453,0.27866457 0 0 0 13.185557,7.058866 0.31672453,0.27866457 0 0 0 13.502281,6.7802014 0.31672453,0.27866457 0 0 0 13.185557,6.5015369 Z m -2.71979,0.5188676 c -0.103785,0 -0.187231,0.073422 -0.187231,0.1647314 v 0.041728 c 0,0.09131 0.08345,0.1650942 0.187231,0.1650942 h 1.948185 c 0.103786,0 0.187232,-0.073784 0.187232,-0.1650942 v -0.041728 c 0,-0.09131 -0.08345,-0.1647314 -0.187232,-0.1647314 z m 0,0.611393 c -0.103785,0 -0.187231,0.073784 -0.187231,0.1650942 v 0.041728 c 0,0.09131 0.08345,0.1647315 0.187231,0.1647315 h 1.948185 c 0.103786,0 0.187232,-0.073422 0.187232,-0.1647315 v -0.041728 c 0,-0.09131 -0.08345,-0.1650942 -0.187232,-0.1650942 z M 4.139112,7.652842 c -0.099931,0 -0.1802196,0.070645 -0.1802196,0.1585629 v 0.6679968 c 0,0.087918 0.080288,0.158563 0.1802196,0.158563 h 3.8328618 c 0.099931,0 0.1802195,-0.070645 0.1802195,-0.158563 v -0.667996 c 0,-0.087918 -0.080288,-0.158563 -0.1802195,-0.158563 z m 9.046445,0.3120466 a 0.31672453,0.27866457 0 0 0 -0.316725,0.2786646 0.31672453,0.27866457 0 0 0 0.316725,0.2786646 0.31672453,0.27866457 0 0 0 0.316724,-0.2786646 0.31672453,0.27866457 0 0 0 -0.316724,-0.2786646 z m -2.71979,0.2786646 c -0.103785,0 -0.187231,0.073422 -0.187231,0.1647313 v 0.04209 c 0,0.09131 0.08345,0.1647315 0.187231,0.1647315 h 1.948185 c 0.103786,0 0.187232,-0.073422 0.187232,-0.1647315 v -0.042089 c 0,-0.09131 -0.08345,-0.1647315 -0.187232,-0.1647315 z" /><path
         id="rect4-5-5"
         style="fill:#ffffff;fill-rule:evenodd;stroke-width:0.37428"
         d="m 2.2309292,9.0095187 c -0.1037854,0 -0.1872304,0.073421 -0.1872304,0.1647313 v 2.64296 c 0,0.09131 0.083445,0.16473 0.1872304,0.16473 H 13.680851 c 0.103785,0 0.187231,-0.07342 0.187231,-0.16473 V 9.17425 c 0,-0.09131 -0.08345,-0.1647313 -0.187231,-0.1647313 z m 0.2111497,0.1857761 h 7.2269277 c 0.1037853,0 0.1872305,0.073421 0.1872305,0.1647312 v 2.271406 c 0,0.09131 -0.083446,0.164733 -0.1872305,0.164733 H 2.4420789 c -0.1037853,0 -0.1872304,-0.07342 -0.1872304,-0.164733 V 9.360026 c 0,-0.091309 0.083445,-0.1647312 0.1872304,-0.1647312 z m 7.8125391,0 h 3.231992 c 0.103784,0 0.18723,0.073421 0.18723,0.1647312 v 2.271406 c 0,0.09131 -0.08345,0.164733 -0.18723,0.164733 h -3.231992 c -0.103786,0 -0.187231,-0.07342 -0.187231,-0.164733 V 9.360026 c 0,-0.091309 0.08345,-0.1647312 0.187231,-0.1647312 z M 2.6532285,9.3810716 c -0.1037851,0 -0.1872303,0.073421 -0.1872303,0.1647311 v 1.8998543 c 0,0.09131 0.083445,0.164731 0.1872303,0.164731 H 3.545666 c 0.1037846,0 0.1872302,-0.07342 0.1872302,-0.164731 V 9.5458027 c 0,-0.09131 -0.083445,-0.1647311 -0.1872302,-0.1647311 z m 1.4928944,0 c -0.1037852,0 -0.1872305,0.073421 -0.1872305,0.1647311 v 0.6937583 c 0,0.09131 0.083445,0.164732 0.1872305,0.164732 h 3.81884 c 0.1037848,0 0.1872304,-0.07342 0.1872304,-0.164732 V 9.5458027 c 0,-0.09131 -0.083445,-0.1647311 -0.1872304,-0.1647311 z m 4.419297,0 c -0.1037851,0 -0.1872305,0.073421 -0.1872305,0.1647311 v 1.8998543 c 0,0.09131 0.083445,0.164731 0.1872305,0.164731 h 0.8924375 c 0.1037852,0 0.1872305,-0.07342 0.1872305,-0.164731 V 9.5458027 c 0,-0.09131 -0.083446,-0.1647311 -0.1872305,-0.1647311 z m 1.9003471,0 c -0.103785,0 -0.187231,0.073421 -0.187231,0.1647311 v 0.042083 c 0,0.091311 0.08345,0.1647314 0.187231,0.1647314 h 1.948185 c 0.103786,0 0.187232,-0.073422 0.187232,-0.1647314 v -0.042083 c 0,-0.09131 -0.08345,-0.1647311 -0.187232,-0.1647311 z m 2.71979,0.092888 a 0.31672453,0.27866457 0 0 0 -0.316725,0.278664 0.31672453,0.27866457 0 0 0 0.316725,0.2786654 0.31672453,0.27866457 0 0 0 0.316724,-0.2786654 0.31672453,0.27866457 0 0 0 -0.316724,-0.278664 z m -2.71979,0.518868 c -0.103785,0 -0.187231,0.073421 -0.187231,0.1647304 v 0.04172 c 0,0.09131 0.08345,0.165094 0.187231,0.165094 h 1.948185 c 0.103786,0 0.187232,-0.07378 0.187232,-0.165094 v -0.04172 c 0,-0.09131 -0.08345,-0.1647304 -0.187232,-0.1647304 z m 0,0.6113914 c -0.103785,0 -0.187231,0.07378 -0.187231,0.165096 v 0.04172 c 0,0.09131 0.08345,0.164733 0.187231,0.164733 h 1.948185 c 0.103786,0 0.187232,-0.07342 0.187232,-0.164733 v -0.04172 c 0,-0.09131 -0.08345,-0.165096 -0.187232,-0.165096 z m -6.326655,0.02105 c -0.099931,0 -0.1802196,0.07064 -0.1802196,0.158564 v 0.667996 c 0,0.08791 0.080288,0.158563 0.1802196,0.158563 h 3.8328618 c 0.099931,0 0.1802195,-0.07064 0.1802195,-0.158563 v -0.667996 c 0,-0.08791 -0.080288,-0.158563 -0.1802195,-0.158563 z m 9.046445,0.312048 a 0.31672453,0.27866457 0 0 0 -0.316725,0.278664 0.31672453,0.27866457 0 0 0 0.316725,0.278664 0.31672453,0.27866457 0 0 0 0.316724,-0.278664 0.31672453,0.27866457 0 0 0 -0.316724,-0.278664 z m -2.71979,0.278664 c -0.103785,0 -0.187231,0.07342 -0.187231,0.164731 v 0.04208 c 0,0.09131 0.08345,0.164732 0.187231,0.164732 h 1.948185 c 0.103786,0 0.187232,-0.07342 0.187232,-0.164732 v -0.04208 c 0,-0.09131 -0.08345,-0.164731 -0.187232,-0.164731 z" /><path
         id="rect4-5-5-7"
         style="fill:#ffffff;fill-rule:evenodd;stroke-width:0.37428"
         d="m 2.2309291,11.917172 c -0.1037853,0 -0.1872304,0.07342 -0.1872304,0.16473 v 2.64296 c 0,0.09131 0.083445,0.164731 0.1872304,0.164731 H 13.680851 c 0.103785,0 0.187231,-0.07342 0.187231,-0.164731 v -2.64296 c 0,-0.09131 -0.08345,-0.16473 -0.187231,-0.16473 z m 0.2111497,0.185775 h 7.2269278 c 0.1037853,0 0.1872305,0.07342 0.1872305,0.164732 v 2.271406 c 0,0.09131 -0.083446,0.164731 -0.1872305,0.164731 H 2.4420788 c -0.1037853,0 -0.1872304,-0.07342 -0.1872304,-0.164731 v -2.271406 c 0,-0.09131 0.083445,-0.164732 0.1872304,-0.164732 z m 7.8125392,0 h 3.231992 c 0.103784,0 0.18723,0.07342 0.18723,0.164732 v 2.271406 c 0,0.09131 -0.08345,0.164731 -0.18723,0.164731 h -3.231992 c -0.103786,0 -0.187231,-0.07342 -0.187231,-0.164731 v -2.271406 c 0,-0.09131 0.08345,-0.164732 0.187231,-0.164732 z m -7.6013895,0.185777 c -0.1037852,0 -0.1872304,0.07342 -0.1872304,0.164731 v 1.899853 c 0,0.09131 0.083445,0.164732 0.1872304,0.164732 h 0.8924374 c 0.1037846,0 0.1872302,-0.07342 0.1872302,-0.164732 v -1.899853 c 0,-0.09131 -0.083445,-0.164731 -0.1872302,-0.164731 z m 1.4928943,0 c -0.1037852,0 -0.1872305,0.07342 -0.1872305,0.164731 v 0.693758 c 0,0.09131 0.083445,0.164732 0.1872305,0.164732 h 3.8188401 c 0.1037847,0 0.1872303,-0.07342 0.1872303,-0.164732 v -0.693758 c 0,-0.09131 -0.083445,-0.164731 -0.1872303,-0.164731 z m 4.419297,0 c -0.1037851,0 -0.1872304,0.07342 -0.1872304,0.164731 v 1.899853 c 0,0.09131 0.083445,0.164732 0.1872304,0.164732 h 0.8924376 c 0.1037852,0 0.1872305,-0.07342 0.1872305,-0.164732 v -1.899853 c 0,-0.09131 -0.083446,-0.164731 -0.1872305,-0.164731 z m 1.9003472,0 c -0.103785,0 -0.187231,0.07342 -0.187231,0.164731 v 0.04208 c 0,0.09131 0.08345,0.164733 0.187231,0.164733 h 1.948185 c 0.103786,0 0.187232,-0.07342 0.187232,-0.164733 v -0.04208 c 0,-0.09131 -0.08345,-0.164731 -0.187232,-0.164731 z m 2.71979,0.09289 a 0.31672453,0.27866457 0 0 0 -0.316725,0.278664 0.31672453,0.27866457 0 0 0 0.316725,0.278665 0.31672453,0.27866457 0 0 0 0.316724,-0.278665 0.31672453,0.27866457 0 0 0 -0.316724,-0.278664 z m -2.71979,0.518868 c -0.103785,0 -0.187231,0.07342 -0.187231,0.164732 v 0.04172 c 0,0.09131 0.08345,0.165094 0.187231,0.165094 h 1.948185 c 0.103786,0 0.187232,-0.07378 0.187232,-0.165094 v -0.04172 c 0,-0.09131 -0.08345,-0.164732 -0.187232,-0.164732 z m 0,0.611393 c -0.103785,0 -0.187231,0.07378 -0.187231,0.165094 v 0.04172 c 0,0.09131 0.08345,0.164731 0.187231,0.164731 h 1.948185 c 0.103786,0 0.187232,-0.07342 0.187232,-0.164731 v -0.04172 c 0,-0.09131 -0.08345,-0.165094 -0.187232,-0.165094 z m -6.3266551,0.02106 c -0.099931,0 -0.1802196,0.07064 -0.1802196,0.158564 v 0.667996 c 0,0.08791 0.080288,0.158563 0.1802196,0.158563 h 3.8328618 c 0.099931,0 0.1802195,-0.07064 0.1802195,-0.158563 v -0.667996 c 0,-0.08791 -0.080288,-0.158563 -0.1802195,-0.158563 z m 9.0464451,0.312047 a 0.31672453,0.27866457 0 0 0 -0.316725,0.278664 0.31672453,0.27866457 0 0 0 0.316725,0.278665 0.31672453,0.27866457 0 0 0 0.316724,-0.278665 0.31672453,0.27866457 0 0 0 -0.316724,-0.278664 z m -2.71979,0.278664 c -0.103785,0 -0.187231,0.07342 -0.187231,0.164732 v 0.04208 c 0,0.09131 0.08345,0.164731 0.187231,0.164731 h 1.948185 c 0.103786,0 0.187232,-0.07342 0.187232,-0.164731 v -0.04208 c 0,-0.09131 -0.08345,-0.164732 -0.187232,-0.164732 z" /></g></g><metadata
     id="metadata10"><rdf:RDF><cc:Work
         rdf:about=""><dc:creator><cc:Agent><dc:title>mediapire llc</dc:title></cc:Agent></dc:creator><dc:rights><cc:Agent><dc:title>https://mediapire.com/assets/license</dc:title></cc:Agent></dc:rights></cc:Work></rdf:RDF></metadata></svg>
