<?xml version="1.0" encoding="UTF-8" standalone="no"?>
<!-- Created with Inkscape (http://www.inkscape.org/) -->

<svg
   width="64"
   height="64"
   viewBox="0 0 16.933336 16.933336"
   version="1.1"
   id="svg1"
   inkscape:version="1.3 (0e150ed6c4, 2023-07-21)"
   sodipodi:docname="w-skull-bones.svg"
   xml:space="preserve"
   xmlns:inkscape="http://www.inkscape.org/namespaces/inkscape"
   xmlns:sodipodi="http://sodipodi.sourceforge.net/DTD/sodipodi-0.dtd"
   xmlns="http://www.w3.org/2000/svg"
   xmlns:svg="http://www.w3.org/2000/svg"
   xmlns:rdf="http://www.w3.org/1999/02/22-rdf-syntax-ns#"
   xmlns:cc="http://creativecommons.org/ns#"
   xmlns:dc="http://purl.org/dc/elements/1.1/"><sodipodi:namedview
     id="namedview1"
     pagecolor="#ffffff"
     bordercolor="#000000"
     borderopacity="0.25"
     inkscape:showpageshadow="2"
     inkscape:pageopacity="0.0"
     inkscape:pagecheckerboard="0"
     inkscape:deskcolor="#d1d1d1"
     inkscape:document-units="px"
     showgrid="true"
     inkscape:zoom="8.0000004"
     inkscape:cx="18.374999"
     inkscape:cy="35.562498"
     inkscape:window-width="2560"
     inkscape:window-height="947"
     inkscape:window-x="0"
     inkscape:window-y="1112"
     inkscape:window-maximized="1"
     inkscape:current-layer="g5"><sodipodi:guide
       position="8.4666681,15.875002"
       orientation="0,1"
       id="guide7"
       inkscape:locked="false"
       inkscape:label=""
       inkscape:color="rgb(0,134,229)" /><sodipodi:guide
       position="15.875003,8.4666679"
       orientation="-1,0"
       id="guide8"
       inkscape:locked="false"
       inkscape:label=""
       inkscape:color="rgb(0,134,229)" /><sodipodi:guide
       position="8.4666681,-2.5793457e-07"
       orientation="0,1"
       id="guide9"
       inkscape:locked="false"
       inkscape:label=""
       inkscape:color="rgb(0,134,229)" /><sodipodi:guide
       position="1.0583335,8.4666679"
       orientation="-1,0"
       id="guide10"
       inkscape:locked="false"
       inkscape:label=""
       inkscape:color="rgb(0,134,229)" /><inkscape:grid
       id="grid10"
       units="px"
       originx="0"
       originy="0"
       spacingx="0.26458338"
       spacingy="0.26458338"
       empcolor="#0099e5"
       empopacity="0.30196078"
       color="#0099e5"
       opacity="0.14901961"
       empspacing="4"
       dotted="true"
       gridanglex="30"
       gridanglez="30"
       visible="true" /></sodipodi:namedview><defs
     id="defs1" /><g
     inkscape:label="layer1"
     inkscape:groupmode="layer"
     id="layer1"><g
       id="g5"
       transform="matrix(1.074052,0,0,1.0740033,-0.05762412,-1.1505549)"><path
         id="path1"
         style="fill:#ffffff;fill-rule:evenodd;stroke-width:0.41205"
         d="m 12.475679,3.7188568 c -0.06573,0.00204 -0.132076,0.023278 -0.193213,0.066192 l -0.372425,0.261597 c -0.195639,0.1373261 -0.261767,0.4399273 -0.14881,0.6777941 l 0.07321,0.154147 c -0.344784,0.425117 -0.629205,0.8838873 -1.470099,1.0318791 -0.0315,0.00554 0.627393,0.8587687 0.686846,1.2807811 0.443655,-0.4634331 0.778924,-1.0145905 1.414494,-0.9838213 l 0.0484,0.1020091 c 0.112958,0.2378655 0.361195,0.3186768 0.556836,0.1813497 l 0.372426,-0.2611438 c 0.195637,-0.1373261 0.262167,-0.4390204 0.14921,-0.6768873 L 13.390139,5.1261293 c -0.07376,-0.1553385 -0.205136,-0.2440484 -0.342023,-0.2484487 0.06526,-0.1463308 0.06776,-0.3284125 -0.006,-0.4837501 L 12.839703,3.9677591 C 12.762044,3.8042257 12.62027,3.7143582 12.475679,3.7188568 Z m -9.1746099,0.02539 C 3.1564773,3.7397472 3.014704,3.8291613 2.937045,3.9926947 L 2.7346315,4.4193196 c -0.073766,0.1553374 -0.071299,0.3369656 -0.006,0.4832965 -0.1368866,0.0044 -0.2682557,0.093564 -0.3420227,0.2489022 L 2.1841949,5.5781431 C 2.0712373,5.81601 2.1377639,6.1177043 2.3334049,6.2550304 L 2.7058296,6.5161738 C 2.9014707,6.6535011 3.149308,6.5726898 3.2622666,6.3348243 L 3.3110696,6.2328152 C 3.9466351,6.2020459 4.2815092,6.7532033 4.7251637,7.2166364 4.7846166,6.794624 5.443513,5.9413997 5.4120094,5.9358553 4.571115,5.7878635 4.2866943,5.3290931 3.9419117,4.9039761 l 0.073205,-0.154147 C 4.1280751,4.5119624 4.0619477,4.2093613 3.8663067,4.0720351 L 3.493882,3.8104384 C 3.4327441,3.7675238 3.3667927,3.7462906 3.3010691,3.7442468 Z m 4.5895049,1.170158 c -1.8098413,-10e-8 -3.2770177,1.6628381 -3.2770177,3.7140391 0.00228,0.9151269 1.0135362,1.7120211 0.8200546,2.4482171 -0.099851,0.37993 0.5064839,0.55436 0.8184543,0.758495 0.031461,0.128839 0.058272,0.256704 0,0.366779 -0.077021,0.145494 0.1207044,0.306481 0.270418,0.306481 h 0.1880124 c 0.081926,0.04668 0.1814555,0.0881 0.3608241,0.104275 0.1434177,-0.02222 0.2870229,-0.04386 0.4188277,-0.104275 0.1106874,0.0587 0.2246451,0.114346 0.4004266,0.109262 0.1516651,-0.0088 0.2728214,-0.0447 0.360824,-0.109262 0.146674,0.03984 0.2685592,0.11372 0.4584304,0.0943 0.090346,-0.0045 0.1805782,-0.02862 0.2704181,-0.0943 H 9.258665 c 0.1497137,0 0.3129012,-0.143784 0.2704179,-0.306481 -0.054279,-0.207867 -0.00579,-0.258145 0,-0.366779 0.3319016,-0.217176 0.8281091,-0.396495 0.8624571,-0.816074 0.08317,-1.015955 0.761758,-1.5122892 0.776051,-2.3906381 0,-2.051201 -1.4671749,-3.7140392 -3.277017,-3.7140391 z M 6.3120692,8.3496179 c 0.2215906,9.893e-4 0.4587267,0.033418 0.7200478,0.1142502 0.185874,0.057495 0.7316483,1.4902397 0.3288219,1.4902397 H 5.8448381 C 5.3988873,9.5980088 5.2341592,8.5365705 5.5160164,8.4638681 5.7679452,8.3988854 6.0271672,8.3483408 6.3120692,8.3496179 Z m 3.1570098,0 c 0.2849024,-0.00128 0.544124,0.049268 0.796053,0.1142502 0.281856,0.072703 0.117129,1.1341407 -0.3288223,1.4902397 H 8.4202093 c -0.4028264,0 0.1429477,-1.4327452 0.3288217,-1.4902397 C 9.0103523,8.3830361 9.247488,8.350611 9.469079,8.3496179 Z M 4.6671599,9.5166018 C 4.2235053,9.9800358 3.8350277,10.617792 3.1994624,10.587018 L 3.1506594,10.485009 C 3.0377006,10.247147 2.7898633,10.166331 2.5942221,10.303659 L 2.2217974,10.564803 C 2.0261567,10.702129 1.9596299,11.003822 2.0725875,11.24169 l 0.2024135,0.426172 c 0.073767,0.155342 0.2051361,0.244472 0.3420227,0.248901 -0.065298,0.146331 -0.068166,0.328412 0.0056,0.483749 l 0.2024135,0.426173 c 0.1129586,0.237868 0.3615959,0.319583 0.557237,0.182256 l 0.3724224,-0.261143 c 0.1956416,-0.137327 0.2617686,-0.439927 0.14881,-0.677795 L 3.8303042,11.915857 C 4.1691248,11.48183 4.4038381,11.122813 5.300402,10.883977 5.4539428,10.843076 4.8898815,9.6851258 4.6671599,9.5166018 Z m 6.5004311,0 c -0.321987,0.173439 -0.743621,1.3445212 -0.594838,1.3673752 0.801926,0.123184 1.129065,0.590215 1.470097,1.03188 l -0.07321,0.154146 c -0.112957,0.237868 -0.04682,0.540468 0.14881,0.677795 l 0.372426,0.261143 c 0.19564,0.137327 0.444277,0.05561 0.557235,-0.182256 l 0.202414,-0.426173 c 0.07376,-0.155337 0.07087,-0.337418 0.0056,-0.483749 0.136886,-0.0044 0.268256,-0.09355 0.342022,-0.248901 l 0.202414,-0.426172 c 0.112958,-0.237867 0.04642,-0.539561 -0.14921,-0.676887 l -0.372465,-0.261144 c -0.195595,-0.137328 -0.443431,-0.05652 -0.556391,0.18135 l -0.0484,0.102009 C 12.038523,10.617788 11.611246,9.9800358 11.167591,9.5166018 Z M 7.7353638,10.28507 c 0.00999,-0.0011 0.01632,0.001 0.017201,0.0077 0.051402,0.391382 0.097181,0.494993 0.1348089,0.488285 0.053801,-0.0096 0.094511,-0.273406 0.1412094,-0.488285 0.00756,-0.03478 0.1675406,0.05528 0.1840122,0.11425 l 0.1840123,0.658752 c 0.054448,0.194903 -0.087618,0.482252 -0.1284086,0.400783 -0.2481311,-0.495572 -0.499201,-0.572538 -0.7552502,0 -0.037712,0.08432 -0.1828563,-0.205881 -0.1284085,-0.400783 l 0.1840124,-0.658751 c 0.013383,-0.04791 0.1235142,-0.116903 0.1668111,-0.121958 z m -2.1017397,1.263554 c -0.011246,0.0029 -0.011253,0.02142 0.004,0.06257 0.3406118,0.918724 0.2178351,1.416012 0.1148076,1.889663 -7.75e-5,3.57e-4 -2.7e-6,6.06e-4 0,9.07e-4 -10e-6,8.02e-4 0,0.0018 0,0.0027 v 0.06619 c 0,0.13473 0.2107103,0.619763 0.3604239,0.619763 h 3.5554366 c 0.1497125,0 0.3600238,-0.485033 0.3600238,-0.619763 v -0.06619 c 0,-8.04e-4 1.1e-5,-0.0018 0,-0.0027 -4e-6,-3.65e-4 6e-6,-6.06e-4 0,-9.07e-4 -0.05615,-0.416961 -0.3124482,-0.64101 0.115207,-1.7872 0.08268,-0.221584 -0.2808726,0.101556 -0.3752249,0.101556 -0.094349,0 -0.1849679,0.07557 -0.1700109,0.207192 0.022956,0.459682 0.010913,0.871357 0.030002,1.389137 H 9.4658788 c 0.00161,-0.01989 0.0024,-0.304184 0.0024,-0.324616 0,-0.321357 -0.2110857,-0.384563 -0.4572304,-0.316001 -0.1208177,0.03366 -0.2161592,0.111212 -0.3012201,0.206738 -0.074409,-0.112401 -0.2297592,-0.176949 -0.4444252,-0.206744 -0.1947828,0.02084 -0.3013808,0.10227 -0.374825,0.206738 -0.086231,-0.121854 -0.230967,-0.17785 -0.3996264,-0.206738 -0.1370162,0.0198 -0.2759104,0.07524 -0.4196279,0.206738 -0.1365132,-0.107358 -0.2635028,-0.191651 -0.3616241,-0.206738 -0.256457,-0.03943 -0.4576304,-0.0053 -0.4576304,0.316002 0,0.02043 7.848e-4,0.304742 0.0024,0.324617 H 6.1524586 c -0.041071,-0.494565 -0.055941,-0.955431 0.030402,-1.389139 0.025591,-0.12854 -0.075662,-0.207192 -0.1700112,-0.207192 -0.076659,0 -0.3304933,-0.2794 -0.3792253,-0.266583 z" /></g></g><metadata
     id="metadata10"><rdf:RDF><cc:Work
         rdf:about=""><dc:creator><cc:Agent><dc:title>mediapire llc</dc:title></cc:Agent></dc:creator><dc:rights><cc:Agent><dc:title>https://mediapire.com/assets/license</dc:title></cc:Agent></dc:rights></cc:Work></rdf:RDF></metadata></svg>
